<svg width="347" height="96" viewBox="0 0 347 96" fill="none" xmlns="http://www.w3.org/2000/svg">
<g clip-path="url(#clip0_1_47)">
<path d="M19.497 39.6408C23.0918 38.2082 27.4106 37.0371 31.5421 36.7755C37.833 36.4142 43.4998 38.0337 45.0226 41.7088C47.3567 47.3647 39.4557 48.8845 34.5128 48.436C29.0332 47.9003 23.7284 46.1064 19.4097 43.2287L17.6123 44.1256C10.1481 48.3364 3.85717 56.8575 3.85717 64.9427C3.85717 67.0979 4.30652 69.2531 5.29259 71.2214C9.24937 78.9328 20.1211 82.259 30.1941 81.985C44.5733 81.5365 59.3145 72.2928 62.3725 63.51C62.6471 62.8871 63.6332 63.7841 63.6332 64.5814C64.2573 71.6699 49.4287 85.5728 31.1926 85.5728C18.6108 85.5728 7.73905 81.3621 2.43423 71.3958C1.17355 68.8793 0.636826 66.2881 0.636826 63.7716C0.636826 54.6276 7.73905 46.0068 15.2033 41.7088L16.4639 40.9863C12.0578 36.9499 9.36171 31.2069 9.81106 23.7695C10.4227 11.6605 21.931 2.32962 33.9636 0.797304C34.9497 0.622894 35.9358 0.622894 36.9343 0.622894C44.5733 0.622894 50.6021 4.74643 50.9515 9.95381C50.1402 13.3673 49.8781 10.4023 49.1541 9.33091C47.182 5.46899 42.9506 3.94913 38.2824 3.94913C36.9343 3.94913 35.5863 4.12354 34.2382 4.31041C24.5273 6.01713 14.3794 13.4545 13.2935 24.0436C12.6694 30.4968 15.2657 35.8785 19.497 39.6533V39.6408ZM22.5551 41.9704C26.1499 44.2128 30.3688 45.5583 34.6876 45.6455C35.761 45.7327 42.3265 45.8199 42.5013 43.4903C42.676 40.625 37.471 39.2795 31.6295 39.8152C28.484 40.1765 25.3386 40.9862 22.5551 41.9704Z" fill="white" stroke="white" stroke-miterlimit="10"/>
<path d="M93.4651 71.483C89.9577 71.483 86.4502 71.5702 83.0427 71.7571C82.7681 75.8806 82.6807 80.191 82.6807 84.4018C82.6807 87.9024 82.7681 91.3034 82.9553 94.6296C83.2299 95.3522 82.4186 95.5266 81.6946 95.2525C80.7959 94.8041 80.9707 93.9071 80.7959 93.2842C80.3466 87.4539 80.1718 81.5365 80.1718 75.5193V72.0187C76.6644 72.2928 73.0696 72.6416 69.5622 73.0901C68.8382 73.0901 67.9395 72.6416 67.59 71.919C66.9659 71.1093 66.9659 70.4864 67.6774 70.3992C71.7216 69.6766 75.8531 69.3153 80.1718 69.1409C80.2592 63.9336 80.5338 58.639 80.9832 53.3569C77.8377 56.5835 72.8075 61.4295 68.4887 60.8067C66.5166 60.5326 64.2698 59.0127 62.9218 57.0444C62.2977 56.0602 61.8483 54.9764 61.9357 54.0794C61.8483 52.4599 62.8344 50.9401 64.2698 49.769C66.1546 48.3364 68.9381 47.3522 72.6327 47.3522C74.6049 47.3522 76.7643 47.5266 80.2717 48.6104L82.0691 46.0068C82.793 44.9354 84.5904 45.9196 84.9399 47.3522C85.3019 48.6976 84.9399 50.2175 84.6653 53.3569C84.0412 58.203 83.5919 63.4975 83.2299 69.0537C86.9995 68.9665 90.9562 68.9665 95.0878 68.9665C98.0585 69.0537 98.9572 71.5702 96.8852 71.483H93.4651ZM78.5492 50.666L78.8238 50.4916L77.8377 50.3172C76.8516 50.1428 75.6783 50.0431 74.6049 50.0431C71.3721 50.0431 68.8507 50.9401 67.1407 52.1983C65.4307 53.5437 64.17 55.8734 66.242 57.6673C69.8368 59.4612 75.3164 53.8926 78.5492 50.666Z" fill="white" stroke="white" stroke-miterlimit="10"/>
<path d="M93.7269 56.0602C93.3649 54.9888 93.1902 53.8178 93.1902 52.6468C93.1902 51.2141 93.4648 49.6818 94.1763 48.436C94.6256 47.5391 95.1623 46.7293 95.9737 46.4677C96.6976 46.2933 97.6837 46.7417 98.3952 47.5515C99.1191 48.2741 98.9319 48.8097 98.4825 49.0714C97.2219 49.8811 96.4105 52.4848 96.4105 54.8144C96.4105 56.4339 96.7725 57.8666 97.7586 58.4895C101.441 61.006 107.47 51.4882 108.181 48.2616C108.456 47.0034 111.601 48.6229 111.414 49.9683C111.326 50.5912 111.239 52.0363 111.239 53.6434C111.601 55.7986 112.225 57.9538 114.747 58.2154C120.95 57.9413 126.342 53.1949 129.313 50.2299C130.124 49.1461 130.037 51.837 128.951 53.5437C127.154 56.3218 122.573 61.1679 116.369 60.8066C112.862 60.8066 110.078 58.6514 108.818 55.6989C107.02 58.3026 104.411 61.442 100.729 61.442C97.7586 61.442 94.7005 59.1124 93.7144 56.0602H93.7269Z" fill="white" stroke="white" stroke-miterlimit="10"/>
<path d="M126.979 52.1111C126.979 49.333 127.516 46.5549 128.502 45.0226C128.589 44.5741 129.488 44.4869 130.574 44.761C131.56 45.1223 132.096 45.8324 132.009 46.2808C131.285 47.0034 129.488 57.1316 130.836 58.3026C131.56 58.8383 132.458 59.1124 133.444 59.1124C139.011 59.1124 148.548 51.9367 151.244 49.2458C151.606 48.8845 152.504 49.4202 151.418 51.401C149.708 54.5404 141.533 61.6289 135.329 61.8905C133.082 61.9777 130.661 61.442 128.951 59.5609C127.603 58.1282 126.979 55.0761 126.979 52.1111Z" fill="white"/>
<path d="M126.979 52.1111C126.979 49.333 127.516 46.5549 128.502 45.0226C128.589 44.5741 129.488 44.4869 130.574 44.761C131.56 45.1223 132.096 45.8324 132.009 46.2808C131.285 47.0034 129.488 57.1316 130.836 58.3026C131.56 58.8383 132.458 59.1124 133.444 59.1124C139.011 59.1124 148.548 51.9367 151.244 49.2458C151.606 48.8845 152.504 49.4202 151.418 51.401C149.708 54.5404 141.533 61.6289 135.329 61.8905C133.082 61.9777 130.661 61.442 128.951 59.5609C127.603 58.1282 126.979 55.0761 126.979 52.1111Z" stroke="white" stroke-miterlimit="10"/>
<path d="M130.661 34.7075C130.486 35.156 129.85 36.9499 129.675 37.224L129.65 37.2115C129.201 37.5603 129.75 38.3701 130.823 38.7314C131.635 39.1799 132.708 39.1799 132.983 38.8186C133.257 38.3701 133.981 36.4018 134.156 35.9533C134.431 35.4176 134.431 34.7947 134.431 34.4334C134.605 33.9849 133.894 33.2749 132.721 33.0008C131.822 32.6395 130.836 32.8264 130.836 33.3621L130.661 34.7075Z" fill="#48AC33"/>
<path d="M130.661 34.7075C130.486 35.156 129.85 36.9499 129.675 37.224L129.65 37.2115C129.201 37.5603 129.75 38.3701 130.823 38.7314C131.635 39.1799 132.708 39.1799 132.983 38.8186C133.257 38.3701 133.981 36.4018 134.156 35.9533C134.431 35.4176 134.431 34.7947 134.431 34.4334C134.605 33.9849 133.894 33.2749 132.721 33.0008C131.822 32.6395 130.836 32.8264 130.836 33.3621L130.661 34.7075Z" stroke="#48AC33" stroke-miterlimit="10"/>
<path d="M149.708 78.8456C149.708 58.4895 149.883 43.1415 150.607 38.1209C150.695 37.4981 151.506 37.4981 152.317 37.9465C153.216 38.395 153.84 39.2048 153.753 39.8277C153.578 42.0701 153.391 46.2808 153.128 52.3852C155.463 48.7973 158.246 46.9162 160.855 46.1936C164.45 45.2095 170.116 47.0906 169.48 52.1111C169.305 54.1791 168.044 56.3218 166.784 57.8541C172.451 56.6831 179.902 52.298 183.048 49.5074C184.121 48.6976 183.048 51.837 182.149 52.8212C177.568 57.4804 170.641 61.0683 163.813 60.8067H163.364C160.393 61.6164 156.711 60.7194 155.101 59.7353L154.377 59.2868C153.391 63.4103 153.203 69.4275 152.941 78.7584C153.116 84.1402 153.116 89.2479 153.753 93.7327C153.665 95.2525 150.695 94.3556 150.52 92.6613C150.158 88.899 149.983 83.6917 149.708 78.8456ZM165.523 48.7973C161.479 46.4677 155.101 54.4532 154.551 56.9572V57.2188C155.537 57.7545 159.856 57.9414 161.292 58.1158C164.437 57.2188 168.394 50.4916 165.511 48.7848L165.523 48.7973Z" fill="white" stroke="white" stroke-miterlimit="10"/>
<path d="M182.062 54.0919C182.062 51.2266 182.336 48.6229 182.686 46.3805C182.96 44.8606 185.919 46.829 185.656 48C185.744 50.3296 185.382 51.9491 185.482 54.9017C188.627 51.4882 191.685 47.9004 195.555 46.0192C196.279 45.6579 197.801 46.5549 198.525 47.5391C199.511 49.8687 199.599 51.7498 200.41 54.8892L209.122 47.8007C209.747 47.3522 211.457 48.2492 212.093 49.2333C212.992 51.0273 213.441 54.2538 215.239 55.7862C216.225 56.409 217.311 56.8575 218.571 56.8575C221.442 56.8575 231.24 52.4599 232.501 50.3047C232.776 49.8562 233.937 50.5788 232.863 52.5471C231.515 54.9639 225.674 59.3616 220.556 59.3616C218.671 59.3616 216.512 58.8259 214.54 57.5676C213.192 56.6707 212.293 55.5993 211.482 54.5155C210.857 53.6185 210.408 52.6343 210.134 51.8246C206.089 55.1383 203.843 56.9447 201.409 58.5518C200.685 58.9131 198.987 58.0161 198.438 57.0319C197.539 55.0636 197.003 52.9956 196.191 49.495C191.61 52.4599 189.089 57.2063 185.582 60.2585C184.858 60.8814 182.523 59.0875 182.261 58.0161C182.174 56.6707 182.087 55.3252 182.087 54.067L182.062 54.0919Z" fill="white" stroke="white" stroke-miterlimit="10"/>
<path d="M230.866 56.4215C230.591 55.6117 230.416 54.7148 230.416 53.8178C230.416 49.8687 233.112 45.8323 237.519 45.6579C240.302 45.6579 242.911 48.3488 241.925 50.9525C240.751 53.8178 236.895 55.973 233.749 55.973C234.024 57.6797 237.169 60.545 240.315 60.545C248.765 60.545 255.056 54.2663 258.825 50.3172C260.897 48.1619 260.535 50.23 259.275 52.734C256.753 57.9413 251.012 62.339 244.808 62.6878C239.503 62.9618 232.676 61.9652 230.878 56.409L230.866 56.4215ZM233.649 53.8178C237.419 52.1111 239.94 49.6943 238.954 48.7101C237.069 46.829 233.562 51.5754 233.649 53.8178Z" fill="white" stroke="white" stroke-miterlimit="10"/>
<path d="M258.089 56.5087L258.988 47.5391C258.988 46.9162 259.887 46.8165 260.785 47.1778C261.509 47.6263 262.308 48.436 262.221 48.9717L262.046 52.0239C265.104 49.7815 271.57 46.5549 276.612 47.0906C278.322 47.265 279.933 48.8845 279.933 50.23C279.933 51.7498 278.946 55.1633 280.107 56.87C281.006 57.5925 281.992 57.8541 283.165 57.8541C288.732 57.8541 296.558 50.7656 299.429 49.333C299.791 49.1586 300.153 51.1269 298.805 52.8336C296.646 55.6117 290.804 60.3706 284.513 60.3706C281.905 60.3706 279.034 59.2868 277.411 56.9572C276.512 55.6117 276.238 54.0919 276.238 52.4724C276.238 51.4882 276.325 50.504 276.512 49.4202C269.86 50.1428 263.032 54.4407 261.322 58.2154L261.235 60.2834C261.322 61.4545 258.177 60.6447 258.089 59.1996C258.002 58.477 257.914 57.5925 258.089 56.5087Z" fill="white" stroke="white" stroke-miterlimit="10"/>
<path d="M297.632 58.1282C297.632 52.9209 297.72 48.0872 297.807 44.5866C297.894 40.3758 298.082 35.0812 298.344 29.5998C290.879 30.2227 283.877 30.7708 276.687 32.0166C274.977 32.2907 273.093 29.9486 274.615 29.5998C280.994 28.4288 287.372 27.7187 298.431 26.8217C298.793 19.8204 299.242 12.7444 299.604 7.17571C299.517 5.74306 303.024 6.27875 303.286 8.07268C302.662 12.5575 302.113 19.5588 301.764 26.5476C302.575 26.5476 303.474 26.4604 304.372 26.3732C312.011 25.8375 322.259 25.0278 331.071 25.0278C336.189 25.0278 340.87 25.3018 344.102 26.0119C344.914 26.3732 345.812 27.2702 346.174 27.8059C346.262 28.5284 345.812 28.8772 345.101 28.79C341.057 27.9803 336.027 27.7187 330.634 27.7187C321.023 27.7187 310.501 28.6156 303.673 29.1513C302.949 29.2385 302.325 29.3257 301.601 29.3257L300.977 44.3997C300.89 50.1428 300.615 58.5767 300.615 66.7366C300.615 75.8931 300.977 84.6759 302.138 88.8991C302.413 90.9671 299.617 89.0735 298.993 87.1923C298.007 84.053 297.645 70.15 297.645 58.1282H297.632Z" fill="white" stroke="white" stroke-miterlimit="10"/>
</g>
<defs>
<clipPath id="clip0_1_47">
<rect width="346.811" height="96" fill="white"/>
</clipPath>
</defs>
</svg>
