<svg width="219" height="96" viewBox="0 0 219 96" fill="none" xmlns="http://www.w3.org/2000/svg">
<g clip-path="url(#clip0_0_6)">
<path d="M51.0438 58.6354C54.4997 57.5506 57.9557 56.658 61.4116 55.8615C70.6 53.788 73.8503 53.582 74.7417 54.2823C75.2354 54.7767 75.1394 54.8728 74.44 55.0788L62.2893 58.4431L53.5946 61.011C55.4734 63.1806 56.5568 65.8584 56.5568 69.2227C56.5568 80.991 41.1559 89.5872 26.9344 91.9628C25.5493 92.155 24.0682 92.361 22.4911 92.361C16.9643 92.361 11.2318 90.5759 11.2318 84.6437C11.4238 81.5815 13.5084 78.4094 16.8546 75.4433C23.9585 69.0167 35.3275 63.675 47.3684 59.7202C41.5399 56.0538 32.2555 54.7767 25.3436 53.788C15.7712 52.4972 4.21022 49.7371 1.64569 41.4293C0.959989 39.3557 0.658279 37.2822 0.658279 35.3048C0.658279 24.8273 8.95529 15.4347 18.1437 9.20039C25.6727 4.24316 34.8475 0.686584 43.1445 0.686584C48.0815 0.686584 52.7169 1.97739 56.3786 4.94349C58.8471 7.41524 59.8345 10.0792 59.8345 13.0453C59.8345 16.8079 58.1614 21.0511 55.8848 25.5963C54.2117 28.8645 51.6335 29.7571 52.6209 27.1755C54.8974 22.5341 56.5705 17.5906 56.5705 13.4298C56.5705 10.656 55.8848 8.29408 54.102 6.60505C51.8255 4.8199 48.8632 4.03718 45.517 4.03718C37.124 4.03718 26.6602 8.78843 21.0237 12.6334C10.9575 19.568 4.04566 27.7797 4.04566 36.5819C4.04566 38.0649 4.23765 39.4519 4.63536 40.9349C6.30848 47.2653 16.2923 49.9293 24.9733 51.124C31.6932 52.1127 43.9399 53.2937 51.0438 58.6354ZM50.3581 62.0958C35.3549 67.1355 25.6727 72.3811 19.7483 77.6129C15.7986 81.0734 14.1255 83.8472 14.1255 85.9207C14.1255 88.4886 16.8957 89.8755 21.0374 89.8755C22.6145 89.8755 24.3973 89.6833 26.3722 89.2851C37.4257 87.1154 52.3466 79.7963 52.9363 68.7146C52.9363 66.0506 51.9489 63.8672 50.3718 62.0958H50.3581Z" fill="white" stroke="white" stroke-miterlimit="10"/>
<path d="M77.5111 60.4068C77.5111 54.6669 77.6071 49.3251 77.7031 45.4802C77.7991 40.8388 78.0048 35.0027 78.2928 28.9744C70.0918 29.661 62.3982 30.2652 54.4989 31.6384C52.6201 31.9405 50.5493 29.3589 52.2224 28.9744C59.2303 27.6836 66.2519 26.9009 78.3888 25.9122C78.7865 18.1948 79.2802 10.3951 79.6779 4.25691C79.5819 2.67774 83.4356 3.26821 83.7236 5.24561C83.0379 10.1891 82.4345 17.9065 82.0505 25.6101C82.9419 25.6101 83.9293 25.514 84.9167 25.4178C93.3097 24.8274 104.569 23.9348 114.251 23.9348C119.874 23.9348 125.017 24.2369 128.569 25.0196C129.46 25.4178 130.447 26.4065 130.845 26.997C130.941 27.7935 130.447 28.1917 129.666 28.0818C125.222 27.1893 119.696 26.9009 113.771 26.9009C103.198 26.9009 91.6503 27.8896 84.1487 28.4801C83.3533 28.5762 82.6676 28.6723 81.8722 28.6723L81.1865 45.2879C81.0905 51.6184 80.7888 60.9149 80.7888 69.9093C80.7888 79.9886 81.1865 89.6833 82.4619 94.3384C82.7636 96.6179 79.6917 94.5307 79.006 92.4572C77.9225 88.9967 77.5248 73.6719 77.5248 60.4205L77.5111 60.4068Z" fill="white" stroke="white" stroke-miterlimit="10"/>
<path d="M91.7206 58.1273C91.3229 56.9464 91.1309 55.6556 91.1309 54.3647C91.1309 52.7856 91.4326 51.0965 92.2143 49.7234C92.708 48.7347 93.2977 47.8421 94.1891 47.5537C94.9845 47.3615 96.0679 47.8421 96.8496 48.7347C97.6451 49.5311 97.4393 50.1216 96.9456 50.4099C95.5605 51.3025 94.6691 54.1725 94.6691 56.7404C94.6691 58.5255 95.0668 60.1047 96.1502 60.7913C100.196 63.5651 106.82 53.0739 107.601 49.5174C107.903 48.1305 111.359 49.9156 111.153 51.3987C111.057 52.0852 110.961 53.6782 110.961 55.4496C111.359 57.8252 112.045 60.2008 114.815 60.4892C121.631 60.2008 127.555 54.9552 130.819 51.687C131.711 50.5061 131.615 53.4722 130.422 55.3397C128.447 58.4019 123.414 63.7437 116.598 63.3454C112.744 63.3454 109.686 60.9698 108.301 57.7153C106.326 60.5853 103.46 64.0458 99.4142 64.0458C96.1502 64.0458 92.7903 61.4779 91.7069 58.1136L91.7206 58.1273Z" fill="white" stroke="white" stroke-miterlimit="10"/>
<path d="M154.133 83.8472C152.748 82.2681 151.966 79.9886 151.569 77.8189C151.075 75.4433 150.677 72.3811 150.581 69.0167C150.389 66.2429 150.28 63.1807 150.28 60.0223C150.28 57.4544 150.376 54.6806 150.376 52.0166V48.46C148.305 53.994 144.259 62.9884 137.347 63.4828C135.468 63.4828 133.59 63.1944 131.327 61.5054C128.954 59.6241 127.967 57.4544 127.967 55.3809C127.967 53.4996 128.762 51.6184 130.038 50.3413C132.012 48.46 134.879 47.0731 139.116 47.0731C141.091 47.0731 143.066 47.2653 145.727 47.9657L146.522 48.2678C148.593 42.8299 149.882 37.7903 151.061 32.5447L151.253 28.9881C151.939 20.5842 153.818 6.44029 153.914 6.24804C154.216 4.76499 157.466 6.55014 157.671 8.03319C157.575 12.4823 156.492 24.1545 155.998 28.7959C155.806 30.7733 155.011 33.5471 154.915 35.2224C154.517 40.1659 154.325 44.0246 154.229 47.7872C154.037 52.4286 153.928 57.0837 153.928 61.5328C153.928 64.801 153.928 67.8633 154.229 70.7332C154.325 74.0014 154.627 76.9675 155.121 79.2333C155.71 81.3068 156.012 82.5015 156.3 82.9958L156.492 83.1881H156.588C157.178 83.4902 157.973 84.1768 158.165 84.7673C158.467 85.5637 158.069 85.9482 156.986 85.756C155.902 85.4539 154.819 84.6712 154.12 83.8747L154.133 83.8472ZM145.343 50.7258L145.439 50.5335C143.957 50.3413 142.572 50.2314 141.393 50.2314C137.142 50.2314 134.769 51.3163 133.288 52.8954C131.999 54.2824 131.505 55.7654 131.505 57.0425C131.505 58.3196 131.999 59.4181 132.684 59.9125C133.37 60.5029 134.166 60.805 135.249 60.805C140.09 60.3107 143.244 54.8728 145.315 50.7258H145.343Z" fill="white" stroke="white" stroke-miterlimit="10"/>
<path d="M162.621 53.788C162.621 50.7258 163.211 47.6636 164.294 45.9746C164.39 45.4802 165.378 45.3841 166.571 45.6724C167.654 46.0707 168.244 46.8671 168.148 47.3477C167.352 48.1442 165.378 59.3083 166.859 60.5991C167.654 61.1895 168.642 61.4916 169.725 61.4916C175.841 61.4916 186.319 53.582 189.281 50.616C189.679 50.2177 190.666 50.8082 189.473 52.9916C187.594 56.452 178.612 64.2655 171.796 64.5539C169.327 64.65 166.667 64.0595 164.788 61.986C163.307 60.4068 162.621 57.0425 162.621 53.7743V53.788Z" fill="white" stroke="white" stroke-miterlimit="10"/>
<path d="M166.667 34.6045C166.475 35.0988 165.775 37.0762 165.583 37.3783L165.556 37.3646C165.062 37.7491 165.666 38.6417 166.845 39.0399C167.736 39.5343 168.916 39.5343 169.218 39.136C169.519 38.6554 170.315 36.472 170.507 35.9777C170.808 35.3872 170.808 34.7006 170.808 34.3024C171 33.808 170.219 33.0116 168.93 32.7232C167.942 32.325 166.859 32.531 166.859 33.1214L166.667 34.6045Z" fill="#48AC33" stroke="#48AC33" stroke-miterlimit="10"/>
<path d="M201.625 53.6781C202.023 54.9689 202.119 56.452 201.817 57.935C200.925 62.8785 196.88 65.3503 192.34 65.0482C188.693 64.8559 186.224 61.78 185.73 59.0199C185.045 54.8728 187.609 50.1216 189.872 49.3251C190.064 49.3251 190.174 49.229 190.366 49.229C190.763 47.8421 191.449 46.7572 193.424 46.8534C196.084 47.2516 198.265 48.5287 199.746 50.3138C202.215 50.6159 204.779 50.712 207.056 50.712C211.691 50.712 215.545 50.3138 216.436 50.3138C219.302 50.2177 218.603 51.4948 216.244 52.2912C214.077 53.0877 207.659 53.9665 201.625 53.6781ZM189.186 58.7178C189.68 61.5877 190.763 62.6726 192.642 62.5764C196.99 62.3842 199.156 56.7404 197.579 53.1838C195.303 52.7856 193.438 52.1951 192.052 51.3025L191.86 51.4948C190.571 52.4835 188.706 55.9439 189.2 58.7178H189.186Z" fill="white" stroke="white" stroke-miterlimit="10"/>
</g>
<defs>
<clipPath id="clip0_0_6">
<rect width="219" height="96" fill="white"/>
</clipPath>
</defs>
</svg>
