<?xml version="1.0" encoding="utf-8"?>
<!-- Generator: Adobe Illustrator 24.1.1, SVG Export Plug-In . SVG Version: 6.00 Build 0)  -->
<svg version="1.1" id="Layer_1" xmlns="http://www.w3.org/2000/svg" xmlns:xlink="http://www.w3.org/1999/xlink" x="0px" y="0px"
	 width="145px" height="46.8px" viewBox="0 0 145 46.8" style="enable-background:new 0 0 145 46.8;" xml:space="preserve">
<style type="text/css">
	.st0{clip-path:url(#SVGID_2_);}
	.st1{fill:#FFFFFF;}
	.st2{fill:#F6F6F6;}
</style>
<g>
	<defs>
		<rect id="SVGID_1_" width="145" height="46.8"/>
	</defs>
	<clipPath id="SVGID_2_">
		<use xlink:href="#SVGID_1_"  style="overflow:visible;"/>
	</clipPath>
	<g class="st0">
		<path class="st1" d="M120.8,5.7c-1.7,0-3.1,1.4-3.1,3.1c0,1.7,1.4,3.1,3.1,3.1c1.7,0,3.1-1.4,3.1-3.1
			C123.9,7.1,122.5,5.7,120.8,5.7L120.8,5.7z"/>
		<path class="st2" d="M44.7,27.4c-0.3,0.1-0.5,0.1-0.6,0.1H44c-1.2,0-1.7-1-1.8-1.3v0l-3-7.5c-1.3-3.4-4.3-4.1-5.9-4.1
			c-3.4,0-5.2,2.4-5.7,3.8l-3,7.7l0,0.1c0,0-0.1,0.3-0.4,0.6c-0.4,0.4-0.8,0.6-1.4,0.6c-0.6,0-1-0.2-1.4-0.6
			c-0.3-0.3-0.5-0.7-0.5-0.8l0,0l-3-7.7c-0.5-1.4-2.4-3.8-5.7-3.8c-3.4,0-5.3,2.5-5.8,4l-3,7.7c-0.5,1-1.4,1.2-1.7,1.2H0l0,4.2h1.5
			C3,31.8,5.9,31,7.2,28l0,0l3.1-7.8l0,0l0-0.1c0.1-0.3,0.6-1.2,1.8-1.2s1.7,1,1.8,1.2l3,7.5c0.5,1.5,2.3,4.2,5.9,4.2
			c3.6,0,5.3-2.5,5.8-4l3-7.7l0,0l0,0c0.1-0.2,0.6-1.1,1.8-1.1l0,0l0.1,0c0.3,0,1.3,0.1,1.8,1.4l2.9,7.3c0.5,1.6,2.3,4.1,5.8,4.1
			c0.3,0,1.3,0,2.4-0.4c0.3-0.1,0.7-0.3,1-0.5c-1-1-1.8-2.2-2.3-3.5C44.9,27.4,44.8,27.4,44.7,27.4L44.7,27.4z M13.9,20L13.9,20
			C13.9,20,13.9,20,13.9,20z"/>
		<path class="st2" d="M118.8,25.7c0,1.2-1,1.7-1.2,1.8c-0.3,0.1-0.5,0.1-0.6,0.1h-0.1c-1.3,0-1.7-1-1.8-1.3v0l-3-7.5
			c-1.3-3.4-4.3-4.1-5.9-4.1c-3.4,0-5.2,2.4-5.7,3.8l-3,7.7h0l0,0.1c-0.1,0.3-0.6,1.3-1.8,1.3c-0.5,0-0.9-0.1-1.2-0.4
			c-0.5,1.3-1.3,2.4-2.3,3.5c0.9,0.6,2.1,1.1,3.5,1.1c3.4,0,5.3-2.5,5.8-4l3-7.7l0,0c0,0,0.1-0.3,0.4-0.5c0.4-0.4,0.8-0.6,1.4-0.6
			h0.1c0,0,0.3,0,0.6,0.1c0.5,0.2,0.9,0.6,1.2,1.3l2.9,7.3c0.5,1.6,2.3,4.1,5.8,4.1c0,0,0.1,0,0.1,0c0.4,0,1.3-0.1,2.3-0.5
			c1.7-0.7,3.8-2.6,3.8-5.6V14.9h-4.3L118.8,25.7L118.8,25.7z"/>
		<path class="st2" d="M134.3,27.6c-2.4,0-4.4-1.9-4.4-4.3s2-4.3,4.4-4.3c1.2,0,2.3,0.4,3.1,1.3l3-2.9c-1.6-1.6-3.8-2.5-6.1-2.5
			c-4.8,0-8.7,3.8-8.7,8.5s3.9,8.5,8.7,8.5H145v-4.2L134.3,27.6L134.3,27.6z"/>
		<path class="st2" d="M83.7,14.7c-4.8,0-8.7,3.8-8.7,8.5c0,4.7,3.9,8.5,8.7,8.5c2.6,0,5-1.2,6.6-3c0.5-0.6,0.9-1.2,1.2-1.9
			c0.5-1.1,0.9-2.4,0.9-3.7C92.4,18.5,88.5,14.7,83.7,14.7L83.7,14.7z M83.7,27.6c-2.5,0-4.5-2-4.5-4.4c0-2.4,2-4.4,4.5-4.4
			c2.5,0,4.5,2,4.5,4.4C88.1,25.6,86.1,27.6,83.7,27.6z"/>
		<path class="st2" d="M71.9,0h-4.3v31.6h4.3V0z"/>
		<path class="st2" d="M55.8,14.7c-4.8,0-8.7,3.8-8.7,8.5c0,0.9,0.1,1.7,0.4,2.5c0,0.2,0.1,0.3,0.2,0.5c0.4,1,0.9,1.9,1.6,2.7
			c1.6,1.8,3.9,2.9,6.5,2.9c0.8,0,1.5-0.1,2.2-0.3c0,0,0,0,0,0V27c-0.3,0.2-0.7,0.3-1.1,0.5c-0.4,0.1-0.8,0.1-1.1,0.1
			c-1.9,0-3.6-1.2-4.2-2.9c-0.2-0.5-0.3-1-0.3-1.5c0-2.4,2-4.4,4.5-4.4c1.9,0,3.6,1.2,4.2,2.9c0.2,0.5,0.3,1,0.3,1.5v8.3h4.3v-8.3
			c0-1-0.2-2-0.5-2.9C62.8,17,59.6,14.7,55.8,14.7L55.8,14.7z"/>
		<path class="st1" d="M12.4,43.3h4.1V42h-4.1v-2.1H17v-1.3h-6.1v8.1h6.2v-1.3h-4.7V43.3z"/>
		<path class="st1" d="M24.6,45.5c-1.6,0-2.7-1.3-2.7-2.9v0c0-1.6,1.2-2.8,2.7-2.8c1,0,1.6,0.4,2.3,1l0.9-1
			c-0.8-0.7-1.7-1.3-3.2-1.3c-2.5,0-4.2,1.9-4.2,4.2v0c0,2.3,1.8,4.1,4.2,4.1c1.5,0,2.5-0.5,3.3-1.4L27,44.5
			C26.3,45.1,25.6,45.5,24.6,45.5L24.6,45.5z"/>
		<path class="st1" d="M35.4,38.5c-2.5,0-4.3,1.9-4.3,4.2v0c0,2.3,1.8,4.1,4.3,4.1c2.5,0,4.3-1.9,4.3-4.2v0
			C39.7,40.4,38,38.5,35.4,38.5L35.4,38.5z M38.2,42.7c0,1.6-1.1,2.8-2.8,2.8s-2.8-1.3-2.8-2.9v0c0-1.6,1.1-2.8,2.8-2.8
			C37,39.8,38.2,41.1,38.2,42.7L38.2,42.7z"/>
		<path class="st1" d="M69.3,42c-1.6-0.4-2-0.6-2-1.3v0c0-0.5,0.5-1,1.3-1c0.8,0,1.5,0.3,2.2,0.8l0.8-1.1c-0.8-0.7-1.8-1-3-1
			c-1.6,0-2.8,1-2.8,2.3v0c0,1.5,1,2,2.7,2.4c1.5,0.3,1.9,0.7,1.9,1.2v0c0,0.6-0.6,1-1.5,1c-1,0-1.8-0.4-2.6-1l-0.9,1
			c1,0.9,2.2,1.3,3.4,1.3c1.7,0,2.9-0.9,2.9-2.4v0C71.9,43,71,42.5,69.3,42L69.3,42z"/>
		<path class="st1" d="M50.1,41.2L50.1,41.2c0-0.7-0.2-1.3-0.7-1.8c-0.5-0.5-1.3-0.8-2.4-0.8h-3.7v8.1h1.5v-2.8h1.8l2,2.8h1.7
			l-2.2-3.1C49.3,43.3,50.1,42.5,50.1,41.2L50.1,41.2z M44.8,42.6v-2.7H47c1.1,0,1.7,0.5,1.7,1.3v0c0,0.8-0.7,1.3-1.7,1.3H44.8
			L44.8,42.6z"/>
		<path class="st1" d="M57.7,38.6h-3.1v8.1h3.1c2.6,0,4.4-1.8,4.4-4v0C62.1,40.4,60.3,38.6,57.7,38.6z M60.6,42.7
			c0,1.6-1.1,2.7-2.9,2.7h-1.6v-5.5h1.6C59.4,39.9,60.6,41.1,60.6,42.7L60.6,42.7L60.6,42.7z"/>
		<path class="st1" d="M6.8,41.2L6.8,41.2c0-0.7-0.2-1.3-0.7-1.8c-0.5-0.5-1.3-0.8-2.4-0.8H0v8.1h1.5v-2.8h1.8l2,2.8H7l-2.2-3.1
			C6,43.3,6.8,42.5,6.8,41.2L6.8,41.2z M1.5,42.6v-2.7h2.1c1.1,0,1.7,0.5,1.7,1.3v0c0,0.8-0.7,1.3-1.7,1.3H1.5L1.5,42.6z"/>
	</g>
</g>
</svg>
