<?xml version="1.0" encoding="utf-8"?>
<!-- Generator: Adobe Illustrator 24.1.1, SVG Export Plug-In . SVG Version: 6.00 Build 0)  -->
<svg version="1.1" id="Layer_1" xmlns="http://www.w3.org/2000/svg" xmlns:xlink="http://www.w3.org/1999/xlink" x="0px" y="0px"
	 width="164.8px" height="53.7px" viewBox="0 0 164.8 53.7" style="enable-background:new 0 0 164.8 53.7;" xml:space="preserve">
<style type="text/css">
	.st0{clip-path:url(#SVGID_2_);}
	.st1{fill:#48AC33;}
	.st2{fill:#F6F6F6;}
</style>
<g>
	<defs>
		<rect id="SVGID_1_" width="164.8" height="53.7"/>
	</defs>
	<clipPath id="SVGID_2_">
		<use xlink:href="#SVGID_1_"  style="overflow:visible;"/>
	</clipPath>
	<g class="st0">
		<path class="st1" d="M137.3,6.5c-2,0-3.6,1.6-3.6,3.5c0,1.9,1.6,3.5,3.6,3.5c2,0,3.6-1.6,3.6-3.5C140.9,8.1,139.3,6.5,137.3,6.5
			L137.3,6.5z"/>
		<path class="st2" d="M50.8,31.4c-0.3,0.1-0.5,0.1-0.7,0.1H50c-1.4,0-2-1.2-2.1-1.5v0l-3.4-8.6c-1.5-3.8-4.9-4.7-6.7-4.6
			c-3.8,0-5.9,2.8-6.5,4.4L28,30.1l0,0.1c0,0-0.2,0.4-0.5,0.7c-0.4,0.5-0.9,0.7-1.6,0.7c-0.7,0-1.1-0.2-1.6-0.7
			c-0.3-0.4-0.5-0.8-0.5-0.9l0,0l-3.4-8.8c-0.6-1.6-2.7-4.4-6.5-4.4c-3.8,0-6,2.9-6.6,4.6l-3.4,8.8c-0.5,1.2-1.6,1.3-1.9,1.3H0
			l0,4.8h1.7c1.7,0,5-0.8,6.5-4.3l0,0l3.5-8.9l0,0l0-0.1c0.1-0.4,0.7-1.4,2.1-1.4c1.4,0,1.9,1.1,2,1.3l3.4,8.6
			c0.6,1.7,2.7,4.8,6.7,4.8c4.1,0,6-2.9,6.6-4.6l3.5-8.8l0,0l0,0c0.1-0.3,0.7-1.3,2-1.3l0,0l0.1,0c0.4,0,1.4,0.2,2,1.6l3.3,8.4
			c0.6,1.8,2.7,4.7,6.6,4.7c0.4,0,1.5,0,2.7-0.5c0.4-0.2,0.8-0.4,1.2-0.6c-1.1-1.1-2-2.5-2.7-4C51.1,31.3,50.9,31.4,50.8,31.4
			L50.8,31.4z M15.8,22.9L15.8,22.9C15.8,22.9,15.8,22.9,15.8,22.9z"/>
		<path class="st2" d="M135,29.4c0,1.4-1.2,1.9-1.4,2c-0.3,0.1-0.5,0.1-0.7,0.1h-0.1c-1.4,0-2-1.2-2.1-1.5v0l-3.4-8.6
			c-1.5-3.8-4.9-4.7-6.7-4.6c-3.8,0-5.9,2.8-6.5,4.4l-3.5,8.8h0l0,0.1c-0.1,0.3-0.7,1.4-2.1,1.4c-0.6,0-1-0.1-1.4-0.4
			c-0.6,1.5-1.5,2.8-2.6,4c1,0.7,2.3,1.2,4,1.2c3.9,0,6-2.9,6.6-4.6l3.5-8.8l0,0c0,0,0.2-0.3,0.4-0.6c0.4-0.4,0.9-0.7,1.6-0.7h0.1
			c0,0,0.3,0,0.7,0.1c0.6,0.2,1,0.7,1.3,1.4l3.3,8.4c0.6,1.8,2.7,4.7,6.6,4.7c0,0,0.1,0,0.2,0c0.5,0,1.5-0.1,2.6-0.5
			c2-0.8,4.3-3,4.4-6.4V17.1H135L135,29.4L135,29.4z"/>
		<path class="st2" d="M152.6,31.6c-2.8,0-5-2.2-5-5s2.3-5,5-5c1.3,0,2.6,0.5,3.6,1.4l3.4-3.4c-1.9-1.8-4.3-2.8-7-2.8
			c-5.5,0-9.9,4.4-9.9,9.7c0,5.4,4.4,9.7,9.9,9.7h12.2v-4.8L152.6,31.6L152.6,31.6z"/>
		<path class="st2" d="M95.1,16.8c-5.5,0-9.9,4.4-9.9,9.8s4.4,9.8,9.9,9.8c3,0,5.7-1.3,7.5-3.4c0.6-0.6,1-1.4,1.4-2.1
			c0.6-1.3,1-2.7,1-4.2C105,21.2,100.6,16.8,95.1,16.8L95.1,16.8z M95.1,31.6c-2.8,0-5.1-2.2-5.1-5c0-2.7,2.3-5,5.1-5s5.1,2.2,5.1,5
			C100.2,29.3,97.9,31.6,95.1,31.6z"/>
		<path class="st2" d="M81.7,0h-4.8v36.2h4.8V0z"/>
		<path class="st2" d="M63.5,16.8c-5.5,0-9.9,4.4-9.9,9.8c0,1,0.2,1.9,0.4,2.8c0.1,0.2,0.1,0.4,0.2,0.5c0.4,1.1,1.1,2.2,1.9,3.1
			c1.8,2,4.5,3.3,7.4,3.3c0.9,0,1.7-0.1,2.5-0.3c0,0,0,0,0,0v-5.1c-0.4,0.2-0.8,0.4-1.3,0.5c-0.4,0.1-0.9,0.2-1.3,0.2
			c-2.2,0-4-1.4-4.8-3.3c-0.2-0.5-0.3-1.1-0.3-1.7c0-2.7,2.3-5,5.1-5c2.2,0,4,1.4,4.8,3.3c0.2,0.5,0.3,1.1,0.3,1.7v9.6h4.8v-9.6
			c0-1.2-0.2-2.3-0.6-3.4C71.4,19.5,67.7,16.8,63.5,16.8L63.5,16.8z"/>
		<path class="st1" d="M14,49.6h4.7v-1.5H14v-2.4h5.3v-1.5h-7v9.2h7V52H14V49.6z"/>
		<path class="st1" d="M28,52.1c-1.8,0-3.1-1.5-3.1-3.3v0c0-1.8,1.3-3.2,3.1-3.2c1.1,0,1.9,0.5,2.6,1.1l1.1-1.2
			c-0.9-0.8-1.9-1.4-3.7-1.4c-2.8,0-4.8,2.1-4.8,4.8v0c0,2.7,2,4.7,4.8,4.7c1.7,0,2.9-0.6,3.8-1.6L30.7,51
			C29.9,51.7,29.1,52.1,28,52.1L28,52.1z"/>
		<path class="st1" d="M40.3,44.1c-2.9,0-4.9,2.2-4.9,4.8v0c0,2.6,2,4.7,4.9,4.7c2.9,0,4.9-2.2,4.9-4.8v0
			C45.2,46.3,43.1,44.1,40.3,44.1L40.3,44.1z M43.4,48.9c0,1.8-1.3,3.2-3.2,3.2s-3.2-1.5-3.2-3.3v0c0-1.8,1.3-3.2,3.2-3.2
			C42.1,45.6,43.4,47.1,43.4,48.9L43.4,48.9z"/>
		<path class="st1" d="M78.8,48.1c-1.8-0.4-2.2-0.7-2.2-1.5v0c0-0.6,0.6-1.1,1.5-1.1c0.9,0,1.7,0.3,2.5,0.9l0.9-1.2
			c-1-0.8-2-1.2-3.4-1.2c-1.9,0-3.2,1.1-3.2,2.7v0c0,1.7,1.1,2.3,3.1,2.8c1.7,0.4,2.1,0.8,2.1,1.4v0c0,0.7-0.6,1.2-1.7,1.2
			c-1.2,0-2.1-0.4-3-1.2l-1,1.2c1.1,1,2.5,1.5,3.9,1.5c2,0,3.4-1,3.4-2.8v0C81.7,49.3,80.7,48.6,78.8,48.1L78.8,48.1z"/>
		<path class="st1" d="M57,47.2L57,47.2c0-0.8-0.3-1.5-0.8-2c-0.6-0.6-1.5-0.9-2.7-0.9h-4.2v9.2H51v-3.2H53l2.3,3.2h2L54.8,50
			C56.1,49.6,57,48.7,57,47.2L57,47.2z M51,48.8v-3.1h2.4c1.2,0,1.9,0.5,1.9,1.5v0c0,0.9-0.8,1.5-1.9,1.5H51L51,48.8z"/>
		<path class="st1" d="M65.6,44.3h-3.5v9.2h3.5c2.9,0,5-2,5-4.6v0C70.6,46.3,68.5,44.3,65.6,44.3z M68.8,48.9c0,1.8-1.3,3.1-3.3,3.1
			h-1.9v-6.3h1.9C67.6,45.7,68.8,47.1,68.8,48.9L68.8,48.9L68.8,48.9z"/>
		<path class="st1" d="M7.7,47.2L7.7,47.2c0-0.8-0.3-1.5-0.8-2c-0.6-0.6-1.5-0.9-2.7-0.9H0v9.2h1.6v-3.2h2.1L6,53.5h2L5.5,50
			C6.8,49.6,7.7,48.7,7.7,47.2L7.7,47.2z M1.7,48.8v-3.1h2.4c1.2,0,1.9,0.5,1.9,1.5v0c0,0.9-0.8,1.5-1.9,1.5H1.7L1.7,48.8z"/>
	</g>
</g>
</svg>
