<?xml version="1.0" encoding="utf-8"?>
<!-- Generator: Adobe Illustrator 16.0.3, SVG Export Plug-In . SVG Version: 6.00 Build 0)  -->
<!DOCTYPE svg PUBLIC "-//W3C//DTD SVG 1.1//EN" "http://www.w3.org/Graphics/SVG/1.1/DTD/svg11.dtd">
<svg version="1.1" xmlns="http://www.w3.org/2000/svg" xmlns:xlink="http://www.w3.org/1999/xlink" x="0px" y="0px" width="1440px"
	 height="536px" viewBox="0 1727 1440 536" enable-background="new 0 1727 1440 536" xml:space="preserve">
<g id="Capa_2">
	
		<image overflow="visible" width="1440" height="536" xlink:href="efecto_verde.png"  transform="matrix(0.9999 0 0 0.9999 0.0898 1727.0334)">
	</image>
</g>
<g id="Capa_1">
	<rect y="1727" fill="none" width="1440" height="536"/>
	<rect x="634" y="0" fill="none" width="172" height="75"/>
	<g>
		
			<linearGradient id="SVGID_1_" gradientUnits="userSpaceOnUse" x1="2545.1602" y1="-1645.7605" x2="2545.1602" y2="-1850.9504" gradientTransform="matrix(-1 0 0 1 3265.1602 3868.4004)">
			<stop  offset="0" style="stop-color:#0B0B0B"/>
			<stop  offset="1" style="stop-color:#101010;stop-opacity:0"/>
		</linearGradient>
		<rect y="1967" fill="url(#SVGID_1_)" width="1440" height="296"/>
		
			<linearGradient id="SVGID_2_" gradientUnits="userSpaceOnUse" x1="505.8403" y1="564.7605" x2="505.8403" y2="388.7006" gradientTransform="matrix(1 0 0 -1 214.1602 2326.4009)">
			<stop  offset="0" style="stop-color:#0B0B0B"/>
			<stop  offset="1" style="stop-color:#101010;stop-opacity:0"/>
		</linearGradient>
		<rect y="1727" fill="url(#SVGID_2_)" width="1440" height="254"/>
	</g>
	<g>
		<g>
			<path fill="#FFFFFF" d="M642.854,1973.002h-4.184l12.059-28.052h3.691l12.057,28.052h-4.43l-2.953-6.889h-13.287
				L642.854,1973.002z M647.282,1962.669h10.582l-5.166-13.044L647.282,1962.669z M683.95,1948.642h8.857v-3.691h-21.9v3.691h8.859
				v24.608h3.936v-24.608H683.95z M709.79,1944.95h-6.152v28.052h3.936v-23.622l0,0l9.105,23.622h2.705l9.105-23.622l0,0v23.622
				h3.939v-28.052h-6.398l-8.121,21.655l0,0L709.79,1944.95z M771.802,1958.978c0,1.969-0.248,3.937-0.986,5.66
				c-0.738,1.722-1.721,3.198-2.953,4.674c-1.229,1.23-2.707,2.215-4.674,2.953c-1.725,0.737-3.689,0.985-5.662,0.985
				c-1.967,0-3.936-0.248-5.658-0.985c-1.723-0.738-3.199-1.723-4.674-2.953c-1.23-1.23-2.217-2.706-2.957-4.674
				c-0.734-1.724-0.982-3.691-0.982-5.66c0-1.97,0.248-3.938,0.982-5.661c0.74-1.722,1.727-3.199,2.957-4.182
				c1.23-1.23,2.705-2.217,4.674-2.953c1.723-0.738,3.691-0.985,5.658-0.985c1.973,0,3.938,0.247,5.662,0.985
				c1.721,0.736,3.197,1.723,4.674,2.953c1.232,1.23,2.215,2.706,2.953,4.182C771.554,1954.794,771.802,1957.008,771.802,1958.978
				 M767.862,1958.978c0-1.23-0.246-2.953-0.736-4.184c-0.246-1.229-1.23-2.216-1.971-3.199c-0.984-0.985-1.967-1.722-3.197-2.215
				c-1.23-0.738-2.707-0.985-4.186-0.985c-1.721,0-2.951,0.247-4.182,0.985c-1.23,0.737-2.217,1.229-3.201,2.215
				c-0.982,0.983-1.721,1.97-1.965,3.199c-0.248,1.23-0.74,2.706-0.74,4.184c0,1.722,0.244,2.951,0.74,4.182
				c0.244,1.23,1.23,2.216,1.965,3.2c0.984,0.984,1.971,1.722,3.201,2.214c1.23,0.738,2.707,0.985,4.182,0.985
				c1.479,0,2.955-0.247,4.186-0.985c1.23-0.737,2.213-1.229,3.197-2.214c0.986-0.984,1.725-1.97,1.971-3.2
				C767.616,1961.929,767.862,1960.699,767.862,1958.978 M798.376,1948.15c-0.982-0.985-1.967-1.724-3.195-2.216
				c-1.232-0.737-2.957-0.983-4.188-0.983c-0.982,0-2.213,0-3.195,0.246c-0.986,0.247-1.971,0.737-2.957,1.229
				c-0.982,0.738-1.721,1.23-1.965,2.216c-0.74,0.983-0.74,1.968-0.74,3.199c0,1.229,0.246,2.216,0.74,2.953
				c0.244,0.982,0.982,1.724,1.721,1.968c0.74,0.738,1.23,0.985,2.215,1.231c0.986,0.244,1.721,0.736,2.707,0.984
				c0.984,0.245,1.723,0.737,2.215,0.737c0.738,0.246,1.23,0.738,1.969,0.984c0.736,0.247,0.982,0.985,1.23,1.229
				c0.248,0.738,0.738,1.23,0.738,1.968c0,0.741-0.246,1.724-0.738,1.971c-0.248,0.738-0.738,0.983-1.23,1.23
				c-0.738,0.246-0.982,0.738-1.723,0.983c-0.738,0.248-1.232,0.248-1.969,0.248c-1.23,0-2.213-0.248-3.199-0.985
				c-0.984-0.738-1.971-1.23-2.705-2.216l-2.957,2.216c0.986,1.229,2.217,2.215,3.939,2.953c1.723,0.737,3.199,0.982,4.922,0.982
				c1.23,0,2.213,0,3.691-0.245c0.982-0.245,1.969-0.985,2.953-1.723c0.984-0.738,1.721-1.724,1.969-2.706
				c0.738-0.985,0.738-2.216,0.738-3.691c0-1.229-0.246-2.215-0.738-3.199c-0.494-0.985-0.984-1.722-1.969-2.215
				c-0.74-0.738-1.723-0.985-2.707-1.23s-1.969-0.737-2.707-0.985c-0.738-0.245-1.23-0.737-1.969-0.737
				c-0.74-0.245-1.23-0.738-1.723-0.982c-0.248-0.248-0.982-0.738-1.23-1.231c-0.248-0.248-0.248-0.985-0.248-1.968
				c0-0.74,0-1.23,0.248-1.971c0.248-0.738,0.738-0.982,1.23-1.23c0.738-0.246,0.982-0.738,1.723-0.738
				c0.738-0.244,1.23-0.244,1.969-0.244c0.982,0,2.213,0.244,2.953,0.736c0.986,0.246,1.721,0.986,2.215,1.724L798.376,1948.15z
				 M555.247,1917.142h9.105c16.98,0,30.762-13.779,30.762-30.76c0-16.979-13.781-30.761-30.762-30.761h-9.105V1917.142z
				 M645.315,1855.621h-9.105c-16.98,0-30.76,13.782-30.76,30.761c0,16.98,13.779,30.76,30.76,30.76h9.105V1855.621z
				 M688.38,1855.621h-22.148v61.521h22.148c16.977,0,30.76-13.779,30.76-30.76C719.14,1869.404,705.356,1855.621,688.38,1855.621
				 M688.38,1907.791h-6.152h-6.645v-42.819h6.645h6.152c11.811,0,21.162,9.599,21.162,21.164
				C710.034,1898.194,700.19,1907.791,688.38,1907.791 M747.685,1874.571c-11.813,0-21.162,9.598-21.162,21.162
				c0,11.566,9.598,21.164,21.162,21.164c11.814,0,21.162-9.598,21.162-21.164C768.847,1884.168,759.499,1874.571,747.685,1874.571
				 M747.685,1908.777c-7.137,0-12.795-5.906-12.795-12.797c0-7.138,5.904-12.797,12.795-12.797c7.137,0,12.797,5.907,12.797,12.797
				C760.728,1902.87,754.821,1908.777,747.685,1908.777 M777.706,1917.142h9.105v-61.521h-9.105V1917.142z M818.558,1874.571
				c-4.678,0-8.861,1.23-12.059,3.936v-22.885h-9.6v61.521h9.6v-3.937c3.689,2.214,7.627,3.937,12.059,3.937
				c11.809,0,21.162-9.597,21.162-21.162C839.72,1884.413,830.366,1874.571,818.558,1874.571 M818.558,1908.777
				c-5.662,0-10.584-3.691-12.059-8.861c-0.246-1.229-0.74-2.705-0.74-3.936c0-1.229,0.248-2.953,0.74-3.938
				c1.721-5.167,6.643-8.858,12.059-8.858c7.135,0,12.795,5.907,12.795,12.797C831.597,1902.87,825.692,1908.777,818.558,1908.777
				 M874.171,1874.571l-12.059,27.068l-12.061-27.068h-10.088l17.227,38.635l-0.244,0.738v0.244l-3.693,8.614l0,0
				c-0.984,2.707-3.936,3.69-6.645,2.707l-1.229-0.737l-2.709,5.904l-1.23,2.709l0,0l0,0l3.201,1.23
				c6.152,2.705,13.041,0,15.994-6.152c0,0,21.9-49.464,24.117-53.893h-10.83H874.171L874.171,1874.571z"/>
		</g>
		<path fill="#FFFFFF" d="M280.39,2055.61h9.855v-35.711h13.633v-9.09h-37.121v9.09h13.633V2055.61z M310.435,2055.61h9.727v-19.141
			c0-4.6,2.369-6.97,6.08-6.97c3.713,0,5.889,2.37,5.889,6.97v19.141h9.729v-22.211c0-7.869-4.289-12.729-11.648-12.729
			c-4.928,0-7.809,2.62-10.049,5.5v-17.28h-9.727V2055.61z M366.565,2056.379c6.207,0,10.814-2.43,14.016-6.4l-5.568-4.93
			c-2.688,2.5-5.057,3.52-8.32,3.52c-4.352,0-7.424-2.3-8.383-6.72h23.871c0.064-0.899,0.129-1.79,0.129-2.56
			c0-9.73-5.248-18.62-16.705-18.62c-9.984,0-16.959,8.06-16.959,17.85v0.13C348.646,2049.149,356.261,2056.379,366.565,2056.379z
			 M358.181,2035.769c0.768-4.42,3.393-7.3,7.424-7.3c4.096,0,6.656,2.95,7.232,7.3H358.181z M424.106,2065.979
			c6.656,0,11.584-1.41,14.783-4.609c2.881-2.881,4.352-7.36,4.352-13.5v-26.561h-9.727v4.48c-2.625-2.88-5.762-5.12-11.072-5.12
			c-7.873,0-15.232,5.76-15.232,16v0.12c0,10.18,7.232,16,15.232,16c5.184,0,8.32-2.11,11.199-5.561v1.66
			c0,6.141-3.137,9.34-9.791,9.34c-4.545,0-8.064-1.149-11.586-3.13l-3.326,7.29C413.29,2064.699,418.538,2065.979,424.106,2065.979
			z M425.257,2044.729c-4.734,0-8.318-3.199-8.318-7.939v-0.12c0-4.681,3.584-7.94,8.318-7.94c4.736,0,8.385,3.26,8.385,7.94v0.12
			C433.642,2041.469,429.993,2044.729,425.257,2044.729z M451.935,2055.61h9.727v-12.67c0-8.19,3.969-12.101,10.432-12.101h0.514
			v-10.17c-5.76-0.26-8.961,2.81-10.945,7.55v-6.91h-9.727V2055.61z M494.001,2056.379c6.209,0,10.816-2.43,14.018-6.4l-5.568-4.93
			c-2.688,2.5-5.057,3.52-8.32,3.52c-4.352,0-7.424-2.3-8.385-6.72h23.873c0.064-0.899,0.127-1.79,0.127-2.56
			c0-9.73-5.248-18.62-16.703-18.62c-9.984,0-16.961,8.06-16.961,17.85v0.13C476.081,2049.149,483.698,2056.379,494.001,2056.379z
			 M485.618,2035.769c0.768-4.42,3.391-7.3,7.424-7.3c4.096,0,6.656,2.95,7.232,7.3H485.618z M526.724,2056.249
			c4.736,0,8-1.73,10.367-4.351v3.711h9.408v-19.9c0-4.61-1.15-8.391-3.711-10.95c-2.432-2.43-6.271-3.84-11.584-3.84
			c-5.824,0-9.537,1.09-13.313,2.75l2.432,7.43c3.137-1.149,5.76-1.86,9.473-1.86c4.863,0,7.359,2.24,7.359,6.271v0.58
			c-2.432-0.83-4.928-1.41-8.383-1.41c-8.129,0-13.824,3.46-13.824,10.95v0.12C514.948,2052.539,520.259,2056.249,526.724,2056.249z
			 M529.667,2049.53c-3.135,0-5.311-1.541-5.311-4.16v-0.131c0-3.069,2.559-4.729,6.719-4.729c2.369,0,4.545,0.51,6.209,1.28v1.72
			C537.284,2047.03,534.212,2049.53,529.667,2049.53z M566.144,2056.19c3.264,0,5.631-0.771,7.68-1.99v-7.811
			c-1.408,0.771-3.008,1.221-4.801,1.221c-2.176,0-3.135-1.091-3.135-3.33v-14.65h8.063v-8.32h-8.063v-8.77h-9.729v8.77h-4.096v8.32
			h4.096v16.25C556.159,2053.819,560.19,2056.19,566.144,2056.19z M600.757,2055.61h9.729v-46.721h-9.729V2055.61z
			 M635.876,2056.379c6.209,0,10.816-2.43,14.018-6.4l-5.568-4.93c-2.688,2.5-5.057,3.52-8.32,3.52c-4.352,0-7.424-2.3-8.385-6.72
			h23.873c0.064-0.899,0.127-1.79,0.127-2.56c0-9.73-5.248-18.62-16.703-18.62c-9.984,0-16.961,8.06-16.961,17.85v0.13
			C617.956,2049.149,625.573,2056.379,635.876,2056.379z M627.493,2035.769c0.768-4.42,3.391-7.3,7.424-7.3
			c4.096,0,6.656,2.95,7.232,7.3H627.493z M668.599,2056.249c4.736,0,8-1.73,10.367-4.351v3.711h9.408v-19.9
			c0-4.61-1.15-8.391-3.711-10.95c-2.432-2.43-6.271-3.84-11.584-3.84c-5.824,0-9.537,1.09-13.313,2.75l2.432,7.43
			c3.137-1.149,5.76-1.86,9.473-1.86c4.863,0,7.359,2.24,7.359,6.271v0.58c-2.432-0.83-4.928-1.41-8.383-1.41
			c-8.129,0-13.824,3.46-13.824,10.95v0.12C656.823,2052.539,662.134,2056.249,668.599,2056.249z M671.542,2049.53
			c-3.135,0-5.311-1.541-5.311-4.16v-0.131c0-3.069,2.559-4.729,6.719-4.729c2.369,0,4.545,0.51,6.209,1.28v1.72
			C679.159,2047.03,676.087,2049.53,671.542,2049.53z M696.745,2065.849h9.729v-14.72c2.305,2.75,5.504,5.12,10.688,5.12
			c8.129,0,15.617-6.271,15.617-17.73v-0.13c0-11.45-7.617-17.72-15.617-17.72c-5.055,0-8.32,2.36-10.688,5.56v-4.92h-9.729
			V2065.849z M714.665,2047.989c-4.543,0-8.318-3.77-8.318-9.47v-0.13c0-5.689,3.775-9.47,8.318-9.47c4.545,0,8.385,3.78,8.385,9.47
			v0.13C723.05,2044.28,719.21,2047.989,714.665,2047.989z M770.704,2056.19c3.266,0,5.633-0.771,7.68-1.99v-7.811
			c-1.406,0.771-3.008,1.221-4.799,1.221c-2.176,0-3.137-1.091-3.137-3.33v-14.65h8.064v-8.32h-8.064v-8.77h-9.727v8.77h-4.098v8.32
			h4.098v16.25C760.722,2053.819,764.753,2056.19,770.704,2056.19z M801.577,2056.379c10.689,0,18.625-8,18.625-17.86v-0.13
			c0-9.85-7.873-17.72-18.496-17.72c-10.688,0-18.625,8-18.625,17.85v0.13C783.081,2048.509,790.954,2056.379,801.577,2056.379z
			 M801.706,2047.989c-5.377,0-9.023-4.409-9.023-9.47v-0.13c0-5.05,3.326-9.34,8.895-9.34c5.377,0,9.025,4.42,9.025,9.47v0.13
			C810.603,2043.709,807.274,2047.989,801.706,2047.989z M846.626,2017.53h10.24v-8.641h-10.24V2017.53z M846.882,2055.61h9.729
			v-34.301h-9.729V2055.61z M865.745,2055.61h9.729v-19.141c0-4.6,2.24-6.97,5.889-6.97c3.646,0,5.695,2.37,5.695,6.97v19.141h9.729
			v-19.141c0-4.6,2.24-6.97,5.887-6.97c3.648,0,5.697,2.37,5.697,6.97v19.141h9.729v-22.341c0-8.25-4.354-12.6-11.584-12.6
			c-4.674,0-8.258,1.92-11.266,5.44c-1.791-3.461-5.184-5.44-9.664-5.44c-4.928,0-7.871,2.62-10.111,5.5v-4.86h-9.729V2055.61z
			 M926.56,2055.61h9.727v-19.141c0-4.6,2.24-6.97,5.889-6.97s5.695,2.37,5.695,6.97v19.141h9.729v-19.141
			c0-4.6,2.24-6.97,5.889-6.97c3.646,0,5.695,2.37,5.695,6.97v19.141h9.729v-22.341c0-8.25-4.352-12.6-11.584-12.6
			c-4.672,0-8.256,1.92-11.264,5.44c-1.793-3.461-5.186-5.44-9.664-5.44c-4.93,0-7.873,2.62-10.113,5.5v-4.86h-9.727V2055.61z
			 M1003.622,2056.379c6.211,0,10.82-2.43,14.021-6.4l-5.57-4.93c-2.691,2.5-5.051,3.52-8.32,3.52c-4.35,0-7.422-2.3-8.383-6.72
			h23.873c0.059-0.899,0.129-1.79,0.129-2.56c0-9.73-5.25-18.62-16.709-18.62c-9.98,0-16.957,8.06-16.957,17.85v0.13
			C985.706,2049.149,993.323,2056.379,1003.622,2056.379z M995.243,2035.769c0.768-4.42,3.391-7.3,7.42-7.3
			c4.1,0,6.66,2.95,7.24,7.3H995.243z M1026.622,2055.61h9.73v-12.67c0-8.19,3.961-12.101,10.43-12.101h0.51v-10.17
			c-5.76-0.26-8.959,2.81-10.939,7.55v-6.91h-9.73V2055.61z M1065.403,2056.249c7.42,0,13.119-3.46,13.119-11.07v-0.13
			c0-6.27-5.57-8.58-10.369-10.18c-3.711-1.28-6.971-2.17-6.971-4.09v-0.131c0-1.34,1.211-2.369,3.58-2.369
			c2.5,0,5.891,1.22,9.279,3.199l3.711-6.72c-3.711-2.49-8.451-3.97-12.801-3.97c-6.91,0-12.539,3.91-12.539,10.88v0.13
			c0,6.66,5.439,8.9,10.24,10.311c3.77,1.149,7.1,1.85,7.1,3.959v0.131c0,1.539-1.279,2.56-4.09,2.56
			c-3.201,0-7.111-1.41-10.82-4.09l-4.16,6.399C1055.224,2054.649,1060.603,2056.249,1065.403,2056.249z M1085.692,2017.53h10.24
			v-8.641h-10.24V2017.53z M1085.942,2055.61h9.73v-34.301h-9.73V2055.61z M1115.243,2055.869h8.83l13.5-34.561h-10.111
			l-7.738,22.971l-7.682-22.971h-10.309L1115.243,2055.869z M1157.503,2056.379c6.209,0,10.82-2.43,14.02-6.4l-5.57-4.93
			c-2.689,2.5-5.059,3.52-8.32,3.52c-4.35,0-7.43-2.3-8.389-6.72h23.879c0.061-0.899,0.121-1.79,0.121-2.56
			c0-9.73-5.24-18.62-16.701-18.62c-9.979,0-16.959,8.06-16.959,17.85v0.13C1139.583,2049.149,1147.202,2056.379,1157.503,2056.379z
			 M1149.122,2035.769c0.76-4.42,3.391-7.3,7.42-7.3c4.102,0,6.66,2.95,7.23,7.3H1149.122z M630.37,2133.61h9.729v-19.141
			c0-4.6,2.24-6.97,5.889-6.97c3.646,0,5.695,2.37,5.695,6.97v19.141h9.729v-19.141c0-4.6,2.24-6.97,5.887-6.97
			c3.648,0,5.697,2.37,5.697,6.97v19.141h9.729v-22.341c0-8.25-4.354-12.6-11.584-12.6c-4.674,0-8.258,1.92-11.266,5.44
			c-1.791-3.461-5.184-5.44-9.664-5.44c-4.928,0-7.871,2.62-10.111,5.5v-4.86h-9.729V2133.61z M702.575,2134.249
			c4.928,0,7.809-2.62,10.049-5.5v4.86h9.729v-34.301h-9.729v19.131c0,4.609-2.369,6.979-6.08,6.979
			c-3.713,0-5.889-2.37-5.889-6.979v-19.131h-9.727v22.2C690.929,2129.389,695.216,2134.249,702.575,2134.249z M743.091,2134.249
			c7.424,0,13.119-3.46,13.119-11.07v-0.13c0-6.27-5.566-8.58-10.367-10.18c-3.713-1.28-6.977-2.17-6.977-4.09v-0.131
			c0-1.34,1.217-2.369,3.584-2.369c2.496,0,5.889,1.22,9.281,3.199l3.711-6.72c-3.711-2.49-8.447-3.97-12.799-3.97
			c-6.912,0-12.545,3.91-12.545,10.88v0.13c0,6.66,5.439,8.9,10.24,10.311c3.775,1.149,7.104,1.85,7.104,3.959v0.131
			c0,1.539-1.279,2.56-4.096,2.56c-3.199,0-7.104-1.41-10.816-4.09l-4.16,6.399C732.915,2132.649,738.29,2134.249,743.091,2134.249z
			 M763.376,2095.53h10.24v-8.641h-10.24V2095.53z M763.632,2133.61h9.729v-34.301h-9.729V2133.61z M798.688,2134.379
			c6.848,0,10.688-2.63,14.016-6.27l-5.697-5.761c-2.367,2.24-4.607,3.64-7.871,3.64c-5.313,0-8.703-4.22-8.703-9.47v-0.13
			c0-5.05,3.455-9.34,8.318-9.34c3.457,0,5.633,1.47,7.809,3.78l5.951-6.4c-3.199-3.59-7.23-5.76-13.695-5.76
			c-10.496,0-17.984,8.06-17.984,17.85v0.13C780.831,2126.44,788.384,2134.379,798.688,2134.379z"/>
	</g>
</g>
</svg>
