<?xml version="1.0" encoding="utf-8"?>
<!-- Generator: Adobe Illustrator 16.0.3, SVG Export Plug-In . SVG Version: 6.00 Build 0)  -->
<!DOCTYPE svg PUBLIC "-//W3C//DTD SVG 1.1//EN" "http://www.w3.org/Graphics/SVG/1.1/DTD/svg11.dtd">
<svg version="1.1" id="Layer_1" xmlns="http://www.w3.org/2000/svg" xmlns:xlink="http://www.w3.org/1999/xlink" x="0px" y="0px"
	 width="35.438px" height="35.438px" viewBox="-12.188 -6.644 35.438 35.438" enable-background="new -12.188 -6.644 35.438 35.438"
	 xml:space="preserve">
<ellipse fill="#FFFFFF" cx="5.531" cy="11.075" rx="17.719" ry="17.719"/>
<path d="M5.531,4.523c0.631,0,1.143,0.513,1.143,1.145v10.961c0,0.632-0.512,1.144-1.143,1.144s-1.144-0.512-1.144-1.144V5.668
	C4.388,5.036,4.901,4.523,5.531,4.523z"/>
<path d="M5.38,4.523c0.293,0,0.585,0.112,0.808,0.337l5.407,5.404c0.448,0.445,0.448,1.17,0.001,1.617
	c-0.447,0.446-1.171,0.445-1.617,0L5.38,7.285l-4.598,4.597c-0.445,0.445-1.169,0.445-1.614,0c-0.448-0.447-0.448-1.172,0-1.617
	L4.573,4.86C4.795,4.635,5.087,4.523,5.38,4.523z"/>
</svg>
