<svg width="220" height="80" viewBox="0 0 220 80" fill="none" xmlns="http://www.w3.org/2000/svg">
<g clip-path="url(#clip0_569_1201)">
<path d="M43.8988 50.4207C46.871 49.4879 49.8432 48.7203 52.8154 48.0355C60.7176 46.2524 63.5128 46.0753 64.2795 46.6775C64.7041 47.1026 64.6215 47.1853 64.02 47.3624L53.5702 50.2554L46.0926 52.4635C47.7084 54.3292 48.6402 56.6318 48.6402 59.5248C48.6402 69.6443 35.3951 77.0362 23.1644 79.079C21.9732 79.2443 20.6994 79.4214 19.343 79.4214C14.5899 79.4214 9.65985 77.8864 9.65985 72.7853C9.82497 70.1521 11.6177 67.4244 14.4955 64.8738C20.605 59.3476 30.3825 54.7543 40.738 51.3536C35.7254 48.2126 27.7406 47.1026 21.7962 46.2524C13.5638 45.1425 3.62114 42.7691 1.4156 35.6251C0.825882 33.8421 0.566406 32.0591 0.566406 30.3587C0.566406 21.3491 7.70199 13.2724 15.6042 7.91149C22.0793 3.64876 29.9697 0.590454 37.1053 0.590454C41.3513 0.590454 45.3378 1.70042 48.4868 4.25097C50.6098 6.37643 51.459 8.66721 51.459 11.2178C51.459 14.4532 50.0201 18.1019 48.0622 22.0222C46.6233 24.8325 44.406 25.5882 45.2552 23.3801C47.2131 19.389 48.652 15.1381 48.652 11.5602C48.652 9.17496 48.0623 7.14396 46.529 5.69156C44.5711 4.15651 42.0235 3.48344 39.1457 3.48344C31.9276 3.48344 22.9285 7.56905 18.081 10.8753C9.42396 16.8266 3.47961 23.8879 3.47961 31.4569C3.47961 32.7322 3.64473 33.9248 3.98677 35.2C5.42568 40.6436 14.012 42.9344 21.4778 43.9617C27.257 44.8119 37.7894 45.8274 43.8988 50.4207ZM43.3091 53.3964C30.4061 57.7299 22.0793 62.2406 16.9841 66.7395C13.5874 69.7152 12.1485 72.1004 12.1485 73.8834C12.1485 76.0916 14.5309 77.2842 18.0928 77.2842C19.4492 77.2842 20.9824 77.1189 22.6808 76.7764C32.1871 74.9107 45.0193 68.617 45.5265 59.0879C45.5265 56.7971 44.6773 54.9196 43.3209 53.3964H43.3091Z" fill="white" stroke="white" stroke-miterlimit="10"/>
<path d="M60.116 50.3262C59.8565 49.5587 59.6914 48.7085 59.6914 47.8583C59.6914 44.1152 62.239 40.2893 66.4024 40.124C69.0325 40.124 71.4976 42.6746 70.5658 45.1425C69.4571 47.8583 65.8127 49.9011 62.8405 49.9011C63.1 51.5189 66.0721 54.2347 69.0443 54.2347C77.0291 54.2347 82.9735 48.2834 86.5353 44.5403C88.4932 42.4975 88.1512 44.4576 86.9599 46.831C84.5775 51.7668 79.1521 55.9351 73.2903 56.2657C68.2777 56.5255 61.8262 55.5809 60.1278 50.3144L60.116 50.3262ZM62.7461 47.8583C66.308 46.2406 68.6905 43.9499 67.7587 43.017C65.9778 41.234 62.6636 45.7329 62.7461 47.8583Z" fill="white" stroke="white" stroke-miterlimit="10"/>
<path d="M86.8658 40.8088C86.8658 40.2184 87.715 40.2184 88.5642 40.6435C89.3308 41.0686 89.838 41.9188 89.838 42.4265L89.7554 45.7446C91.8784 43.0287 98.1648 38.0929 102.835 38.8605C104.793 39.2029 105.973 40.9859 105.383 41.6708C104.192 43.0287 103.001 42.521 103.095 41.8361L103.177 41.1512C98.9315 41.0686 91.8784 46.2523 89.838 52.121C89.5785 52.8059 89.5785 53.3136 89.2483 55.7815C89.3309 56.8915 86.5356 55.7815 86.1936 54.5062C85.8515 53.7387 85.6864 51.5306 86.8776 40.8206L86.8658 40.8088Z" fill="white" stroke="white" stroke-miterlimit="10"/>
<path d="M109.629 44.375C109.629 43.0997 109.712 41.9071 109.971 40.7144C110.054 40.124 110.82 39.8643 111.669 40.2893C112.177 40.6318 112.861 41.482 112.684 42.0724C112.342 44.7056 112.684 51.2591 114.382 53.3019C115.915 53.2192 118.628 46.7602 119.477 44.2923C118.97 42.5093 119.642 41.1513 120.409 40.6318C121.423 40.2067 123.299 41.6473 122.532 44.1978V44.2805C124.065 44.7882 125.846 45.048 127.627 45.048C130.34 45.048 133.147 44.6229 135.435 44.2805C137.641 43.9381 136.119 45.9809 134.244 46.6657C132.805 47.1735 129.833 47.6812 127.108 47.6812C124.985 47.6812 122.945 47.4215 121.754 46.4886C120.822 49.6296 118.616 54.1403 116.493 54.8251C115.054 55.2502 113.946 55.5927 112.672 54.3174C110.549 51.7668 109.617 47.941 109.617 44.375H109.629Z" fill="white" stroke="white" stroke-miterlimit="10"/>
<path d="M132.557 46.2524C132.557 43.6192 133.064 40.986 133.996 39.5336C134.078 39.1085 134.927 39.0258 135.953 39.2856C136.885 39.6281 137.392 40.3011 137.31 40.7262C136.626 41.4111 134.927 51.0111 136.201 52.121C136.885 52.6288 137.734 52.8886 138.666 52.8886C143.926 52.8886 152.937 46.0871 155.485 43.5365C155.827 43.1941 156.676 43.7019 155.65 45.5793C154.034 48.555 146.309 55.2738 140.447 55.5218C138.324 55.6044 136.036 55.0967 134.42 53.3137C133.146 51.9557 132.557 49.0627 132.557 46.2524Z" fill="white" stroke="white" stroke-miterlimit="10"/>
<path d="M136.036 29.7565C135.871 30.1816 135.269 31.8819 135.104 32.1417L135.081 32.1299C134.656 32.4605 135.175 33.2281 136.189 33.5705C136.956 33.9956 137.97 33.9956 138.23 33.6532C138.489 33.2281 139.173 31.3624 139.338 30.9373C139.598 30.4295 139.598 29.8391 139.598 29.4967C139.763 29.0716 139.091 28.3985 137.982 28.1388C137.133 27.7963 136.201 27.9734 136.201 28.4812L136.036 29.7565Z" fill="#48AC33" stroke="#48AC33" stroke-miterlimit="10"/>
<path d="M161.511 53.6443C168.564 53.1365 174.673 48.6258 179.769 44.1269C180.276 43.7845 180.877 45.2369 180.276 46.335C178.919 48.8856 173.305 55.6044 162.95 56.1948C158.02 56.1948 153.184 52.8767 153.444 47.3505C153.526 44.9653 154.552 42.6745 156.498 41.0568C157.69 40.124 159.211 39.3564 161.086 39.3564C162.018 39.3564 163.127 39.5218 164.224 40.124C165.332 40.7144 166.087 41.7417 166.181 42.5919C166.181 44.0325 164.401 44.6347 163.634 44.8826C162.785 45.2251 162.018 44.8826 162.62 43.7727C162.785 43.4302 163.127 42.7454 163.209 41.8125C160.072 41.1277 156.923 44.2804 156.251 47.504C155.484 51.1646 157.69 53.6207 161.511 53.6207V53.6443Z" fill="white" stroke="white" stroke-miterlimit="10"/>
<path d="M178.071 50.3262C177.812 49.5587 177.646 48.7085 177.646 47.8583C177.646 44.1152 180.194 40.2893 184.357 40.124C186.988 40.124 189.453 42.6746 188.521 45.1425C187.412 47.8583 183.768 49.9011 180.796 49.9011C181.055 51.5189 184.027 54.2347 186.999 54.2347C194.984 54.2347 200.929 48.2834 204.49 44.5403C206.448 42.4975 206.106 44.4576 204.915 46.831C202.533 51.7668 197.107 55.9351 191.245 56.2657C186.233 56.5255 179.781 55.5809 178.083 50.3144L178.071 50.3262ZM180.701 47.8583C184.263 46.2406 186.646 43.9499 185.714 43.017C183.933 41.234 180.619 45.7329 180.701 47.8583Z" fill="white" stroke="white" stroke-miterlimit="10"/>
<path d="M204.821 53.2191C205.588 53.3845 206.519 53.4789 207.628 53.4789C210.341 53.4789 213.737 53.0538 215.955 52.5461C213.832 51.4361 210.6 49.8302 208.902 48.8856C206.696 47.6103 204.314 46.7601 203.972 44.2096C203.288 39.6989 212.546 36.983 216.875 36.3926C218.231 36.2273 219.929 37.8332 219.257 38.6952C216.12 39.8051 208.383 41.2457 207.451 43.4538C206.944 44.6465 208.89 45.4966 210.588 46.5121C213.82 48.2952 216.368 49.5704 218.066 50.9284C219.929 52.5461 218.325 54.9195 216.108 55.5217C214.575 55.9468 212.369 56.2066 210.164 56.2066C207.958 56.2066 206 55.9586 204.727 55.4391C203.712 54.9313 202.946 52.8059 204.809 53.231L204.821 53.2191Z" fill="white" stroke="white" stroke-miterlimit="10"/>
</g>
<defs>
<clipPath id="clip0_569_1201">
<rect width="220" height="80" fill="white"/>
</clipPath>
</defs>
</svg>
