<svg width="392" height="96" viewBox="0 0 392 96" fill="none" xmlns="http://www.w3.org/2000/svg">
<g clip-path="url(#clip0_1_61)">
<path d="M34.5071 49.8888C31.7446 48.4257 29.4026 46.5189 28.2856 44.1924C27.8532 43.5927 28.2015 43.161 29.2344 43.245C30.0151 43.161 30.6156 43.9405 30.9639 44.4562C31.4804 45.6674 32.7776 46.7827 34.5071 47.7421V42.5614C34.5071 30.6408 35.0236 18.6363 35.8883 9.23421C24.2139 11.0451 12.5395 16.1419 5.96964 27.115C4.24009 30.6528 3.4594 34.0227 3.4594 37.2127C3.4594 47.4063 11.4105 54.9976 21.8838 54.5659C23.181 54.4819 24.7424 54.302 25.8594 53.8703C26.6401 53.6065 27.4208 54.1341 26.556 54.7338C26.1236 54.9976 23.4452 55.7651 19.9021 55.7651C14.7975 55.7651 7.87934 54.2181 3.63956 47.6462C1.64578 44.5401 0.612854 40.6546 0.612854 36.5052C0.612854 32.7875 1.47763 28.818 3.29125 25.1962C9.33264 13.5395 24.3821 7.57924 36.2367 6.28405L37.0174 1.01934C37.714 0.071932 40.9088 0.851445 40.7407 2.23058L40.1401 6.03221H40.8368C52.5953 5.51653 69.4583 9.13826 75.9441 20.795C77.7577 24.0809 78.6225 27.2709 78.6225 30.293C78.6225 42.4654 64.8702 51.8796 47.7429 52.827L47.4787 52.9109L44.3679 52.827C42.206 52.5631 39.96 52.0475 37.8821 51.3639V54.9017C37.8821 65.4431 38.2304 75.6247 38.915 82.9641L39.1793 83.3959C39.1793 83.8276 39.0111 84.0914 38.4827 84.1754C37.5338 84.0914 37.1855 82.8802 36.585 82.1007C35.3719 73.7299 34.6873 62.0612 34.5071 49.8888ZM45.569 8.4427C44.7042 8.4427 43.8394 8.4427 42.9747 8.52665L39.8639 8.79048C38.6508 19.4158 37.9662 34.5264 37.8701 49.2052C40.032 49.9847 42.5423 50.4165 44.7883 50.5004L48.0792 50.2366C63.7292 48.7735 75.7519 39.6952 75.7519 29.2497C75.7519 26.4914 74.8872 23.6372 73.0735 20.783C67.0201 11.9805 56.4627 8.43071 45.569 8.43071V8.4427Z" fill="white" stroke="white" stroke-miterlimit="10"/>
<path d="M82.1537 58.6194V46.3631C82.1537 34.4425 82.5861 23.8292 83.1866 12.7721C83.1866 11.5608 86.5616 12.6042 86.5616 13.8994C85.4326 24.9565 85.2644 36.1814 85.0963 48.006V55.6932C87.7747 52.6711 95.1252 45.7634 100.062 47.3105C101.275 47.6583 102.572 48.6896 102.92 49.8169C103.184 51.8916 102.488 54.3021 103.088 56.8085C103.953 57.2403 104.902 57.4082 105.851 57.4082C110.343 57.4082 119.687 53.7744 122.462 50.0688C123.242 49.1213 122.81 51.8796 121.513 53.7864C119.615 56.6406 113.129 59.9146 107.592 59.9146C105.695 59.9146 103.785 59.4829 101.803 58.1877C99.8094 56.7246 99.377 54.47 99.377 52.6591C99.377 51.4479 99.5452 50.4165 99.5452 49.8049C94.6208 49.5411 85.5287 58.7034 85.1924 62.6729C85.2765 63.9681 82.5981 62.8408 82.2498 61.4616C82.1657 61.2937 82.1657 60.2504 82.1657 58.6074L82.1537 58.6194Z" fill="white" stroke="white" stroke-miterlimit="10"/>
<path d="M132.394 52.0475C132.742 53.1748 132.826 54.4699 132.562 55.7651C131.781 60.0824 128.238 62.2411 124.263 61.9892C121.068 61.8213 118.906 59.135 118.474 56.7245C117.873 53.1028 120.119 48.9534 122.101 48.2578C122.269 48.2578 122.365 48.1739 122.533 48.1739C122.881 46.9626 123.482 46.0152 125.212 46.0992C127.542 46.447 129.451 47.5623 130.748 49.1213C132.91 49.3851 135.156 49.4691 137.15 49.4691C141.21 49.4691 144.585 49.1213 145.366 49.1213C147.876 49.0373 147.263 50.1526 145.197 50.8482C143.3 51.5438 137.679 52.3113 132.394 52.0594V52.0475ZM121.5 56.4487C121.933 58.9551 122.881 59.9025 124.527 59.8186C128.334 59.6507 130.232 54.7218 128.851 51.6157C126.857 51.2679 125.224 50.7523 124.01 49.9728L123.842 50.1406C122.713 51.0041 121.08 54.0262 121.512 56.4487H121.5Z" fill="white" stroke="white" stroke-miterlimit="10"/>
<path d="M144.933 57.9238C144.933 52.9109 145.017 48.2578 145.102 44.8879C145.186 40.8345 145.366 35.7377 145.618 30.461C138.436 31.0606 131.698 31.5883 124.779 32.7875C123.134 33.0513 121.32 30.7967 122.786 30.461C128.923 29.3337 135.061 28.6501 145.702 27.7866C146.05 21.0468 146.483 14.2351 146.831 8.87445C146.747 7.49531 150.122 8.01099 150.374 9.73791C149.774 14.0552 149.245 20.795 148.909 27.5228C149.69 27.5228 150.554 27.4388 151.419 27.3549C158.77 26.8392 168.631 26.0597 177.11 26.0597C182.035 26.0597 186.539 26.3235 189.649 27.0071C190.43 27.3549 191.295 28.2184 191.643 28.734C191.727 29.4296 191.295 29.7654 190.61 29.6814C186.719 28.9019 181.878 28.6501 176.69 28.6501C167.441 28.6501 157.316 29.5135 150.747 30.0292C150.05 30.1132 149.449 30.1971 148.753 30.1971L148.152 44.708C148.068 50.2366 147.804 58.3555 147.804 66.2106C147.804 75.0251 148.152 83.4798 149.269 87.5453C149.533 89.536 146.843 87.7132 146.243 85.9023C145.294 82.8802 144.945 69.4966 144.945 57.9238H144.933Z" fill="white" stroke="white" stroke-miterlimit="10"/>
<path d="M169.832 52.0475C170.18 53.1748 170.264 54.4699 170 55.7651C169.219 60.0824 165.676 62.2411 161.701 61.9892C158.506 61.8213 156.344 59.135 155.912 56.7245C155.311 53.1028 157.557 48.9534 159.539 48.2578C159.707 48.2578 159.803 48.1739 159.971 48.1739C160.319 46.9626 160.92 46.0152 162.65 46.0992C164.98 46.447 166.889 47.5623 168.186 49.1213C170.348 49.3851 172.594 49.4691 174.588 49.4691C178.648 49.4691 182.023 49.1213 182.804 49.1213C185.314 49.0373 184.701 50.1526 182.635 50.8482C180.738 51.5438 175.117 52.3113 169.832 52.0594V52.0475ZM158.938 56.4487C159.371 58.9551 160.319 59.9025 161.965 59.8186C165.772 59.6507 167.67 54.7218 166.289 51.6157C164.295 51.2679 162.662 50.7523 161.448 49.9728L161.28 50.1406C160.151 51.0041 158.518 54.0262 158.95 56.4487H158.938Z" fill="white" stroke="white" stroke-miterlimit="10"/>
<path d="M204.855 83.3119C206.152 76.668 213.07 68.5491 221.802 62.0732L223.964 60.5141L223.88 60.1664L223.712 53.0908V52.6591L223.448 52.8269C222.667 53.7744 221.634 54.8177 220.505 55.7651C219.04 56.9764 217.562 58.1037 216.097 58.7872C215.316 59.0391 214.368 59.3868 213.239 59.3868C212.458 59.3868 211.593 59.219 210.728 58.7872C210.38 58.6193 210.128 58.4394 209.948 58.2715C208.915 57.492 208.05 56.6286 207.437 55.7651C206.657 54.6378 206.308 53.5225 206.308 52.4792C206.308 51.2679 206.741 50.0567 207.606 49.1932C209.071 48.0659 210.716 47.2025 213.575 47.2025C215.821 47.2025 218.679 47.7181 221.874 48.9294L221.958 49.0133L222.127 48.9294C222.727 48.1499 223.075 47.4663 223.34 47.1185C223.856 46.2551 226.282 47.6342 226.366 48.8454C226.45 49.0133 226.883 53.0788 226.967 58.0917V58.4394L227.051 58.3555C229.381 56.9764 240.719 51.7956 242.365 52.9109C243.229 53.5105 243.061 53.7744 242.365 53.9423C238.905 54.9736 233.2 58.0917 229.561 60.2503L227.051 61.9772L226.967 63.0086L226.703 71.0436C226.006 81.9208 223.244 93.2417 215.725 94.7887C213.563 95.2205 210.536 94.357 208.11 91.9345C205.78 89.512 204.387 86.406 204.819 83.2999L204.855 83.3119ZM223.712 64.3158L221.898 65.8748C214.548 71.919 209.011 79.2584 208.062 85.0388C207.545 87.7131 208.843 89.8718 209.876 91.083C211.173 92.2943 212.818 92.9779 213.851 92.726C221.37 91.167 223.88 75.4568 223.712 64.3158ZM213.599 56.2808C214.812 55.6812 216.361 54.6378 217.755 53.4266L219.652 51.6157L220.517 50.6683L219.917 50.5004C218.271 50.0687 216.806 49.8048 215.509 49.8048C213.179 49.8048 211.449 50.5004 210.488 51.4478C209.791 52.2273 209.539 53.0068 209.539 53.8703C209.539 54.7338 209.888 55.5972 210.404 56.2928L211.005 56.7245C211.005 56.7245 211.173 56.8085 211.701 56.8085C212.302 56.8085 212.914 56.6406 213.599 56.2928V56.2808Z" fill="white" stroke="white" stroke-miterlimit="10"/>
<path d="M239.698 54.9856C239.698 53.0908 240.647 51.184 242.809 49.7209C245.139 48.1619 248.081 47.3944 251.108 47.3944C253.534 47.3944 255.948 47.9101 258.11 48.8575H258.194L259.66 46.8667C260.176 45.9193 263.119 47.8141 262.518 48.8575C262.086 50.1527 261.305 51.7117 261.137 53.3427C261.053 54.8057 261.485 56.5327 263.035 56.9644C267.443 57.8279 274.889 53.4266 278 49.9728C279.465 48.5097 280.763 50.6683 276.006 55.4174C273.844 57.576 267.875 60.3343 264.248 59.4708C261.389 58.7753 259.227 57.1443 258.11 54.0262C255.684 56.1849 249.979 60.5861 245.403 60.5861C244.274 60.5861 243.241 60.3223 242.292 59.7227C240.563 58.4275 239.698 56.7845 239.698 54.9736V54.9856ZM256.645 50.5844C255.78 50.3325 254.567 50.1526 253.27 50.1526C248.946 50.1526 243.241 51.7956 242.292 55.7651C242.028 56.8085 242.557 57.7559 243.854 57.8398C248.009 57.3242 253.63 53.7864 256.657 50.5844H256.645Z" fill="white" stroke="white" stroke-miterlimit="10"/>
<path d="M279.225 63.3684C277.58 61.3776 276.979 54.5659 276.979 46.2671C276.979 30.5449 279.141 9.48607 280.27 5.93629C280.354 5.42061 280.871 5.33666 281.736 5.67245C282.6 6.10418 283.297 6.79975 283.297 7.23148C282.78 8.87445 280.186 31.4084 280.186 47.5623C280.186 55.6812 280.883 62.1572 282.78 63.4523C285.975 65.2632 290.647 57.4921 293.074 53.5225V49.0374C293.074 34.7063 294.107 17.0893 296.797 6.97964C296.881 6.46396 297.926 6.03223 298.875 6.11618C299.908 6.11618 300.436 6.7158 300.34 7.24347C297.746 17.8688 296.365 29.3457 296.365 50.7643V54.6498C296.365 61.3896 298.01 77.0159 300.52 80.6376C301.301 81.669 300.688 82.0167 300.52 82.2806C299.487 82.1966 299.139 81.7649 298.274 80.8175C295.416 77.6275 293.866 66.4864 293.35 58.7153C291.704 62.5169 289.29 66.4864 285.135 66.4864C282.372 66.4864 280.21 64.8435 279.249 63.3804L279.225 63.3684Z" fill="white" stroke="white" stroke-miterlimit="10"/>
<path d="M304.64 56.2808C304.376 55.5013 304.208 54.6378 304.208 53.7744C304.208 49.9727 306.802 46.0872 311.042 45.9193C313.72 45.9193 316.231 48.5097 315.282 51.0161C314.153 53.7744 310.441 55.8491 307.415 55.8491C307.679 57.492 310.706 60.2503 313.732 60.2503C321.864 60.2503 327.917 54.2061 331.544 50.4045C333.538 48.3298 333.19 50.3205 331.977 52.731C329.551 57.7439 324.026 61.9772 318.056 62.313C312.952 62.5769 306.382 61.6175 304.652 56.2688L304.64 56.2808ZM307.319 53.7744C310.946 52.1314 313.372 49.8049 312.423 48.8574C310.61 47.0466 307.235 51.6157 307.319 53.7744Z" fill="white" stroke="white" stroke-miterlimit="10"/>
<path d="M331.892 46.6149C331.892 46.0152 332.757 46.0152 333.622 46.447C334.403 46.8787 334.919 47.7422 334.919 48.2578L334.835 51.6277C336.997 48.8694 343.399 43.8566 348.155 44.6361C350.149 44.9839 351.35 46.7947 350.749 47.4903C349.536 48.8694 348.323 48.3538 348.419 47.6582L348.503 46.9626C344.179 46.8787 336.997 52.1434 334.919 58.1037C334.655 58.7992 334.655 59.3149 334.318 61.8214C334.403 62.9487 331.556 61.8214 331.208 60.5262C330.859 59.7467 330.691 57.5041 331.904 46.6269L331.892 46.6149Z" fill="white" stroke="white" stroke-miterlimit="10"/>
<path d="M371.924 54.386C369.413 57.7559 365.438 61.2098 362.579 61.2098C359.721 61.2098 356.958 59.0511 355.829 56.2928C355.397 55.0816 355.049 53.6185 355.049 52.1434C355.049 50.9322 355.217 49.721 355.649 48.6056C355.997 47.6582 356.514 46.7948 357.379 46.5309C357.895 46.3631 358.844 46.6988 359.541 47.3944C360.237 48.09 360.237 48.8575 359.805 49.0374C359.457 49.1213 359.024 49.637 358.592 50.5005C358.424 51.3639 358.159 52.4912 358.075 53.6905C358.243 55.0696 358.424 57.576 359.889 58.4395C363.516 60.5142 371.131 50.4045 371.299 47.6462C371.299 47.4784 371.467 47.3824 371.563 47.2985C371.395 47.2145 371.479 47.2145 371.563 47.1306C371.647 46.9627 371.996 46.8667 372.344 46.8667C373.209 46.8667 374.674 47.8981 374.77 48.8575C374.854 49.0254 375.287 52.5752 375.371 57.576V57.9238L375.455 57.8399C377.785 56.4607 388.775 51.1001 390.769 52.923C391.549 53.6185 391.465 53.7864 390.769 53.9543C387.309 54.9857 381.604 58.1037 377.965 60.2624L375.455 61.9893L375.371 63.0206L375.107 71.0556C374.41 81.9328 372.08 93.7694 364.561 95.3165C362.399 95.7482 358.94 94.369 356.514 91.9466C354.184 89.5241 352.791 86.418 353.223 83.312C354.52 76.6681 361.438 68.0215 370.17 61.5456L372.332 59.9865L371.9 54.374L371.924 54.386ZM372.272 64.052L370.278 65.8629C363.276 72.2549 357.391 79.2465 356.442 85.0269C355.925 87.7012 357.223 89.8599 358.255 91.0711C359.553 92.2823 361.198 92.9659 362.231 92.7141C368.801 91.4189 372.344 76.1284 372.26 64.04L372.272 64.052Z" fill="white" stroke="white" stroke-miterlimit="10"/>
</g>
<defs>
<clipPath id="clip0_1_61">
<rect width="391.934" height="96" fill="white"/>
</clipPath>
</defs>
</svg>
