<?xml version="1.0" encoding="utf-8"?>
<!-- Generator: Adobe Illustrator 24.1.1, SVG Export Plug-In . SVG Version: 6.00 Build 0)  -->
<svg version="1.1" id="Layer_1" xmlns="http://www.w3.org/2000/svg" xmlns:xlink="http://www.w3.org/1999/xlink" x="0px" y="0px"
	 width="45.2px" height="45.2px" viewBox="0 0 45.2 45.2" style="enable-background:new 0 0 45.2 45.2;" xml:space="preserve">
<style type="text/css">
	.st0{fill:#FFFFFF;stroke:#000000;stroke-width:1.3641;stroke-miterlimit:10;}
</style>
<g>
	<ellipse class="st0" cx="24.8" cy="24.8" rx="24.1" ry="24.1"/>
	<path d="M24.8,15.9c0.8,0,1.5,0.7,1.5,1.5v15c0,0.8-0.7,1.5-1.5,1.5c-0.8,0-1.5-0.7-1.5-1.5v-15C23.3,16.6,23.9,15.9,24.8,15.9z"/>
	<path d="M24.6,15.9c0.4,0,0.8,0.1,1.1,0.4l7.4,7.4c0.5,0.5,0.5,1.6,0,2.2c-0.5,0.5-1.6,0.5-2.2,0l-6.3-6.3l-6.3,6.3
		c-0.5,0.5-1.6,0.5-2.2,0c-0.5-0.5-0.5-1.6,0-2.2l7.4-7.4C23.8,16,24.2,15.9,24.6,15.9z"/>
</g>
</svg>
