<?xml version="1.0" encoding="utf-8"?>
<!-- Generator: Adobe Illustrator 16.0.3, SVG Export Plug-In . SVG Version: 6.00 Build 0)  -->
<!DOCTYPE svg PUBLIC "-//W3C//DTD SVG 1.1//EN" "http://www.w3.org/Graphics/SVG/1.1/DTD/svg11.dtd">
<svg version="1.1" id="Capa_1" xmlns="http://www.w3.org/2000/svg" xmlns:xlink="http://www.w3.org/1999/xlink" x="0px" y="0px"
	 width="35.438px" height="35.438px" viewBox="0 0 35.438 35.438" enable-background="new 0 0 35.438 35.438" xml:space="preserve">
<ellipse fill="#FFFFFF" cx="17.718" cy="17.719" rx="17.719" ry="17.719"/>
<path d="M17.718,24.27c-0.631,0-1.143-0.513-1.143-1.145V12.165c0-0.632,0.512-1.144,1.143-1.144s1.144,0.512,1.144,1.144v10.961
	C18.861,23.758,18.348,24.27,17.718,24.27z"/>
<path d="M17.869,24.27c-0.293,0-0.585-0.112-0.808-0.337l-5.407-5.404c-0.448-0.445-0.448-1.17-0.001-1.617
	c0.447-0.446,1.171-0.445,1.617,0l4.599,4.597l4.598-4.597c0.445-0.445,1.169-0.445,1.614,0c0.448,0.447,0.448,1.172,0,1.617
	l-5.404,5.404C18.454,24.158,18.162,24.27,17.869,24.27z"/>
</svg>
