<?xml version="1.0" encoding="utf-8"?>
<!-- Generator: Adobe Illustrator 24.1.1, SVG Export Plug-In . SVG Version: 6.00 Build 0)  -->
<svg version="1.1" id="Capa_1" xmlns="http://www.w3.org/2000/svg" xmlns:xlink="http://www.w3.org/1999/xlink" x="0px" y="0px"
	 width="717.1px" height="320.9px" viewBox="0 0 717.1 320.9" style="enable-background:new 0 0 717.1 320.9;" xml:space="preserve"
	>
<style type="text/css">
	.st0{clip-path:url(#SVGID_2_);}
	.st1{fill:#FFFFFF;}
	.st2{fill:#48AC33;}
	.st3{fill:none;}
</style>
<g id="Capa_2">
</g>
<g>
	<g>
		<g>
			<g>
				<g>
					<g>
						<defs>
							<rect id="SVGID_1_" y="0" width="717.1" height="93.1"/>
						</defs>
						<clipPath id="SVGID_2_">
							<use xlink:href="#SVGID_1_"  style="overflow:visible;"/>
						</clipPath>
						<g class="st0">
							<path class="st1" d="M65.7,0.1c-0.2,0.1-0.5,0.3-0.6,0.8c-0.5,0.8,0,2,0.7,2.9c6.8,7,7.5,22.2,7.5,28.4
								c0,4.6-0.3,9.1-0.9,12.5C69.5,60.9,61.3,78,51.8,78c-0.1,0-0.2,0-0.3,0c-8-0.7-12.2-10.2-13.1-16.5c2.7-10,3.8-19.7,3.6-24.8
								c-0.2-4.6-2-8.5-4.2-9.3c-1.1-0.4-2.3,0-3.2,1.1c-1.4,1.7-2.2,6.3-2.2,12.7c0,5.7,0.7,12.1,2,18.1
								c-3.1,9.5-10.7,19.2-17,18.6C9.5,77.1,5.3,67,4.4,57.4c-0.2-2.1-0.3-4.2-0.3-6.4c0-13.4,3.6-27.2,6.9-31.5
								c0.5-0.5,0.3-1.9-0.1-2.4c-0.3-0.4-0.8-0.6-1.3-0.4C4,19.5,0,36,0,49c0,2.9,0.2,6.1,0.5,9c2.3,17.4,10.9,24,18.3,24.3
								c0.1,0,0.2,0,0.3,0c8.2,0,14.1-9.3,17.1-15.8C40.6,79.6,48.7,82,52,82.4c0.4,0,0.8,0.1,1.2,0.1c8.7,0,19.1-11.1,22.8-36.4
								c0.6-3.5,0.9-7.7,0.9-12.5c0-6.9-0.9-24-9.5-32.8C66.7,0.1,66.2-0.1,65.7,0.1z M38.1,37.5c0.2,3.4-0.4,8.9-1.7,14.7
								c-0.4-3.2-0.6-6.4-0.6-9.3c0-5.2,0.7-8.7,1.4-10.8c0.6,1.5,1,4.4,0.8,5.3L38.1,37.5L38.1,37.5L38.1,37.5L38.1,37.5z"/>
							<path class="st1" d="M164.5,44.2c-4.4-0.7-9.8,3-12.6,5.9l0-1.7c0-0.8-0.7-1.8-1.6-2.3c-0.8-0.4-1.6-0.5-2.1-0.2
								c-0.3,0.2-0.5,0.5-0.5,0.8c-0.1,1.3-0.3,2.5-0.4,3.6c-3.2,3.4-9.1,9.3-17,9.3c-2.4,0-4.7-1.9-5.4-3.2
								c3.2-0.3,6.4-2.5,7.5-5.1c0.5-1.2,0.3-2.5-0.5-3.6c-0.9-1.4-2.6-2.2-4.3-2.2c-4.2,0.2-6.8,3.7-7.3,7.3
								c-3.8,2.2-9.2,4.1-12.3,4.1c-0.8,0-1.6-0.1-2.2-0.4c-0.3-1.3-0.2-2.5-0.1-3.7c0.1-1,0.1-1.9,0-2.9c-0.4-1.4-1.9-2.5-3.2-2.9
								c-5-1.6-11.8,4.7-14.4,7.3l0-6.1c0.2-11.6,0.3-22.6,1.4-33.7c0-1.3-1.9-2.2-3.2-2.2c-1,0-1.4,0.6-1.4,1.1
								c-0.5,9.2-1,20.4-1,33.2l0,12.1c0,2.2,0,2.7,0.1,3c0.3,1.2,1.9,2.2,2.9,2.2c0.1,0,0.2,0,0.2,0c0.6-0.1,1-0.6,0.9-1.1
								c0.4-4.3,8.9-11.6,13-12.1c0,0.1,0,0.2,0,0.3c0,0.5-0.1,1.2-0.1,1.9c0,2.6,0.9,4.6,2.7,5.9c1.9,1.2,3.8,1.8,6.1,1.8
								c3.9,0,8.2-1.6,11.2-3.5c2,5,7.9,5.9,12.2,5.9c0.5,0,1,0,1.5,0c4.6-0.3,9.2-2.8,12.2-6.5c-0.2,3.1,0,3.9,0.2,4.3
								c0.3,1.2,2.1,2.2,3.2,2.2c0.1,0,0.2,0,0.2,0c0.5-0.1,0.9-0.5,0.9-1c0.1-0.7,0.2-1.2,0.2-1.6c0.1-1.1,0.2-1.4,0.3-1.9
								c1.9-5.4,8.1-10.1,12.2-10.6c-0.1,0.5,0.2,1,0.7,1.2c0.6,0.3,1.6,0.2,2.6-0.9c0.3-0.4,0.4-0.9,0.2-1.4
								C167.2,45.6,166.1,44.5,164.5,44.2L164.5,44.2z M125.1,52c0.6-1.1,1.5-2.3,2.5-2.7c0.2-0.1,0.4-0.1,0.5-0.1
								c0.2,0,0.4,0.1,0.5,0.2c0,0,0,0,0,0.1c-0.1,0.7-1.6,2.1-3.8,3.2C124.9,52.5,125,52.2,125.1,52L125.1,52L125.1,52z"/>
							<path class="st1" d="M197.8,49.1c-0.7-0.5-1.6,0.4-2.1,0.9c-3.2,3.3-9.1,9.5-17.2,9.5c-2.4,0-4.7-1.9-5.4-3.2
								c3.2-0.3,6.4-2.5,7.5-5.1c0.5-1.2,0.3-2.5-0.5-3.6c-0.9-1.4-2.6-2.2-4.3-2.2c-4.6,0.2-7.3,4.4-7.3,8.3c0,0.8,0.2,1.8,0.5,2.6
								c1.7,5.4,8,6.4,12.3,6.4c0.5,0,1,0,1.5,0c5.8-0.3,11.6-4.4,14.3-9.8C198.8,49.8,198.1,49.3,197.8,49.1L197.8,49.1L197.8,49.1
								L197.8,49.1z M176.9,49.5c-0.1,0.7-1.6,2.1-3.9,3.3c0.5-1.3,1.7-3,2.8-3.5c0.2-0.1,0.4-0.1,0.5-0.1c0.2,0,0.4,0.1,0.5,0.2
								C176.9,49.4,176.9,49.4,176.9,49.5L176.9,49.5z"/>
							<path class="st1" d="M316.3,41.7c-3.8,0.5-10.4,2.4-12.7,5.5c-0.7,1-1,2-0.8,3c0.1,0.5,0.2,0.9,0.4,1.3
								c-4.2,3.8-8.1,5.7-11.7,5.9c-1.8-0.2-2.4-1.6-2.8-3.8c0-1.5,0.1-2.8,0.2-3.4c0.2-1.3-1.5-2.5-2.7-2.7c-1-0.2-1.5,0.4-1.6,0.9
								c-0.5,2.4-4.2,8.3-7.1,9.5c-0.7,0.3-1.3,0.3-1.9-0.1c-0.7-0.4-1-1.5-1-3c0-2.1,0.8-4.4,1.7-4.9c0.4-0.2,0.6-0.6,0.7-0.9
								c0.1-0.5-0.2-0.9-0.6-1.4c-0.8-0.9-2-1.4-2.9-1.2c-1,0.3-1.6,1.3-2,2.1c-0.3,0.4-0.4,0.9-0.6,1.4c-0.3,0-0.5,0.1-0.7,0.4
								c-1,1.7-10.1,5.9-12.8,5.9c-0.9,0-1.8-0.3-2.8-0.9c-1-0.9-1.6-2.5-2.1-4c-0.2-0.8-0.5-1.5-0.8-2.1c-0.5-0.8-1.6-1.5-2.5-1.7
								c-0.6-0.1-0.9,0-1.2,0.2l-7.6,6.1c-0.2-0.7-0.3-1.3-0.4-1.9c-0.3-1.5-0.6-2.8-1.2-4.2l-0.1-0.1c-0.8-1-2.5-2.2-3.6-1.6
								c-3.4,1.6-6.1,4.6-8.7,7.5c0-0.8,0.1-1.4,0.1-2.1c0.1-1,0.1-1.9,0.1-2.9c0.1-0.6-0.2-1.2-0.9-1.8c-0.6-0.5-1.6-1.1-2.4-0.8
								c-0.4,0.1-0.7,0.5-0.8,1c-0.4,2.5-0.6,5-0.6,7.4c0,1.2,0.1,2.5,0.2,3.8l0,0.1c0.3,1,1.7,2.3,2.8,2.6c0.2,0.1,0.4,0.1,0.6,0.1
								c0.4,0,0.6-0.1,0.8-0.3c1.4-1.2,2.6-2.6,3.8-4.1c1.6-2,3.3-4,5.5-5.5c0.7,3,1.2,4.7,2,6.5c0.6,1.1,2.6,2.2,3.7,1.7
								c2.2-1.4,4.1-3,7.7-5.9c0.2,0.6,0.6,1.2,1.1,1.9c0.8,1,1.7,2.1,3.1,3c1.8,1.2,4,1.8,6,1.8c4.4,0,9-3.1,11.2-5.5
								c0.1,0.6,0.2,1.3,0.4,1.9c1,3.1,4.1,5.5,7.2,5.5c3.4,0,5.8-2.5,7.6-4.9c1.5,2.7,4.2,4.3,7.3,4.3c5.6,0.3,10.2-3.7,12.5-7.2
								c0.5,0.3,1,0.6,1.6,0.9c0.3,0.2,0.7,0.4,1,0.6c1.1,0.6,2.9,1.5,4.6,2.4c0.3,0.2,0.7,0.3,1,0.5c-2.1,0.4-4.6,0.6-6.6,0.6
								c-1.1,0-2-0.1-2.7-0.2c-1.3-0.3-1.7,0.5-1.8,0.7c-0.3,0.9,0.5,2.2,1.4,2.6c1.3,0.5,3.4,0.8,5.7,0.8c2.3,0,4.6-0.3,6.1-0.7
								c1.6-0.4,2.9-1.6,3.2-2.9c0.2-1-0.1-2-1-2.7c-1.4-1.1-3.3-2.1-5.7-3.5c-0.6-0.3-1.2-0.7-1.9-1c-0.3-0.2-0.5-0.3-0.8-0.5
								c-1.1-0.6-2.4-1.3-2.1-1.9c0.6-1.4,5.2-2.6,8.3-3.5c1.2-0.3,2.4-0.6,3.2-0.9l0.2-0.1l0.1-0.1c0.4-0.5,0.4-1.1,0-1.7
								C318.7,42.4,317.5,41.5,316.3,41.7L316.3,41.7L316.3,41.7L316.3,41.7z"/>
							<path class="st2" d="M327,40c0.5,0.2,1,0.4,1.5,0.4c0.5,0,1-0.2,1.3-0.5c0.2-0.3,0.6-1.3,1-2.3l0.2-0.4
								c0.3-0.6,0.3-1.2,0.3-1.6c0.1-0.2,0-0.5-0.1-0.8c-0.3-0.6-1.1-1.1-1.9-1.2c-0.8-0.3-1.6-0.3-2.2,0c-0.3,0.2-0.5,0.5-0.5,0.8
								l-0.2,1.2c0,0.1-0.1,0.3-0.2,0.6c-0.2,0.4-0.5,1.3-0.6,1.6c-0.2,0.2-0.3,0.5-0.3,0.9C325.5,39.1,326.2,39.7,327,40L327,40z"
								/>
							<path class="st1" d="M370.8,49.6c-4.7,4.1-10.9,8.9-18,9.4c-1.7,0-3.2-0.6-4-1.6c-0.8-1-1-2.3-0.7-3.8
								c0.4-1.8,1.6-3.6,3.1-4.6c0.6-0.4,1.6-0.8,2.6-0.8c-0.1,0.5-0.3,0.9-0.4,1.2c-0.5,0.9-0.2,1.5,0,1.7c0.4,0.4,1.1,0.5,1.7,0.2
								c0.8-0.3,3-1,3-2.9c-0.1-1.1-1-2.3-2.3-2.9c-1-0.6-2.2-0.8-3.4-0.8c-1.8,0-3.4,0.6-5,1.8c-1.3,1.1-2.3,2.5-2.8,4
								c-3.6,3-10.6,7.7-14.8,7.7c-0.8,0-1.6-0.2-2.1-0.6c-0.9-0.9,0.5-9.6,1.1-10.6l0.1-0.1l0-0.2c0.2-0.8-0.6-1.7-1.8-2.1
								c-0.6-0.1-1.6-0.3-2.2,0.1c-0.2,0.1-0.3,0.3-0.4,0.5c-0.9,1.5-1.5,4.1-1.5,7c0,3.3,0.8,6.1,2,7.5c1.8,2,4.2,2.4,6.1,2.4
								c0.2,0,0.3,0,0.5,0c4.4-0.2,9.4-3.5,12.6-6.6c0.3,1.5,1,2.9,2.2,4.1c1.9,2,4.8,3.2,7.9,3.2c10.2-0.6,16.2-6.9,17.9-10.2
								c0.6-1.1,0.3-2.4-0.3-2.9C371.6,49.3,371.2,49.3,370.8,49.6L370.8,49.6z"/>
							<path class="st1" d="M531.7,41.6c-3.8,0.5-10.4,2.4-12.7,5.5c-0.7,1-1,2-0.8,3c0,0.2,0.1,0.3,0.1,0.4
								c-3.3,3.4-9,8.9-16.6,8.9c-2.4,0-4.7-1.9-5.4-3.2c3.2-0.3,6.4-2.5,7.5-5.1c0.5-1.2,0.3-2.5-0.5-3.6c-0.9-1.4-2.6-2.2-4.3-2.2
								c-3.8,0.2-6.3,3-7.1,6.2c-3,1.9-8.9,4.4-11,4.4c-0.9,0-1.8-0.3-2.8-0.9c-1-0.9-1.6-2.5-2.1-3.9c-0.2-0.8-0.5-1.5-0.8-2.1
								c-0.5-0.8-1.6-1.5-2.5-1.7c-0.6-0.1-1,0-1.2,0.2l-7.6,6.1c-0.2-0.7-0.3-1.3-0.4-1.9c-0.3-1.5-0.6-2.8-1.2-4.2l-0.1-0.1
								c-0.8-1-2.5-2.2-3.6-1.6c-3.4,1.6-6.1,4.6-8.7,7.5c0-0.8,0.1-1.4,0.1-2.1c0.1-1,0.1-1.9,0.1-2.9c0.1-0.6-0.2-1.2-0.9-1.8
								c-0.6-0.5-1.6-1.1-2.4-0.8c-0.4,0.1-0.7,0.5-0.8,1c-0.1,0.7-0.2,1.3-0.3,2c-0.3,0-0.6,0-0.8,0c-0.2,0-0.7,0-1.4,0.1
								c-1.5,0.1-3.9,0.3-6.7,0.3c-2.2,0-4.2-0.1-6-0.3c-1.4-1.6-3.4-2.7-5.8-3c-2-0.1-2.8,1.1-3.1,2.1l-0.2,0
								c-1.2,0.4-2.4,1.8-3.2,3.7c-4.4,3.6-9.8,7.1-15.9,7.6c-1.7,0-3.2-0.6-4-1.6c-0.8-1-1-2.3-0.7-3.8c0.4-1.8,1.6-3.6,3.1-4.6
								c0.6-0.4,1.6-0.8,2.6-0.8c-0.1,0.5-0.3,0.9-0.4,1.2c-0.5,0.9-0.2,1.5,0,1.7c0.4,0.4,1.1,0.5,1.7,0.2c0.8-0.3,3-1,3-2.9
								c-0.1-1.1-1-2.3-2.3-2.9c-1-0.6-2.2-0.8-3.4-0.8c-1.8,0-3.4,0.6-5,1.8c-2,1.7-3.2,4.1-3.3,6.7c-0.1,2.4,0.7,4.6,2.3,6.3
								c1.9,2,4.8,3.2,7.9,3.2c6.1-0.3,10.7-2.7,13.8-5.3c0.7,2.4,2.9,4.9,6.1,5.1c0.2,0,0.5,0,0.7,0c4.2,0,7.4-2.6,8.2-6.6
								c0.2-1.1,0.2-2.1,0-3.2c5.2,0.2,10.3-0.6,12.1-1.3c0.1,0,0.3-0.1,0.5-0.2c-0.1,0.9-0.1,1.9-0.1,2.8c0,1.2,0.1,2.5,0.2,3.8
								l0,0.1c0.2,1,1.7,2.3,2.8,2.6c0.2,0.1,0.4,0.1,0.6,0.1c0.4,0,0.6-0.1,0.8-0.3c1.4-1.2,2.6-2.6,3.8-4.1c1.6-2,3.3-4,5.5-5.5
								c0.7,3,1.2,4.7,2,6.5c0.6,1.1,2.6,2.2,3.7,1.7c2.1-1.4,4.1-3,7.7-5.9c0.2,0.6,0.6,1.2,1.1,1.9c0.8,1,1.7,2.1,3.1,3
								c1.8,1.2,4,1.8,6,1.8c3.3,0,6.7-1.7,9.2-3.6c0,0.1,0,0.2,0.1,0.4c1.7,5.4,8,6.4,12.4,6.4c0.5,0,1,0,1.5,0
								c5.7-0.3,11.4-4.2,14.1-9.5c0.7,0.5,1.5,1,2.3,1.4c0.3,0.2,0.7,0.4,1,0.6c1.1,0.6,2.9,1.5,4.6,2.4c0.3,0.2,0.7,0.3,1,0.5
								c-2.1,0.4-4.6,0.6-6.6,0.6c-1.1,0-2-0.1-2.7-0.2c-1.3-0.3-1.7,0.5-1.8,0.7c-0.3,0.9,0.5,2.2,1.4,2.6c1.3,0.5,3.4,0.8,5.7,0.8
								c2.3,0,4.6-0.3,6.1-0.7c1.6-0.4,2.9-1.6,3.2-2.9c0.2-1-0.1-2-1-2.7c-1.4-1.1-3.3-2.1-5.7-3.4c-0.6-0.3-1.2-0.7-1.9-1
								c-0.3-0.2-0.5-0.3-0.8-0.5c-1.1-0.6-2.4-1.3-2.1-1.9c0.6-1.4,5.2-2.7,8.3-3.5c1.2-0.3,2.4-0.7,3.2-0.9l0.2-0.1l0.1-0.1
								c0.4-0.5,0.4-1.1,0-1.7C534.2,42.3,533,41.5,531.7,41.6L531.7,41.6z M424.2,50.7c1.1,0.6,2.5,1.1,4.3,1.4
								c0.5,1.5,0.3,3.4-0.6,4.9c-0.8,1.3-1.9,2-3.3,2.1c-1.1,0.1-2-0.4-2.4-2.8C421.8,54.2,423.2,51.7,424.2,50.7L424.2,50.7
								L424.2,50.7z M500,49.4c-0.1,0.7-1.6,2.1-3.9,3.3c0.5-1.3,1.7-3,2.8-3.5c0.2-0.1,0.4-0.1,0.5-0.1c0.3,0,0.4,0.1,0.5,0.2
								C500,49.3,500,49.3,500,49.4L500,49.4L500,49.4z"/>
							<path class="st1" d="M614.3,28.8l-0.1-0.1c-0.4-0.6-1.3-1.5-2.3-2c-2.9-0.6-7.1-0.9-12.5-0.9c-7.5,0-16.2,0.6-23.1,1.1
								l-2.4,0.2c-0.6,0.1-1.2,0.1-1.8,0.2c0.4-6.9,0.9-13.1,1.4-16.9v-0.1v-0.1c-0.2-1.5-2.1-2.3-3.3-2.1c-0.9,0.1-1.4,0.6-1.4,1.3
								c-0.4,5.8-0.8,11.9-1.1,18.1c-10.6,0.9-16.4,1.6-22.2,2.6c-0.7,0.2-1.1,0.7-1,1.4c0.2,1.1,1.7,2.3,3.2,2.1
								c6.3-1.1,12.6-1.6,19.1-2.2l0.8-0.1c-0.2,4.6-0.4,9.4-0.5,13.6c-0.1,3-0.2,7.7-0.2,12.9c0,11.4,0.4,24.7,1.3,27.8
								c0.5,1.3,2,2.9,3.1,2.9c0.1,0,0.2,0,0.3,0c0.2,0,0.9-0.3,0.8-1.6c-1-3.4-1.4-10.4-1.4-20.9c0-5.3,0.1-10.7,0.2-15.4
								c0-2.1,0.1-4.1,0.1-5.8l0.6-13.8c0.4,0,0.8-0.1,1.3-0.1l1.7-0.1c6.6-0.5,15.7-1.2,24.1-1.2c5.8,0,10.2,0.3,13.7,1
								c0.5,0.1,1-0.1,1.3-0.4c0.3-0.3,0.4-0.7,0.4-1.2L614.3,28.8L614.3,28.8z"/>
							<path class="st1" d="M605,48.5c-0.2,0-0.7,0-1.4,0.1c-1.5,0.1-3.9,0.3-6.7,0.3c-2.2,0-4.2-0.1-6-0.3c-1.4-1.6-3.4-2.7-5.8-3
								c-2-0.1-2.8,1.1-3.1,2.1l-0.2,0c-2.3,0.8-4.6,5.2-4,9c0.5,2.6,2.8,5.5,6.3,5.7c0.2,0,0.5,0,0.7,0c4.2,0,7.4-2.6,8.2-6.6
								c0.2-1.1,0.2-2.1,0-3.2c5.2,0.2,10.3-0.6,12.1-1.3c0.7-0.2,2.4-0.9,2.2-1.9C607,48.4,605.4,48.5,605,48.5L605,48.5L605,48.5z
								 M584.3,59.1c-1.1,0.1-2-0.4-2.4-2.8c-0.4-2.1,1-4.6,2-5.5c1.1,0.6,2.5,1.1,4.3,1.4c0.5,1.5,0.3,3.4-0.6,4.9
								C586.8,58.3,585.6,59,584.3,59.1L584.3,59.1L584.3,59.1z"/>
							<path class="st2" d="M652.8,39.9c0.5,0.2,1,0.4,1.5,0.4c0.5,0,1-0.2,1.3-0.5c0.2-0.3,0.6-1.3,1-2.3l0.2-0.5
								c0.3-0.6,0.3-1.2,0.3-1.6c0.1-0.2,0-0.5-0.1-0.8c-0.3-0.6-1.1-1.1-1.9-1.2c-0.8-0.3-1.6-0.3-2.1,0c-0.3,0.2-0.5,0.5-0.5,0.8
								l-0.2,1.2c-0.1,0.1-0.1,0.3-0.2,0.6c-0.2,0.4-0.5,1.3-0.6,1.6c-0.2,0.2-0.3,0.5-0.3,0.9C651.4,39.1,652.1,39.6,652.8,39.9
								L652.8,39.9z"/>
							<path class="st1" d="M716.7,49.1c-0.7-0.5-1.6,0.4-2.1,0.9c-3.2,3.3-9.1,9.5-17.2,9.5c-2.4,0-4.7-1.9-5.4-3.2
								c3.2-0.3,6.4-2.5,7.5-5.1c0.4-1.2,0.3-2.5-0.5-3.6c-0.9-1.4-2.6-2.2-4.3-2.2c-3.1,0.1-5.4,2.1-6.5,4.6
								c-4.8,0.3-12,0.5-13.5,0.5c0.2-5,1.5-21.4,2-24.7c0.3-0.9-0.6-2-1.6-2.5c-0.7-0.4-1.4-0.5-1.9-0.3c-0.3,0.2-0.5,0.4-0.6,0.7
								c-0.7,3.6-2.1,20.3-2.2,25.4l0,0.9l-1.4-0.3c-1.1-0.3-1.6,0.2-1.7,0.8c-0.1,0.5,0.1,1.2,0.6,1.8c-3.8,2.8-9.1,5.9-12.6,5.9
								c-0.8,0-1.6-0.2-2.1-0.6c-0.9-0.9,0.5-9.6,1.1-10.6l0.1-0.1l0-0.2c0.2-0.8-0.6-1.7-1.8-2.1c-0.5-0.1-1.6-0.3-2.2,0.1
								c-0.2,0.1-0.4,0.3-0.4,0.5c-0.9,1.5-1.5,4.1-1.5,7c0,0.1,0,0.2,0,0.3C639.5,64.1,636,63.9,635,63.3
								c-0.7-0.5-2.3-2.8-2.3-14.4c0-14.9,2.5-35.2,3-36.6l0-0.2c0-0.8-1-1.6-1.9-2.1c-0.7-0.3-1.3-0.3-1.7-0.1
								c-0.3,0.2-0.5,0.4-0.5,0.7c-1.2,3.8-3.5,22.1-3.5,36.2c0,8.2,0.8,13.6,2.3,16l0,0c1.9,2.7,4.5,4.2,7.3,4.2
								c4.2,0,9.1-5.1,12-9.6c0.3,0.9,0.7,1.6,1.2,2.1c1.8,2,4.2,2.4,6.1,2.4c0.2,0,0.3,0,0.5,0c4.6-0.2,9.9-3.9,13.1-7
								c-0.3,4-0.4,7.8-0.4,11.2c0,13.4,2.2,22.1,6.6,25.8c0.1,0.1,0.2,0.2,0.5,0.3c1.1,0.6,2,0.7,2.8,0.7c1,0,1.7-0.4,2.2-0.7
								c1.1-0.8,2-2.1,2.5-3.7c0.9-2.3,1.4-5.7,1.4-9.6c0-1,0-2.1-0.1-3.2c-0.4-5.4-1.8-10.6-4.1-15.2c-1.5-2.4-2.8-4.6-4.8-6.5
								c0.6,0,1.3,0,2.1,0c2.5,0,5.7-0.1,8.3-0.4c0,0.8,0.2,1.7,0.4,2.5c1.8,5.4,8,6.4,12.3,6.4c0.5,0,1,0,1.5,0
								c5.8-0.3,11.7-4.4,14.3-9.8C717.7,49.7,717,49.3,716.7,49.1L716.7,49.1z M695.8,49.4c-0.1,0.4-0.7,1.1-1.6,1.8
								c0.2-0.4,0.3-0.8,0.2-1.1c-0.1-0.2-0.2-0.4-0.4-0.5c0.2-0.2,0.5-0.4,0.7-0.5c0.2-0.1,0.4-0.1,0.5-0.1c0.2,0,0.4,0.1,0.5,0.2
								C695.8,49.3,695.8,49.3,695.8,49.4L695.8,49.4L695.8,49.4z M674.5,56.1c1.5,1.6,2.8,3.3,3.8,5.1c2.5,4.8,3.3,10,3.5,13.6
								c0.1,1.3,0.2,2.6,0.2,3.8c0,3.2-0.4,5.9-1.2,7.9c-0.7,2-1.4,2.5-1.8,2.6c-0.2,0.1-0.3,0.1-0.5,0l-0.2-0.2
								c-2.8-3.5-4.3-11-4.3-21.8C674,63.4,674.2,59.4,674.5,56.1L674.5,56.1L674.5,56.1z"/>
						</g>
					</g>
				</g>
			</g>
		</g>
	</g>
	<g>
		<path class="st1" d="M67,233.1l2.5,0v-4.6l2.8,0c3.2,0,5.7-1.7,5.7-4.9v0c0-2.9-2.1-4.8-5.5-4.8H67L67,233.1z M69.5,226.2l0-5.2
			h2.9c1.9,0,3.1,0.9,3.1,2.6v0c0,1.5-1.2,2.6-3.1,2.6L69.5,226.2L69.5,226.2z M80.7,233.1h2.5l0-5h3.2l3.5,5h3l-3.9-5.4
			c2-0.6,3.4-2,3.4-4.3v0c0-1.3-0.4-2.3-1.2-3.1c-0.9-0.9-2.3-1.4-4.1-1.4l-6.4,0L80.7,233.1z M83.2,225.9l0-4.8h3.7
			c1.9,0,3,0.8,3,2.4v0c0,1.5-1.1,2.4-3,2.4H83.2z M102.3,233.3c4.4,0,7.5-3.4,7.5-7.4v0c0-4-3.1-7.4-7.5-7.4s-7.5,3.4-7.5,7.4v0
			C94.8,230,97.9,233.3,102.3,233.3z M102.4,231c-2.8,0-4.9-2.3-4.9-5.1v0c0-2.8,2-5.1,4.8-5.1c2.8,0,4.9,2.3,4.9,5.1v0
			C107.2,228.7,105.2,231,102.4,231z M112.9,233.1h5.3c4.5,0,7.6-3.1,7.6-7.2v0c0-4-3.1-7.1-7.6-7.1h-5.3L112.9,233.1z M118.2,221
			c3,0,5,2.1,5,4.9v0c0,2.8-2,4.8-5,4.8h-2.8l0-9.8L118.2,221z M134.8,233.3c3.7,0,6.2-2.1,6.2-6.4l0-8.1h-2.5v8.3
			c0,2.6-1.4,4-3.6,4c-2.3,0-3.6-1.4-3.6-4.1l0-8.2h-2.5l0,8.3C128.7,231.2,131.1,233.3,134.8,233.3z M151.1,233.3
			c2.7,0,4.3-1,5.8-2.5l-1.6-1.6c-1.2,1.1-2.4,1.8-4.1,1.8c-2.7,0-4.7-2.3-4.7-5.1v0c0-2.8,2-5.1,4.7-5.1c1.6,0,2.9,0.7,4,1.8
			l1.6-1.9c-1.4-1.3-3-2.2-5.6-2.2c-4.3,0-7.4,3.3-7.4,7.4v0C143.8,230.1,146.9,233.3,151.1,233.3z M163.1,233.1h2.5l0-12l4.5,0
			v-2.3l-11.6,0v2.3l4.5,0L163.1,233.1z M173,233.1h2.5l0-14.3H173L173,233.1z M186.2,233.3c4.4,0,7.5-3.4,7.5-7.4v0
			c0-4-3.1-7.4-7.5-7.4c-4.4,0-7.5,3.4-7.5,7.4v0C178.7,230,181.8,233.3,186.2,233.3z M186.2,231c-2.8,0-4.9-2.3-4.9-5.1v0
			c0-2.8,2-5.1,4.8-5.1c2.8,0,4.9,2.3,4.9,5.1v0C191,228.7,189.1,231,186.2,231z M196.7,233.1l2.5,0l0-10.2l7.9,10.2h2.1l0-14.3
			l-2.5,0l0,9.9l-7.7-9.9l-2.3,0L196.7,233.1z"/>
		<path class="st2" d="M221,241.6l0-29h4l0,29H221z M392.2,241.6l0-29h4l0,29H392.2z M501.1,241.6l0-29h4l0,29H501.1z"/>
		<path class="st1" d="M243.9,233.1l2.5,0l0-5h3.2l3.5,5h3l-3.9-5.4c2-0.6,3.4-2,3.4-4.3v0c0-1.3-0.4-2.3-1.2-3.1
			c-0.9-0.9-2.3-1.4-4.1-1.4h-6.4L243.9,233.1z M246.4,225.8l0-4.8h3.7c1.9,0,3,0.8,3,2.4v0c0,1.5-1.1,2.4-2.9,2.4H246.4z
			 M258.7,233.1l10.7,0v-2.3h-8.2l0-3.9h7.2v-2.3h-7.2l0-3.7h8.1v-2.3l-10.6,0L258.7,233.1z M279,233.3c2.7,0,4.3-1,5.8-2.5
			l-1.6-1.6c-1.2,1.1-2.4,1.8-4.1,1.8c-2.7,0-4.7-2.3-4.7-5.1v0c0-2.8,2-5.1,4.7-5.1c1.6,0,2.9,0.7,4,1.8l1.6-1.9
			c-1.4-1.3-3-2.2-5.6-2.2c-4.3,0-7.4,3.3-7.4,7.4v0C271.7,230.1,274.9,233.3,279,233.3z M294,233.3c4.4,0,7.5-3.4,7.5-7.4v0
			c0-4-3.1-7.4-7.5-7.4c-4.4,0-7.5,3.4-7.5,7.4v0C286.5,230,289.5,233.3,294,233.3z M294,231c-2.8,0-4.9-2.3-4.9-5.1v0
			c0-2.8,2-5.1,4.8-5.1c2.8,0,4.9,2.3,4.9,5.1v0C298.8,228.7,296.8,231,294,231z M304.5,233.1h2.5v-5h3.2l3.5,5h3l-3.9-5.4
			c2-0.6,3.4-2,3.4-4.3v0c0-1.3-0.4-2.3-1.2-3.1c-0.9-0.9-2.3-1.4-4.1-1.4l-6.4,0L304.5,233.1z M307,225.8l0-4.8h3.7
			c1.9,0,3,0.8,3,2.4v0c0,1.5-1.1,2.4-3,2.4L307,225.8z M319.3,233.1l5.3,0c4.5,0,7.6-3.1,7.6-7.2v0c0-4-3.1-7.1-7.6-7.1l-5.3,0
			L319.3,233.1z M324.7,221c3,0,5,2.1,5,4.9v0c0,2.8-2,4.8-5,4.8h-2.8l0-9.8L324.7,221L324.7,221z M335.5,233.1h2.5l0-14.3h-2.5
			L335.5,233.1z M341.8,233.1h2.5v-10.2l7.9,10.2h2.1l0-14.3h-2.5l0,9.9l-7.7-9.9h-2.3L341.8,233.1z M364.8,233.3c2.5,0,4.6-1,6-2.2
			v-6l-6.1,0v2.2h3.7l0,2.7c-0.9,0.7-2.1,1.1-3.5,1.1c-2.9,0-4.9-2.2-4.9-5.1v0c0-2.7,2-5.1,4.6-5.1c1.8,0,2.9,0.6,4,1.5l1.6-1.9
			c-1.5-1.3-3-1.9-5.5-1.9c-4.3,0-7.4,3.4-7.4,7.4v0C357.4,230.1,360.4,233.3,364.8,233.3z"/>
		<path class="st1" d="M410.4,233.1l2.5,0v-10.2l4.5,6.7h0.1l4.5-6.8l0,10.3l2.5,0l0-14.3h-2.7l-4.4,6.8l-4.4-6.8h-2.7L410.4,233.1z
			 M428.4,233h2.5v-14.3h-2.5L428.4,233z M443.9,218.7l-3.6,5.2l-3.6-5.2l-3,0l5,7l-5.2,7.3l2.9,0l3.8-5.5l3.8,5.5h3l-5.2-7.3l5-7
			L443.9,218.7z M449.8,233h2.5l0-14.3h-2.5L449.8,233L449.8,233z M456.1,233l2.5,0l0-10.2l7.9,10.2h2.1l0-14.3h-2.5l0,9.9l-7.7-9.9
			l-2.3,0L456.1,233z M479.1,233.3c2.5,0,4.6-1,6-2.2v-6H479v2.2h3.7v2.7c-0.9,0.7-2.1,1.1-3.5,1.1c-2.9,0-4.9-2.2-4.9-5.1v0
			c0-2.7,2-5.1,4.6-5.1c1.8,0,2.9,0.6,4,1.5l1.6-1.9c-1.5-1.2-3-1.9-5.5-1.9c-4.3,0-7.4,3.4-7.4,7.4v0
			C471.7,230.1,474.6,233.3,479.1,233.3z"/>
		<path class="st1" d="M526.3,233h2.5l0-10.2l4.5,6.7h0.1l4.5-6.8l0,10.3h2.5l0-14.3h-2.7l-4.4,6.8l-4.4-6.8h-2.7L526.3,233z
			 M542.8,233h2.6l1.5-3.5l6.8,0l1.5,3.5h2.7l-6.3-14.4h-2.3L542.8,233z M547.8,227.3l2.5-5.7l2.5,5.7L547.8,227.3z M565,233.2
			c3,0,5.1-1.6,5.1-4.3v0c0-2.4-1.6-3.5-4.6-4.2c-2.8-0.7-3.4-1.1-3.4-2.3v0c0-0.9,0.9-1.7,2.3-1.7c1.3,0,2.6,0.5,3.9,1.5l1.4-1.9
			c-1.5-1.2-3.1-1.8-5.2-1.8c-2.9,0-4.9,1.7-4.9,4.2v0c0,2.6,1.7,3.5,4.8,4.3c2.7,0.6,3.2,1.2,3.2,2.2v0c0,1.1-1,1.8-2.5,1.8
			c-1.8,0-3.2-0.7-4.5-1.9l-1.5,1.8C560.8,232.5,562.8,233.2,565,233.2z M576.3,233h2.5l0-12h4.6v-2.3l-11.6,0v2.3l4.5,0L576.3,233z
			 M586.1,233l10.7,0v-2.3l-8.2,0v-3.9l7.2,0v-2.3l-7.2,0l0-3.7l8.1,0v-2.3l-10.6,0L586.1,233z M599.8,233h2.5v-5l3.2,0l3.5,5h3
			l-3.9-5.4c2-0.6,3.4-2,3.4-4.3v0c0-1.3-0.4-2.3-1.2-3.1c-0.9-0.9-2.3-1.4-4.1-1.4h-6.4L599.8,233z M602.3,225.8V221l3.7,0
			c1.9,0,3,0.8,3,2.4v0c0,1.5-1.1,2.4-3,2.4H602.3z M614.8,233h2.5l0-14.3h-2.5L614.8,233z M621.1,233h2.5l0-10.2l7.9,10.2l2.1,0
			v-14.3l-2.5,0l0,9.9l-7.7-9.9h-2.3L621.1,233z M644.1,233.3c2.5,0,4.6-1,6-2.2l0-6l-6.1,0v2.2l3.7,0l0,2.7
			c-0.9,0.7-2.1,1.1-3.5,1.1c-2.9,0-4.9-2.2-4.9-5.1v0c0-2.7,2-5.1,4.7-5.1c1.8,0,2.9,0.6,4,1.5l1.6-1.9c-1.5-1.2-3-1.9-5.5-1.9
			c-4.3,0-7.4,3.4-7.4,7.4v0C636.7,230.1,639.6,233.3,644.1,233.3z"/>
	</g>
	<g>
		<polygon class="st3" points="290.2,263.3 426.8,263.3 423.8,320.9 292.4,320.9 		"/>
		<path class="st1" d="M328.2,313.2h-1.7l4.9-11.4h1.5l4.9,11.4H336l-1.2-2.8h-5.4L328.2,313.2z M330,309h4.3l-2.1-5.3L330,309z
			 M344.9,303.3h3.6v-1.5h-8.9v1.5h3.6v10h1.6v-10H344.9z M355.4,301.8h-2.5v11.4h1.6v-9.6l0,0l3.7,9.6h1.1l3.7-9.6l0,0v9.6h1.6
			v-11.4H362l-3.3,8.8l0,0L355.4,301.8z M380.6,307.5c0,0.8-0.1,1.6-0.4,2.3c-0.3,0.7-0.7,1.3-1.2,1.9c-0.5,0.5-1.1,0.9-1.9,1.2
			c-0.7,0.3-1.5,0.4-2.3,0.4c-0.8,0-1.6-0.1-2.3-0.4c-0.7-0.3-1.3-0.7-1.9-1.2c-0.5-0.5-0.9-1.1-1.2-1.9c-0.3-0.7-0.4-1.5-0.4-2.3
			c0-0.8,0.1-1.6,0.4-2.3s0.7-1.3,1.2-1.7c0.5-0.5,1.1-0.9,1.9-1.2c0.7-0.3,1.5-0.4,2.3-0.4c0.8,0,1.6,0.1,2.3,0.4
			c0.7,0.3,1.3,0.7,1.9,1.2c0.5,0.5,0.9,1.1,1.2,1.7S380.6,306.7,380.6,307.5 M379,307.5c0-0.5-0.1-1.2-0.3-1.7
			c-0.1-0.5-0.5-0.9-0.8-1.3c-0.4-0.4-0.8-0.7-1.3-0.9c-0.5-0.3-1.1-0.4-1.7-0.4c-0.7,0-1.2,0.1-1.7,0.4c-0.5,0.3-0.9,0.5-1.3,0.9
			c-0.4,0.4-0.7,0.8-0.8,1.3c-0.1,0.5-0.3,1.1-0.3,1.7c0,0.7,0.1,1.2,0.3,1.7c0.1,0.5,0.5,0.9,0.8,1.3c0.4,0.4,0.8,0.7,1.3,0.9
			c0.5,0.3,1.1,0.4,1.7,0.4s1.2-0.1,1.7-0.4c0.5-0.3,0.9-0.5,1.3-0.9c0.4-0.4,0.7-0.8,0.8-1.3C378.9,308.7,379,308.2,379,307.5
			 M391.4,303.1c-0.4-0.4-0.8-0.7-1.3-0.9c-0.5-0.3-1.2-0.4-1.7-0.4c-0.4,0-0.9,0-1.3,0.1c-0.4,0.1-0.8,0.3-1.2,0.5
			c-0.4,0.3-0.7,0.5-0.8,0.9c-0.3,0.4-0.3,0.8-0.3,1.3s0.1,0.9,0.3,1.2c0.1,0.4,0.4,0.7,0.7,0.8c0.3,0.3,0.5,0.4,0.9,0.5
			c0.4,0.1,0.7,0.3,1.1,0.4c0.4,0.1,0.7,0.3,0.9,0.3c0.3,0.1,0.5,0.3,0.8,0.4c0.3,0.1,0.4,0.4,0.5,0.5c0.1,0.3,0.3,0.5,0.3,0.8
			c0,0.3-0.1,0.7-0.3,0.8c-0.1,0.3-0.3,0.4-0.5,0.5c-0.3,0.1-0.4,0.3-0.7,0.4c-0.3,0.1-0.5,0.1-0.8,0.1c-0.5,0-0.9-0.1-1.3-0.4
			c-0.4-0.3-0.8-0.5-1.1-0.9l-1.2,0.9c0.4,0.5,0.9,0.9,1.6,1.2s1.3,0.4,2,0.4c0.5,0,0.9,0,1.5-0.1c0.4-0.1,0.8-0.4,1.2-0.7
			c0.4-0.3,0.7-0.7,0.8-1.1c0.3-0.4,0.3-0.9,0.3-1.5c0-0.5-0.1-0.9-0.3-1.3s-0.4-0.7-0.8-0.9c-0.3-0.3-0.7-0.4-1.1-0.5
			c-0.4-0.1-0.8-0.3-1.1-0.4c-0.3-0.1-0.5-0.3-0.8-0.3c-0.3-0.1-0.5-0.3-0.7-0.4c-0.1-0.1-0.4-0.3-0.5-0.5c-0.1-0.1-0.1-0.4-0.1-0.8
			c0-0.3,0-0.5,0.1-0.8c0.1-0.3,0.3-0.4,0.5-0.5c0.3-0.1,0.4-0.3,0.7-0.3c0.3-0.1,0.5-0.1,0.8-0.1c0.4,0,0.9,0.1,1.2,0.3
			c0.4,0.1,0.7,0.4,0.9,0.7L391.4,303.1z M292.6,290.5h3.7c6.9,0,12.5-5.6,12.5-12.5s-5.6-12.5-12.5-12.5h-3.7V290.5z M329.2,265.5
			h-3.7c-6.9,0-12.5,5.6-12.5,12.5s5.6,12.5,12.5,12.5h3.7V265.5z M346.7,265.5h-9v25h9c6.9,0,12.5-5.6,12.5-12.5
			S353.6,265.5,346.7,265.5 M346.7,286.7h-2.5h-2.7v-17.4h2.7h2.5c4.8,0,8.6,3.9,8.6,8.6C355.5,282.8,351.5,286.7,346.7,286.7
			 M370.8,273.2c-4.8,0-8.6,3.9-8.6,8.6s3.9,8.6,8.6,8.6c4.8,0,8.6-3.9,8.6-8.6S375.6,273.2,370.8,273.2 M370.8,287.1
			c-2.9,0-5.2-2.4-5.2-5.2c0-2.9,2.4-5.2,5.2-5.2c2.9,0,5.2,2.4,5.2,5.2C376.1,284.7,373.7,287.1,370.8,287.1 M383,290.5h3.7v-25
			H383V290.5z M399.6,273.2c-1.9,0-3.6,0.5-4.9,1.6v-9.3h-3.9v25h3.9v-1.6c1.5,0.9,3.1,1.6,4.9,1.6c4.8,0,8.6-3.9,8.6-8.6
			S404.4,273.2,399.6,273.2 M399.6,287.1c-2.3,0-4.3-1.5-4.9-3.6c-0.1-0.5-0.3-1.1-0.3-1.6s0.1-1.2,0.3-1.6c0.7-2.1,2.7-3.6,4.9-3.6
			c2.9,0,5.2,2.4,5.2,5.2C404.9,284.7,402.5,287.1,399.6,287.1 M422.2,273.2l-4.9,11l-4.9-11h-4.1l7,15.7l-0.1,0.3v0.1l-1.5,3.5l0,0
			c-0.4,1.1-1.6,1.5-2.7,1.1l-0.5-0.3l-1.1,2.4l-0.5,1.1l0,0l0,0l1.3,0.5c2.5,1.1,5.3,0,6.5-2.5c0,0,8.9-20.1,9.8-21.9h-4.4
			L422.2,273.2L422.2,273.2z"/>
	</g>
</g>
</svg>
