<?xml version="1.0" encoding="utf-8"?>
<!-- Generator: Adobe Illustrator 24.1.1, SVG Export Plug-In . SVG Version: 6.00 Build 0)  -->
<svg version="1.1" id="Layer_1" xmlns="http://www.w3.org/2000/svg" xmlns:xlink="http://www.w3.org/1999/xlink" x="0px" y="0px"
	 width="36.4px" height="36.4px" viewBox="0 0 36.4 36.4" style="enable-background:new 0 0 36.4 36.4;" xml:space="preserve">
<style type="text/css">
	.st0{fill:#FFFFFF;stroke:#000000;stroke-miterlimit:10;}
</style>
<ellipse class="st0" cx="18.2" cy="18.2" rx="17.7" ry="17.7"/>
<path d="M18.2,11.7c0.6,0,1.1,0.5,1.1,1.1v11c0,0.6-0.5,1.1-1.1,1.1s-1.1-0.5-1.1-1.1v-11C17.1,12.2,17.6,11.7,18.2,11.7z"/>
<path d="M18.1,11.7c0.3,0,0.6,0.1,0.8,0.3l5.4,5.4c0.4,0.4,0.4,1.2,0,1.6c-0.4,0.4-1.2,0.4-1.6,0l-4.6-4.6L13.5,19
	c-0.4,0.4-1.2,0.4-1.6,0c-0.4-0.4-0.4-1.2,0-1.6l5.4-5.4C17.5,11.8,17.8,11.7,18.1,11.7z"/>
</svg>
