<?xml version="1.0" encoding="utf-8"?>
<!-- Generator: Adobe Illustrator 24.1.1, SVG Export Plug-In . SVG Version: 6.00 Build 0)  -->
<svg version="1.1" id="Layer_1" xmlns="http://www.w3.org/2000/svg" xmlns:xlink="http://www.w3.org/1999/xlink" x="0px" y="0px"
	 width="42.3px" height="42.3px" viewBox="0 0 42.3 42.3" style="enable-background:new 0 0 42.3 42.3;" xml:space="preserve">
<style type="text/css">
	.st0{fill:#FFFFFF;stroke:#000000;stroke-width:1.1615;stroke-miterlimit:10;}
</style>
<ellipse class="st0" cx="21.1" cy="21.1" rx="20.6" ry="20.6"/>
<path d="M21.1,13.6c0.7,0,1.3,0.6,1.3,1.3v12.8c0,0.7-0.6,1.3-1.3,1.3s-1.3-0.6-1.3-1.3V14.9C19.9,14.2,20.4,13.6,21.1,13.6z"/>
<path d="M21,13.6c0.3,0,0.7,0.1,0.9,0.3l6.3,6.3c0.5,0.5,0.5,1.4,0,1.9s-1.4,0.5-1.9,0L21,16.7l-5.3,5.3c-0.5,0.5-1.4,0.5-1.9,0
	c-0.5-0.5-0.5-1.4,0-1.9l6.3-6.3C20.3,13.7,20.7,13.6,21,13.6z"/>
</svg>
