<?xml version="1.0" encoding="utf-8"?>
<!-- Generator: Adobe Illustrator 16.0.3, SVG Export Plug-In . SVG Version: 6.00 Build 0)  -->
<!DOCTYPE svg PUBLIC "-//W3C//DTD SVG 1.1//EN" "http://www.w3.org/Graphics/SVG/1.1/DTD/svg11.dtd">
<svg version="1.1" xmlns="http://www.w3.org/2000/svg" xmlns:xlink="http://www.w3.org/1999/xlink" x="0px" y="0px"
	 width="276.697px" height="317.033px" viewBox="12 -15.334 276.697 317.033" enable-background="new 12 -15.334 276.697 317.033"
	 xml:space="preserve">
<g id="Capa_2">
</g>
<g id="Layer_1">
	<g>
		<path fill="#FFFFFF" d="M134.832,71.89c-2.869,0.439-7.726,1.767-9.491,4.084c-0.552,0.662-0.772,1.434-0.662,2.207
			c0,0.109,0,0.219,0.11,0.331c-2.428,2.537-6.732,6.622-12.36,6.622c-1.766,0-3.421-1.436-4.083-2.429
			c2.428-0.22,4.746-1.875,5.628-3.752c0.332-0.882,0.221-1.874-0.331-2.646c-0.662-0.993-1.987-1.656-3.2-1.656
			c-2.759,0.111-4.635,2.208-5.298,4.636c-2.207,1.435-6.622,3.312-8.167,3.312c-0.662,0-1.325-0.222-2.097-0.664
			c-0.773-0.663-1.214-1.876-1.545-2.98c-0.221-0.552-0.332-1.104-0.663-1.543c-0.331-0.552-1.214-1.104-1.876-1.216
			c-0.441-0.111-0.663,0-0.883,0.112l-5.628,4.524c-0.11-0.552-0.221-0.992-0.331-1.435c-0.221-1.104-0.442-2.097-0.883-3.201v-0.11
			c-0.552-0.771-1.875-1.654-2.648-1.214c-2.538,1.214-4.525,3.422-6.511,5.519c0-0.553,0-1.104,0.11-1.544
			c0-0.663,0.11-1.437,0.11-2.208c0.11-0.442-0.221-0.885-0.662-1.324c-0.442-0.44-1.214-0.773-1.766-0.663
			c-0.332,0.111-0.552,0.332-0.552,0.663c-0.111,0.439-0.111,0.993-0.221,1.434c-0.22,0-0.441,0-0.552,0c-0.22,0-0.552,0-0.993,0
			c-1.104,0.112-2.98,0.222-4.966,0.222c-1.655,0-3.09-0.111-4.525-0.222c-1.104-1.213-2.538-1.985-4.304-2.207
			c-1.545-0.109-2.097,0.773-2.318,1.545h-0.11c-0.883,0.331-1.766,1.324-2.428,2.76c-3.2,2.647-7.284,5.297-11.809,5.628
			c-1.324,0-2.318-0.44-2.979-1.213c-0.552-0.773-0.773-1.656-0.552-2.87c0.331-1.325,1.213-2.648,2.317-3.423
			c0.442-0.332,1.214-0.663,1.987-0.553c-0.11,0.441-0.221,0.664-0.332,0.883c-0.331,0.664-0.22,1.104,0,1.325
			c0.332,0.331,0.773,0.331,1.325,0.221c0.552-0.221,2.207-0.771,2.207-2.207c-0.11-0.772-0.772-1.656-1.655-2.208
			c-0.772-0.44-1.655-0.662-2.538-0.662c-1.325,0-2.539,0.439-3.752,1.321c-1.545,1.217-2.428,2.98-2.428,4.967
			c-0.111,1.768,0.552,3.423,1.766,4.748c1.435,1.435,3.642,2.316,5.849,2.316c4.525-0.22,7.946-1.985,10.263-3.973
			c0.552,1.765,2.208,3.642,4.525,3.75c0.221,0,0.332,0,0.552,0c3.091,0,5.518-1.987,6.07-4.966c0.11-0.773,0.11-1.543,0-2.318
			c3.862,0.111,7.615-0.44,9.05-0.884c0.11,0,0.22-0.111,0.331-0.111c0,0.663-0.11,1.436-0.11,2.096c0,0.884,0.11,1.875,0.11,2.76
			v0.11c0.221,0.771,1.325,1.655,2.097,1.986c0.111,0,0.332,0.112,0.442,0.112c0.221,0,0.441-0.112,0.552-0.222
			c0.993-0.883,1.876-1.985,2.869-3.09c1.214-1.436,2.428-2.979,4.083-4.083c0.552,2.207,0.883,3.532,1.435,4.855
			c0.442,0.884,1.876,1.654,2.759,1.215c1.655-1.104,3.09-2.208,5.739-4.415c0.221,0.441,0.441,0.884,0.773,1.436
			c0.552,0.771,1.213,1.544,2.317,2.207c1.325,0.884,2.98,1.324,4.525,1.324c2.428,0,4.966-1.324,6.843-2.647
			c0,0.111,0,0.221,0.11,0.221c1.324,3.975,5.959,4.746,9.16,4.746c0.441,0,0.773,0,1.104,0c4.194-0.219,8.498-3.09,10.485-7.063
			c0.552,0.439,1.104,0.772,1.766,1.104c0.221,0.11,0.552,0.221,0.772,0.439c0.883,0.44,2.097,1.104,3.421,1.768
			c0.221,0.11,0.552,0.221,0.772,0.439c-1.545,0.222-3.421,0.441-4.966,0.441c-0.772,0-1.436-0.111-1.987-0.22
			c-0.993-0.222-1.324,0.331-1.324,0.552c-0.221,0.664,0.331,1.655,0.993,1.986c0.994,0.333,2.539,0.552,4.194,0.552
			c1.766,0,3.421-0.219,4.524-0.552c1.214-0.331,2.097-1.215,2.318-2.207c0.221-0.771-0.111-1.436-0.773-1.986
			c-0.993-0.772-2.428-1.543-4.193-2.539c-0.441-0.22-0.883-0.552-1.435-0.771c-0.221-0.11-0.441-0.221-0.552-0.332
			c-0.772-0.44-1.766-0.992-1.545-1.435c0.441-0.993,3.862-1.987,6.18-2.648c0.884-0.221,1.766-0.439,2.429-0.662h0.11l0.109-0.112
			c0.222-0.331,0.332-0.772,0-1.215C136.708,72.331,135.714,71.779,134.832,71.89L134.832,71.89z M54.71,78.622
			c0.772,0.44,1.876,0.771,3.2,0.993c0.441,1.104,0.221,2.538-0.441,3.642c-0.552,0.993-1.435,1.437-2.428,1.545
			c-0.882,0-1.434-0.332-1.766-2.097C52.944,81.271,53.937,79.284,54.71,78.622L54.71,78.622z M111.214,77.629
			c-0.11,0.553-1.214,1.543-2.869,2.427c0.331-0.991,1.214-2.207,2.097-2.647c0.11-0.112,0.22-0.112,0.331-0.112
			C110.994,77.408,111.104,77.518,111.214,77.629L111.214,77.629L111.214,77.629z"/>
		<path fill="#FFFFFF" d="M196.301,62.288L196.301,62.288c-0.331-0.552-0.99-1.213-1.766-1.544
			c-2.097-0.438-5.298-0.663-9.381-0.663c-5.63,0-12.029,0.442-17.218,0.772l-1.765,0.11c-0.442,0-0.885,0.112-1.324,0.112
			c0.221-5.187,0.662-9.713,1.104-12.581v-0.111v-0.112c-0.222-1.104-1.545-1.655-2.429-1.543c-0.662,0.11-1.104,0.438-0.991,0.991
			c-0.223,4.304-0.553,8.94-0.773,13.463c-7.836,0.663-12.25,1.104-16.555,1.986c-0.552,0.112-0.771,0.553-0.771,0.994
			c0.11,0.773,1.323,1.655,2.317,1.543c4.746-0.771,9.381-1.215,14.235-1.656h0.552c-0.222,3.424-0.33,6.955-0.33,10.046
			c-0.109,2.207-0.109,5.738-0.109,9.602c0,8.496,0.219,18.428,0.992,20.636c0.33,0.992,1.434,2.097,2.318,2.097
			c0.11,0,0.11,0,0.219,0c0.222,0,0.664-0.221,0.552-1.216c-0.662-2.539-1.104-7.725-1.104-15.562c0-3.974,0.112-7.946,0.223-11.478
			c0-1.544,0.111-2.979,0.111-4.303l0.439-10.264c0.33,0,0.662-0.112,0.992-0.112l1.216-0.11c4.966-0.441,11.698-0.884,17.987-0.884
			c4.305,0,7.615,0.221,10.153,0.771c0.438,0,0.771,0,0.991-0.332c0.223-0.22,0.332-0.552,0.223-0.882L196.301,62.288
			L196.301,62.288z"/>
		<path fill="#FFFFFF" d="M189.351,76.966c-0.22,0-0.552,0-0.994,0c-1.104,0.112-2.978,0.221-4.966,0.221
			c-1.655,0-3.09-0.111-4.523-0.221c-1.104-1.214-2.539-1.986-4.306-2.206c-1.543-0.111-2.095,0.771-2.317,1.544h-0.109
			c-1.655,0.552-3.422,3.862-2.98,6.731c0.332,1.986,2.096,4.083,4.637,4.194c0.219,0,0.33,0,0.551,0
			c3.091,0,5.519-1.986,6.07-4.966c0.11-0.771,0.11-1.543,0-2.318c3.862,0.111,7.613-0.441,9.047-0.883
			c0.553-0.222,1.769-0.664,1.656-1.437C190.895,76.966,189.681,76.966,189.351,76.966L189.351,76.966z M174.008,84.802
			c-0.883,0-1.434-0.333-1.766-2.098c-0.221-1.544,0.771-3.421,1.436-4.083c0.771,0.441,1.876,0.771,3.199,0.993
			c0.438,1.104,0.221,2.538-0.44,3.642C175.776,84.251,175.004,84.802,174.008,84.802L174.008,84.802z"/>
		<path fill="#48AC33" d="M224.997,70.566c0.33,0.221,0.771,0.332,1.104,0.332c0.33,0,0.771-0.111,0.991-0.44
			c0.111-0.221,0.441-0.993,0.664-1.768l0.111-0.332c0.219-0.44,0.219-0.882,0.219-1.213c0-0.222,0-0.333-0.11-0.552
			c-0.22-0.442-0.771-0.773-1.437-0.886c-0.552-0.219-1.215-0.219-1.654,0c-0.221,0.112-0.331,0.333-0.331,0.553l-0.11,0.885
			c0,0.109-0.111,0.219-0.111,0.438c-0.113,0.331-0.332,0.993-0.44,1.216c-0.222,0.22-0.222,0.44-0.222,0.662
			C224.002,70.014,224.445,70.456,224.997,70.566L224.997,70.566z"/>
		<path fill="#FFFFFF" d="M272.563,77.408c-0.553-0.331-1.215,0.331-1.545,0.663c-2.428,2.427-6.842,7.063-12.803,7.063
			c-1.768,0-3.422-1.436-4.084-2.429c2.429-0.22,4.746-1.875,5.631-3.752c0.33-0.882,0.22-1.874-0.332-2.646
			c-0.663-0.993-1.987-1.656-3.201-1.656c-2.316,0.111-3.973,1.543-4.854,3.422c-3.531,0.221-8.941,0.441-10.045,0.331
			c0.111-3.75,1.104-15.89,1.545-18.32c0.221-0.663-0.441-1.545-1.215-1.876c-0.552-0.331-1.104-0.331-1.437-0.221
			c-0.22,0.108-0.44,0.329-0.44,0.549c-0.552,2.648-1.545,15.12-1.654,18.872v0.663l-0.994-0.221
			c-0.773-0.22-1.215,0.221-1.325,0.552c-0.108,0.441,0.112,0.885,0.442,1.325c-2.869,2.096-6.731,4.415-9.381,4.415
			c-0.662,0-1.215-0.222-1.547-0.44c-0.66-0.664,0.336-7.173,0.887-7.837l0.111-0.111v-0.11c0.11-0.553-0.441-1.215-1.322-1.543
			c-0.332-0.112-1.217-0.221-1.656,0.11c-0.112,0.112-0.221,0.222-0.331,0.331c-0.664,1.104-1.104,3.093-1.104,5.188
			c0,0.111,0,0.111,0,0.221c-6.955,8.718-9.601,8.608-10.373,8.056c-0.553-0.33-1.767-2.095-1.767-10.705
			c0-11.146,1.874-26.153,2.207-27.258V49.93c0-0.553-0.771-1.216-1.437-1.543c-0.553-0.222-0.99-0.222-1.322-0.112
			c-0.221,0.112-0.334,0.331-0.442,0.552c-0.886,2.87-2.651,16.444-2.651,26.929c0,6.07,0.553,10.043,1.769,11.919l0,0
			c1.435,1.987,3.422,3.092,5.405,3.092c3.199,0,6.844-3.863,8.941-7.063c0.221,0.663,0.553,1.215,0.881,1.543
			c1.326,1.436,3.094,1.769,4.527,1.769c0.111,0,0.221,0,0.332,0c3.42-0.112,7.393-2.871,9.82-5.188
			c-0.221,2.98-0.332,5.739-0.332,8.388c0,9.934,1.654,16.443,4.966,19.202c0.112,0.111,0.222,0.222,0.333,0.222
			c0.771,0.438,1.545,0.552,2.097,0.552c0.771,0,1.323-0.221,1.655-0.441c0.771-0.552,1.434-1.545,1.875-2.759
			c0.662-1.767,1.104-4.195,1.104-7.173c0-0.773,0-1.546-0.109-2.428c-0.334-3.975-1.325-7.946-3.094-11.258
			c-1.104-1.874-2.094-3.421-3.641-4.854c0.439,0,0.992,0,1.544,0c1.876,0,4.194-0.112,6.183-0.331c0,0.552,0.11,1.215,0.33,1.875
			c1.324,3.975,5.959,4.747,9.16,4.747c0.441,0,0.771,0,1.104,0c4.303-0.221,8.718-3.2,10.595-7.285
			C273.333,77.96,272.782,77.518,272.563,77.408L272.563,77.408z M257,77.629c-0.11,0.331-0.439,0.771-1.215,1.322
			c0.221-0.331,0.221-0.552,0.111-0.771c0-0.112-0.111-0.333-0.332-0.442c0.221-0.11,0.332-0.22,0.553-0.331
			c0.108-0.112,0.221-0.112,0.33-0.112C256.779,77.408,256.891,77.518,257,77.629C257,77.518,257,77.629,257,77.629L257,77.629z
			 M241.22,82.705c1.104,1.104,2.097,2.428,2.76,3.862c1.875,3.532,2.427,7.506,2.647,10.044c0.11,0.992,0.11,1.988,0.11,2.871
			c0,2.428-0.331,4.414-0.884,5.85c-0.439,1.436-0.991,1.875-1.322,1.986c-0.111,0-0.221,0-0.332,0l-0.113-0.111
			c-2.094-2.647-3.197-8.166-3.197-16.222C240.777,88.114,240.889,85.135,241.22,82.705L241.22,82.705L241.22,82.705z"/>
		<path fill="#FFFFFF" d="M61-15.295c-0.11,0-0.441,0.222-0.441,0.552c-0.331,0.663,0,1.543,0.552,2.208
			c5.077,5.188,5.628,16.442,5.628,21.079c0,3.423-0.221,6.734-0.663,9.271c-2.207,12.14-8.387,24.831-15.45,24.831
			c-0.11,0-0.11,0-0.221,0c-5.959-0.552-9.049-7.614-9.822-12.251c1.987-7.504,2.759-14.566,2.648-18.43
			c-0.11-3.422-1.435-6.291-3.2-6.953c-0.883-0.331-1.656,0-2.428,0.772c-0.994,1.216-1.655,4.634-1.655,9.493
			c0,4.193,0.552,9.048,1.434,13.462c-2.317,7.063-7.946,14.347-12.691,13.795c-5.739-0.663-8.829-8.056-9.491-15.229
			c-0.11-1.543-0.22-3.199-0.22-4.747c0-10.042,2.648-20.196,5.187-23.396c0.332-0.332,0.221-1.436-0.11-1.876
			c-0.221-0.331-0.552-0.44-0.993-0.22C14.98-0.838,12,11.412,12,21.124c0,2.208,0.11,4.526,0.441,6.733
			c1.655,13.021,8.167,17.877,13.575,18.099c0.11,0,0.11,0,0.22,0c6.18,0,10.484-6.953,12.802-11.809
			c3.311,9.713,9.27,11.478,11.809,11.809c0.331,0,0.552,0,0.883,0c6.401,0,14.236-8.276,16.996-27.039
			c0.441-2.648,0.662-5.738,0.662-9.271c0-5.188-0.662-17.878-7.063-24.391C61.773-15.295,61.332-15.406,61-15.295z M40.363,12.516
			c0.11,2.538-0.331,6.622-1.214,10.924c-0.332-2.428-0.441-4.747-0.441-6.954c0-3.863,0.552-6.401,1.104-8.056
			C40.252,9.536,40.473,11.743,40.363,12.516L40.363,12.516L40.363,12.516L40.363,12.516z"/>
		<path fill="#FFFFFF" d="M135.494,17.371c-3.2-0.552-7.283,2.207-9.381,4.415v-1.325c0-0.552-0.551-1.321-1.214-1.767
			c-0.662-0.331-1.213-0.331-1.545-0.111c-0.22,0.111-0.331,0.332-0.331,0.663c-0.111,0.993-0.221,1.876-0.332,2.648
			c-2.428,2.539-6.731,6.954-12.691,6.954c-1.766,0-3.421-1.437-4.083-2.429c2.428-0.22,4.745-1.875,5.628-3.752
			c0.331-0.882,0.22-1.874-0.332-2.646c-0.662-0.992-1.986-1.655-3.2-1.655c-3.09,0.111-5.077,2.759-5.408,5.406
			c-2.87,1.655-6.842,2.979-9.16,2.979c-0.662,0-1.213-0.11-1.655-0.332c-0.221-0.992-0.11-1.875-0.11-2.759
			c0-0.771,0.11-1.435,0-2.207c-0.332-0.993-1.436-1.875-2.428-2.096c-3.752-1.215-8.829,3.532-10.706,5.407V20.24
			c0.11-8.609,0.221-16.774,1.104-25.051c0-0.993-1.434-1.656-2.317-1.656c-0.773,0-0.994,0.44-0.994,0.772
			c-0.331,6.955-0.662,15.23-0.662,24.722v9.05c0,1.655,0,1.987,0.11,2.208c0.221,0.883,1.435,1.655,2.207,1.655
			c0.11,0,0.11,0,0.221,0c0.441-0.11,0.662-0.441,0.662-0.772c0.331-3.198,6.622-8.608,9.711-9.05c0,0.112,0,0.112,0,0.221
			c0,0.441-0.11,0.884-0.11,1.436c0,1.988,0.662,3.423,1.987,4.415c1.435,0.885,2.87,1.324,4.525,1.324
			c2.979,0,6.18-1.215,8.277-2.647c1.434,3.642,5.849,4.415,9.049,4.415c0.441,0,0.773,0,1.104,0
			c3.421-0.221,6.842-2.096,9.05-4.854c-0.111,2.316,0,2.868,0.11,3.199c0.22,0.882,1.545,1.655,2.317,1.655
			c0.111,0,0.111,0,0.221,0c0.441-0.112,0.662-0.333,0.662-0.773c0.111-0.439,0.111-0.882,0.111-1.215
			c0.109-0.771,0.109-1.104,0.22-1.435c1.436-3.975,6.07-7.505,9.051-7.836c0,0.331,0.22,0.772,0.551,0.883
			c0.441,0.221,1.215,0.111,1.986-0.662c0.222-0.221,0.332-0.664,0.11-1.104C137.59,18.365,136.819,17.592,135.494,17.371
			L135.494,17.371z M106.248,23.11c0.441-0.882,1.104-1.765,1.876-1.986c0.11-0.111,0.221-0.111,0.331-0.111
			c0.221,0,0.331,0.111,0.441,0.221c0,0,0,0,0,0.112c-0.11,0.552-1.214,1.543-2.869,2.426
			C106.028,23.552,106.138,23.331,106.248,23.11L106.248,23.11z"/>
		<path fill="#FFFFFF" d="M166.064,21.124c-0.552-0.331-1.215,0.331-1.544,0.663c-2.43,2.427-6.844,7.063-12.803,7.063
			c-1.768,0-3.422-1.436-4.084-2.429c2.429-0.22,4.746-1.875,5.631-3.751c0.326-0.883,0.22-1.875-0.332-2.647
			c-0.663-0.992-1.987-1.655-3.201-1.655c-3.421,0.111-5.406,3.312-5.406,6.181c0,0.664,0.11,1.323,0.332,1.986
			c1.322,3.976,5.959,4.748,9.159,4.748c0.438,0,0.771,0,1.104,0c4.302-0.221,8.717-3.2,10.595-7.286
			C166.834,21.565,166.284,21.234,166.064,21.124L166.064,21.124z M150.502,21.345c-0.109,0.552-1.215,1.543-2.869,2.426
			c0.332-0.991,1.214-2.207,2.098-2.647c0.109-0.111,0.221-0.111,0.331-0.111C150.284,21.013,150.393,21.124,150.502,21.345
			C150.502,21.234,150.502,21.234,150.502,21.345L150.502,21.345z"/>
		<path fill="#FFFFFF" d="M243.206,15.827c-2.869,0.439-7.725,1.765-9.379,4.082c-0.554,0.664-0.775,1.438-0.664,2.207
			c0,0.333,0.11,0.664,0.332,0.993c-3.091,2.759-5.961,4.194-8.721,4.303c-1.32-0.11-1.766-1.214-2.094-2.759
			c0-1.104,0.113-2.096,0.113-2.539c0.109-0.883-1.104-1.875-1.987-1.986c-0.771-0.11-1.104,0.221-1.216,0.663
			c-0.439,1.768-3.094,6.182-5.301,7.063c-0.553,0.22-0.99,0.22-1.434-0.111c-0.439-0.332-0.773-1.104-0.773-2.208
			c0-1.544,0.551-3.2,1.217-3.643c0.222-0.221,0.438-0.441,0.438-0.663c0-0.332-0.109-0.663-0.438-0.993
			c-0.666-0.663-1.543-1.104-2.207-0.884c-0.771,0.221-1.217,0.993-1.543,1.544c-0.223,0.332-0.332,0.663-0.441,0.992
			c-0.221,0-0.441,0.11-0.552,0.332c-0.772,1.323-7.505,4.415-9.49,4.415c-0.665,0-1.326-0.222-2.099-0.664
			c-0.771-0.663-1.213-1.875-1.545-2.979c-0.221-0.552-0.33-1.104-0.662-1.544c-0.332-0.552-1.213-1.104-1.875-1.215
			c-0.441-0.111-0.663,0-0.883,0.111l-5.629,4.524c-0.113-0.552-0.223-0.992-0.332-1.435c-0.22-1.104-0.441-2.097-0.885-3.2V20.13
			c-0.552-0.771-1.873-1.654-2.646-1.214c-2.538,1.214-4.526,3.422-6.512,5.519c0-0.553,0-1.104,0.11-1.544
			c0-0.663,0.11-1.437,0.11-2.208c0.113-0.439-0.219-0.885-0.662-1.324c-0.439-0.44-1.215-0.771-1.766-0.663
			c-0.332,0.111-0.553,0.332-0.553,0.663c-0.332,1.876-0.441,3.751-0.441,5.518c0,0.886,0.111,1.876,0.111,2.76v0.11
			c0.221,0.772,1.324,1.655,2.096,1.986c0.111,0,0.332,0.111,0.441,0.111c0.221,0,0.441-0.111,0.553-0.22
			c0.994-0.885,1.875-1.988,2.869-3.092c1.215-1.435,2.43-2.978,4.084-4.082c0.553,2.208,0.883,3.53,1.434,4.854
			c0.441,0.883,1.878,1.654,2.76,1.216c1.654-1.104,3.091-2.208,5.74-4.415c0.22,0.438,0.439,0.882,0.771,1.435
			c0.552,0.772,1.214,1.543,2.317,2.207c1.324,0.884,2.98,1.325,4.525,1.325c3.311,0,6.733-2.319,8.39-4.084
			c0.112,0.44,0.221,0.992,0.331,1.436c0.771,2.317,3.092,4.083,5.406,4.083c2.539,0,4.303-1.875,5.631-3.642
			c1.104,1.986,3.091,3.199,5.406,3.199c4.193,0.22,7.612-2.759,9.269-5.298c0.331,0.221,0.771,0.441,1.216,0.663
			c0.219,0.111,0.553,0.221,0.771,0.44c0.885,0.442,2.096,1.104,3.424,1.767c0.22,0.111,0.552,0.221,0.771,0.44
			c-1.543,0.221-3.423,0.442-4.966,0.442c-0.771,0-1.438-0.112-1.988-0.222c-0.99-0.221-1.322,0.331-1.322,0.553
			c-0.219,0.663,0.332,1.654,0.992,1.985c0.993,0.332,2.537,0.553,4.192,0.553c1.769,0,3.424-0.221,4.526-0.553
			c1.217-0.331,2.096-1.214,2.32-2.208c0.219-0.771-0.111-1.435-0.773-1.985c-0.991-0.772-2.428-1.544-4.303-2.538
			c-0.441-0.222-0.885-0.552-1.437-0.772c-0.22-0.111-0.44-0.221-0.552-0.331c-0.771-0.441-1.766-0.994-1.545-1.437
			c0.44-0.992,3.861-1.986,6.182-2.647c0.874-0.221,1.757-0.441,2.418-0.663h0.111l0.113-0.11c0.219-0.331,0.332-0.771,0-1.214
			C245.083,16.379,244.086,15.716,243.206,15.827L243.206,15.827z"/>
		<path fill="#48AC33" d="M255.568,14.391c0.332,0.221,0.771,0.333,1.104,0.333c0.332,0,0.771-0.112,0.992-0.441
			c0.11-0.221,0.44-0.994,0.662-1.767l0.11-0.333c0.222-0.439,0.222-0.882,0.222-1.214c0-0.221,0-0.331-0.111-0.553
			c-0.221-0.44-0.771-0.771-1.436-0.883c-0.552-0.221-1.214-0.221-1.654,0c-0.222,0.111-0.334,0.331-0.334,0.552l-0.109,0.884
			c0,0.11-0.11,0.221-0.221,0.44c-0.11,0.332-0.332,0.992-0.439,1.214c-0.221,0.222-0.221,0.441-0.221,0.663
			C254.463,13.73,255.016,14.172,255.568,14.391L255.568,14.391z"/>
		<path fill="#FFFFFF" d="M287.35,21.565c-3.422,3.092-8.165,6.622-13.465,6.955c-1.321,0-2.317-0.44-2.977-1.215
			c-0.553-0.773-0.773-1.656-0.553-2.87c0.33-1.325,1.215-2.648,2.318-3.423c0.439-0.331,1.214-0.663,1.988-0.553
			c-0.113,0.441-0.226,0.664-0.332,0.884c-0.334,0.662-0.222,1.104,0,1.323c0.332,0.332,0.771,0.332,1.321,0.222
			c0.552-0.222,2.207-0.772,2.207-2.207c-0.112-0.773-0.771-1.655-1.655-2.207c-0.771-0.441-1.654-0.663-2.537-0.663
			c-1.324,0-2.541,0.439-3.752,1.324c-0.992,0.771-1.654,1.875-2.097,2.979c-2.76,2.208-7.836,5.739-11.036,5.739
			c-0.662,0-1.214-0.222-1.545-0.441c-0.662-0.663,0.331-7.173,0.883-7.836l0.111-0.111V19.36c0.109-0.552-0.441-1.215-1.324-1.544
			c-0.439-0.112-1.216-0.221-1.656,0.111c-0.111,0.111-0.221,0.22-0.334,0.33c-0.66,1.104-1.104,3.093-1.104,5.188
			c0,2.427,0.553,4.526,1.546,5.518c1.324,1.436,3.091,1.769,4.524,1.769c0.111,0,0.222,0,0.334,0
			c3.197-0.112,6.951-2.648,9.38-4.855c0.218,1.104,0.771,2.208,1.655,3.09c1.436,1.436,3.643,2.319,5.85,2.319
			c7.611-0.439,12.025-5.187,13.355-7.614c0.438-0.771,0.221-1.766-0.222-2.097C288.013,21.345,287.68,21.345,287.35,21.565
			L287.35,21.565z"/>
	</g>
	<g>
		<rect x="148.668" y="168.605" fill="#48AC33" width="3.361" height="28.583"/>
		<rect x="148.668" y="205.575" fill="#48AC33" width="3.361" height="28.583"/>
	</g>
	<path fill="#FFFFFF" d="M117.505,301.698h-1.435l4.083-9.491h1.214l4.083,9.491h-1.545l-0.993-2.316h-4.524L117.505,301.698z
		 M118.94,298.171h3.532l-1.766-4.415L118.94,298.171z M131.3,293.422h2.979v-1.215h-7.394v1.215h2.979v8.276h1.324v-8.276H131.3z
		 M140.018,292.21h-2.096v9.489h1.325v-7.943l0,0l3.09,7.942h0.883l3.091-7.942l0,0v7.942h1.323v-9.491h-2.098l-2.76,7.284l0,0
		L140.018,292.21z M160.987,296.954c0,0.665-0.111,1.324-0.332,1.876c-0.22,0.553-0.552,1.104-0.992,1.547
		c-0.44,0.439-0.883,0.771-1.545,0.991c-0.552,0.222-1.216,0.331-1.875,0.331c-0.662,0-1.322-0.109-1.875-0.331
		c-0.552-0.221-1.104-0.552-1.545-0.989c-0.439-0.442-0.771-0.887-0.992-1.546c-0.22-0.553-0.332-1.214-0.332-1.877
		c0-0.661,0.112-1.323,0.332-1.876c0.221-0.552,0.553-1.104,0.992-1.435c0.441-0.438,0.883-0.773,1.545-0.991
		c0.553-0.221,1.215-0.334,1.875-0.334c0.659,0,1.323,0.113,1.875,0.334c0.553,0.218,1.104,0.554,1.545,0.991
		c0.44,0.441,0.772,0.883,0.992,1.435C160.875,295.629,160.987,296.294,160.987,296.954 M159.663,296.954
		c0-0.438-0.111-0.989-0.22-1.435c-0.108-0.444-0.44-0.772-0.663-1.104c-0.332-0.33-0.664-0.552-1.104-0.772
		c-0.441-0.221-0.885-0.33-1.436-0.33c-0.553,0-0.994,0.109-1.437,0.33c-0.442,0.222-0.771,0.442-1.104,0.772
		c-0.33,0.331-0.552,0.661-0.664,1.104c-0.109,0.441-0.219,0.883-0.219,1.435c0,0.553,0.109,0.993,0.219,1.436
		c0.112,0.44,0.441,0.771,0.664,1.104c0.332,0.331,0.663,0.553,1.104,0.772c0.438,0.221,0.884,0.331,1.437,0.331
		c0.551,0,0.991-0.11,1.436-0.331c0.439-0.221,0.771-0.438,1.104-0.772c0.33-0.331,0.553-0.662,0.663-1.104
		S159.663,297.507,159.663,296.954 M169.926,293.313c-0.334-0.331-0.662-0.552-1.104-0.773c-0.439-0.221-0.992-0.329-1.438-0.329
		c-0.328,0-0.77,0-1.104,0.108c-0.33,0.113-0.66,0.221-0.99,0.442c-0.33,0.221-0.553,0.44-0.664,0.771
		c-0.219,0.331-0.219,0.662-0.219,1.104c0,0.438,0.11,0.771,0.219,0.99c0.111,0.334,0.332,0.552,0.552,0.664
		c0.223,0.222,0.442,0.331,0.772,0.438c0.33,0.113,0.553,0.222,0.883,0.334c0.332,0.11,0.551,0.218,0.773,0.218
		c0.221,0.113,0.439,0.223,0.662,0.335c0.219,0.109,0.331,0.33,0.441,0.438c0.109,0.221,0.22,0.44,0.22,0.665
		c0,0.218-0.111,0.552-0.22,0.661c-0.112,0.221-0.224,0.331-0.441,0.441c-0.221,0.109-0.333,0.218-0.553,0.331
		c-0.221,0.109-0.439,0.109-0.661,0.109c-0.44,0-0.774-0.109-1.104-0.331c-0.33-0.221-0.662-0.441-0.883-0.772l-0.994,0.772
		c0.334,0.441,0.773,0.772,1.326,0.994c0.551,0.218,1.104,0.331,1.655,0.331c0.438,0,0.771,0,1.214-0.113
		c0.331-0.11,0.663-0.331,0.993-0.552c0.327-0.223,0.552-0.553,0.663-0.884c0.219-0.33,0.219-0.771,0.219-1.214
		c0-0.441-0.109-0.771-0.219-1.104c-0.109-0.333-0.334-0.552-0.663-0.772c-0.222-0.221-0.552-0.331-0.884-0.441
		c-0.332-0.109-0.664-0.222-0.885-0.331c-0.22-0.109-0.438-0.222-0.664-0.222c-0.219-0.108-0.438-0.221-0.552-0.33
		c-0.11-0.109-0.329-0.222-0.438-0.438c-0.112-0.113-0.112-0.334-0.112-0.665c0-0.221,0-0.438,0.112-0.661
		c0.111-0.224,0.221-0.333,0.438-0.441c0.222-0.109,0.333-0.222,0.552-0.222c0.223-0.109,0.442-0.109,0.664-0.109
		c0.332,0,0.772,0.109,0.991,0.222c0.333,0.109,0.552,0.33,0.774,0.552L169.926,293.313z M87.928,282.828h3.09
		c5.739,0,10.374-4.636,10.374-10.375c0-5.736-4.635-10.371-10.374-10.371h-3.09V282.828z M118.277,262.08h-3.09
		c-5.739,0-10.374,4.636-10.374,10.372c0,5.739,4.635,10.375,10.374,10.375h3.09V262.08z M132.845,262.08h-7.504v20.748h7.504
		c5.739,0,10.374-4.636,10.374-10.375C143.219,266.716,138.584,262.08,132.845,262.08 M132.845,279.627h-2.097h-2.207v-14.458h2.207
		h2.097c3.974,0,7.173,3.199,7.173,7.175C140.129,276.429,136.819,279.627,132.845,279.627 M152.821,268.481
		c-3.974,0-7.174,3.201-7.174,7.174c0,3.974,3.2,7.174,7.174,7.174c3.975,0,7.174-3.2,7.174-7.174
		C159.995,271.682,156.793,268.481,152.821,268.481 M152.821,279.961c-2.428,0-4.304-1.989-4.304-4.306
		c0-2.428,1.985-4.305,4.304-4.305c2.426,0,4.305,1.99,4.305,4.305C157.235,277.971,155.247,279.961,152.821,279.961
		 M162.972,282.828h3.092V262.08h-3.092V282.828z M176.767,268.481c-1.543,0-2.978,0.441-4.081,1.325v-7.727h-3.2v20.748h3.2v-1.324
		c1.215,0.772,2.538,1.324,4.081,1.324c3.976,0,7.174-3.2,7.174-7.174C183.941,271.681,180.743,268.481,176.767,268.481
		 M176.767,279.961c-1.874,0-3.529-1.218-4.081-2.979c-0.111-0.442-0.221-0.883-0.221-1.325c0-0.44,0.111-0.993,0.221-1.324
		c0.552-1.766,2.207-2.979,4.081-2.979c2.43,0,4.305,1.986,4.305,4.305C181.182,277.971,179.198,279.961,176.767,279.961
		 M195.529,268.481l-4.081,9.16l-4.084-9.16h-3.423l5.851,13.022l-0.109,0.222v0.109l-1.215,2.87l0,0
		c-0.33,0.884-1.322,1.215-2.207,0.884l-0.439-0.222l-0.883,1.986l-0.441,0.883l0,0l0,0l1.104,0.441
		c2.098,0.883,4.415,0,5.408-2.098c0,0,7.394-16.664,8.166-18.21h-3.645L195.529,268.481L195.529,268.481z"/>
	<path fill="#FFFFFF" d="M20.129,187.079h1.846v-3.38h2.087c2.312,0,4.205-1.229,4.205-3.589v-0.03c0-2.117-1.532-3.514-3.995-3.514
		h-4.144L20.129,187.079z M21.975,182.032v-3.783h2.145c1.384,0,2.27,0.646,2.271,1.876v0.029c0,1.094-0.872,1.875-2.27,1.875
		L21.975,182.032L21.975,182.032z M30.158,187.079h1.849v-3.663h2.313l2.583,3.661h2.191l-2.837-3.979
		c1.456-0.42,2.493-1.457,2.493-3.184v-0.028c-0.001-0.916-0.315-1.697-0.873-2.271c-0.674-0.661-1.711-1.048-3.032-1.048
		l-4.685,0.001L30.158,187.079L30.158,187.079z M32.005,181.777l-0.001-3.528h2.688c1.365,0,2.178,0.614,2.179,1.74v0.031
		c0,1.065-0.842,1.756-2.163,1.756L32.005,181.777z M46.026,187.256c3.228,0,5.51-2.478,5.51-5.438v-0.027
		c0-2.958-2.254-5.404-5.482-5.402c-3.229,0-5.511,2.477-5.511,5.436v0.03C40.545,184.806,42.797,187.256,46.026,187.256z
		 M46.055,185.544c-2.087,0.002-3.573-1.683-3.574-3.725v-0.028c0-2.046,1.455-3.709,3.543-3.709c2.087,0,3.573,1.695,3.573,3.739
		v0.028C49.6,183.891,48.142,185.544,46.055,185.544z M53.768,187.073h3.919c3.305-0.001,5.587-2.299,5.585-5.257v-0.03
		c-0.001-2.961-2.282-5.226-5.585-5.224h-3.919V187.073z M57.687,178.246c2.207,0,3.649,1.515,3.649,3.57v0.03
		c0.001,2.056-1.441,3.545-3.649,3.545h-2.072l-0.002-7.148L57.687,178.246L57.687,178.246z M69.825,187.237
		c2.748,0,4.521-1.578,4.52-4.713l-0.001-5.962h-1.847v6.052c0,1.937-1.005,2.914-2.642,2.915c-1.652,0-2.658-1.035-2.658-2.988
		l-0.001-5.979h-1.847v6.052C65.35,185.66,67.092,187.239,69.825,187.237z M81.76,187.249c1.967,0,3.167-0.718,4.264-1.862
		l-1.186-1.199c-0.901,0.842-1.727,1.354-3.019,1.354c-2.012,0-3.47-1.667-3.47-3.726v-0.028c0-2.057,1.471-3.71,3.469-3.71
		c1.202,0,2.103,0.527,2.943,1.31l1.185-1.367c-1.006-0.962-2.177-1.635-4.115-1.635c-3.183,0-5.419,2.448-5.419,5.438v0.027
		C76.414,184.865,78.696,187.252,81.76,187.249z M90.548,187.069h1.862l-0.001-8.8h3.334v-1.714l-8.53,0.003v1.711h3.333
		L90.548,187.069z M97.807,187.068h1.849l-0.001-10.511h-1.848V187.068z M107.484,187.248c3.229,0,5.512-2.479,5.511-5.438v-0.03
		c0-2.958-2.252-5.403-5.482-5.403c-3.228,0-5.511,2.479-5.511,5.438v0.028C102.003,184.801,104.255,187.248,107.484,187.248z
		 M107.514,185.534c-2.088,0-3.573-1.678-3.573-3.721v-0.028c0-2.046,1.454-3.712,3.542-3.712c2.087,0,3.573,1.695,3.573,3.74v0.028
		C111.058,183.884,109.601,185.534,107.514,185.534z M115.228,187.068l1.817-0.003l-0.001-7.476l5.796,7.476h1.547l-0.002-10.51
		l-1.817,0.001l0.001,7.267l-5.633-7.267h-1.713L115.228,187.068z"/>
	<path fill="#FFFFFF" d="M174.497,187.08l1.846-0.002l-0.002-3.665h2.313l2.585,3.665h2.191l-2.838-3.979
		c1.453-0.422,2.492-1.458,2.492-3.188v-0.026c0-0.916-0.315-1.696-0.871-2.27c-0.674-0.66-1.713-1.05-3.033-1.05h-4.686
		L174.497,187.08z M176.34,181.778v-3.527h2.689c1.364-0.002,2.18,0.614,2.18,1.738v0.031c0,1.065-0.844,1.757-2.164,1.757
		L176.34,181.778z M185.346,187.078l7.869-0.001v-1.652h-6.022v-2.821h5.271v-1.651h-5.271l-0.002-2.733h5.947v-1.652h-7.793
		L185.346,187.078z M200.288,187.256c1.965,0,3.168-0.72,4.264-1.862l-1.186-1.2c-0.9,0.84-1.727,1.351-3.02,1.351
		c-2.012,0.003-3.471-1.666-3.471-3.723v-0.029c0-2.056,1.473-3.708,3.471-3.708c1.199,0,2.102,0.527,2.943,1.307l1.186-1.365
		c-1.006-0.961-2.18-1.637-4.116-1.637c-3.185,0.001-5.419,2.451-5.419,5.438v0.03C194.94,184.868,197.223,187.256,200.288,187.256z
		 M211.213,187.254c3.229,0,5.513-2.479,5.51-5.437v-0.031c0-2.958-2.252-5.405-5.48-5.405c-3.229,0.003-5.512,2.48-5.51,5.439
		v0.031C205.733,184.806,207.985,187.254,211.213,187.254z M211.247,185.542c-2.09,0.002-3.576-1.679-3.576-3.723v-0.031
		c0-2.043,1.457-3.707,3.545-3.707c2.086-0.001,3.576,1.695,3.576,3.74v0.029C214.788,183.89,213.333,185.542,211.247,185.542z
		 M218.956,187.073h1.85v-3.664h2.313l2.584,3.661h2.19l-2.837-3.979c1.455-0.421,2.492-1.453,2.492-3.185v-0.028
		c0-0.918-0.314-1.697-0.871-2.267c-0.672-0.664-1.715-1.052-3.033-1.052l-4.686,0.001L218.956,187.073L218.956,187.073z
		 M220.804,181.773l-0.003-3.531h2.689c1.368,0,2.182,0.616,2.182,1.742v0.031c0,1.064-0.842,1.755-2.162,1.755L220.804,181.773z
		 M229.808,187.071h3.92c3.304,0,5.588-2.298,5.587-5.256v-0.029c-0.001-2.961-2.281-5.225-5.587-5.225l-3.92,0.002V187.071z
		 M233.726,178.241c2.209,0,3.651,1.516,3.651,3.573v0.026c0,2.059-1.442,3.547-3.649,3.547h-2.071l-0.002-7.148L233.726,178.241
		L233.726,178.241z M241.661,187.071h1.846v-10.512h-1.846V187.071z M246.323,187.071h1.815v-7.479l5.798,7.478h1.546v-10.512
		h-1.815v7.269l-5.635-7.267h-1.711L246.323,187.071z M263.17,187.247c1.861,0,3.347-0.752,4.385-1.639v-4.412h-4.477v1.607h2.688
		v1.966c-0.646,0.48-1.545,0.797-2.538,0.797c-2.146,0-3.572-1.592-3.572-3.753v-0.028c0-2.013,1.471-3.71,3.407-3.71
		c1.337,0,2.132,0.437,2.942,1.126l1.174-1.396c-1.081-0.915-2.207-1.427-4.039-1.427c-3.169,0-5.421,2.495-5.421,5.438v0.03
		C257.719,184.906,259.879,187.247,263.17,187.247z"/>
	<path fill="#FFFFFF" d="M45.328,224.054h1.816v-7.512l3.289,4.928h0.059l3.317-4.956l0.001,7.54h1.849l-0.001-10.513H53.69
		l-3.197,4.972l-3.198-4.972h-1.967V224.054z M58.47,224.054h1.848l-0.001-10.513H58.47V224.054z M69.901,213.541l-2.626,3.813
		l-2.614-3.813h-2.178l3.65,5.165l-3.798,5.352l2.117-0.005l2.765-4.01l2.777,4.01h2.179l-3.814-5.374l3.662-5.138H69.901z
		 M74.174,224.051h1.849V213.54h-1.849V224.051z M78.837,224.051h1.816l-0.001-7.478l5.797,7.478h1.547l-0.002-10.512h-1.817
		l0.001,7.27l-5.633-7.27l-1.713,0.001L78.837,224.051z M95.686,224.227c1.863,0,3.348-0.751,4.386-1.636v-4.415h-4.477v1.607h2.688
		l0.001,1.965c-0.646,0.482-1.545,0.798-2.539,0.798c-2.146,0-3.574-1.591-3.574-3.752v-0.029c0-2.012,1.471-3.709,3.408-3.709
		c1.337,0,2.133,0.435,2.943,1.127l1.172-1.399c-1.08-0.913-2.207-1.425-4.038-1.425c-3.168,0-5.42,2.494-5.42,5.438v0.028
		C90.235,221.885,92.396,224.227,95.686,224.227z"/>
	<path fill="#FFFFFF" d="M175.646,224.058h1.817v-7.51l3.289,4.925h0.059l3.32-4.954v7.539h1.848l-0.001-10.514h-1.968l-3.199,4.973
		l-3.195-4.973h-1.967v10.514H175.646z M187.782,224.058h1.895l1.082-2.54l4.97-0.003l1.065,2.538h1.955l-4.625-10.584h-1.713
		L187.782,224.058z M191.431,219.88l1.802-4.205l1.816,4.205H191.431z M204.049,224.204c2.207,0,3.755-1.173,3.755-3.138v-0.03
		c-0.003-1.742-1.142-2.539-3.365-3.078c-2.024-0.479-2.508-0.843-2.508-1.649v-0.03c0-0.691,0.631-1.247,1.713-1.248
		c0.961,0,1.907,0.376,2.853,1.08l0.991-1.399c-1.067-0.854-2.282-1.315-3.815-1.315c-2.086,0-3.588,1.244-3.588,3.049v0.028
		c0,1.937,1.263,2.598,3.5,3.139c1.955,0.448,2.371,0.856,2.373,1.604v0.031c0,0.78-0.723,1.322-1.863,1.322
		c-1.291,0-2.313-0.496-3.32-1.364l-1.111,1.32C200.926,223.651,202.444,224.204,204.049,224.204z M212.338,224.054h1.863v-8.804
		h3.334v-1.715l-8.531,0.003v1.712h3.334V224.054L212.338,224.054z M219.495,224.052l7.867-0.003V222.4h-6.021v-2.824h5.271v-1.651
		h-5.271v-2.732h5.947v-1.653h-7.793V224.052z M229.553,224.05h1.847v-3.663h2.313l2.582,3.663h2.193l-2.84-3.979
		c1.457-0.42,2.493-1.455,2.493-3.184v-0.029c0-0.914-0.315-1.697-0.871-2.268c-0.674-0.661-1.713-1.051-3.033-1.051h-4.687v10.51
		H229.553z M231.4,218.747v-3.526h2.688c1.365,0,2.177,0.615,2.177,1.741v0.028c0,1.068-0.841,1.757-2.162,1.757H231.4z
		 M240.508,224.05h1.851l-0.002-10.511h-1.849V224.05z M245.17,224.049h1.817l-0.002-7.477l5.798,7.477l1.547-0.002l-0.002-10.512
		l-1.818,0.001l0.003,7.27l-5.632-7.27h-1.715L245.17,224.049z M262.021,224.227c1.86-0.001,3.349-0.752,4.381-1.639l-0.001-4.415
		l-4.475,0.003v1.606h2.689v1.966c-0.645,0.482-1.544,0.799-2.541,0.799c-2.146,0-3.572-1.591-3.572-3.754v-0.029
		c0-2.014,1.471-3.71,3.41-3.71c1.332,0,2.135,0.436,2.942,1.128l1.168-1.398c-1.075-0.915-2.2-1.426-4.035-1.426
		c-3.172,0-5.424,2.496-5.422,5.438v0.029C256.567,221.885,258.731,224.227,262.021,224.227z"/>
</g>
</svg>
