<svg width="272" height="88" viewBox="0 0 272 88" fill="none" xmlns="http://www.w3.org/2000/svg">
<path d="M38.1337 48.026C48.1598 32.3451 56.9296 16.0419 63.7656 1.07029L63.8518 0.983175H64.0243V0.808942C64.9111 4.55224e-06 67.6578 2.06591 67.0419 3.04908L66.8695 3.31043H66.7833C66.6971 4.9283 66.6108 6.62085 66.6108 8.23873C66.6108 20.6964 69.1851 33.4154 72.9049 52.7801C80.8001 51.884 91.8855 50.2662 93.302 50.179C93.6592 49.8181 92.8586 51.884 91.8855 52.5934C89.9394 53.9375 80.0857 55.0078 73.4345 55.5554C75.5654 65.4991 77.9549 74.4596 80.6154 84.5029C80.7878 85.1252 78.6693 87.1039 77.7825 85.6727C70.6016 73.0409 60.403 62.1015 49.4039 56.1901L49.1329 56.103C44.785 56.0158 40.8804 55.8292 37.1607 55.5678C21.2839 78.6039 13.8321 86.7555 6.82367 84.6025C6.10928 83.8806 6.02306 82.9846 6.90989 83.0842C14.3617 83.7064 24.0306 69.1082 33.3424 55.3065C13.5611 53.4272 3.99074 49.1212 1.5889 45.537C0.874511 44.5538 0.615852 43.5706 0.615852 42.6746C0.615852 41.1563 1.50268 39.8993 3.19013 39.6255C4.52037 39.3517 6.02306 39.3517 7.89526 39.5384C12.3294 39.8993 24.5726 42.2266 38.1337 48.0509V48.026ZM35.0298 52.6805L36.9759 49.7186C23.501 43.6204 13.0315 42.1892 9.12696 41.7412C7.96916 41.567 2.74671 41.3803 3.97842 44.168C5.66586 47.2171 20.3848 51.4236 35.0175 52.6805H35.0298ZM40.1784 51.1622C39.8212 51.7845 39.3778 52.4192 38.9343 52.9543C40.6218 53.0414 42.3092 53.0414 43.8981 53.0414L40.1784 51.1622ZM69.6285 53.0414H69.7148C66.6108 39.2397 63.1497 18.7176 63.3345 9.04766C57.0405 23.4716 50.6479 33.602 42.223 48.2127L41.3362 49.4697C43.9104 50.7266 46.5709 52.0707 49.1452 53.5019C53.9366 53.6761 61.2899 53.2281 69.6285 53.0539V53.0414ZM53.7518 56.2647C60.8464 60.8321 67.6701 66.4823 73.3483 73.464L75.4792 76.0651C73.6193 69.1704 71.8456 62.5371 70.3306 55.8167H69.0004C63.0635 55.9038 57.7425 56.2647 53.7518 56.2647Z" fill="white" stroke="white" stroke-miterlimit="10"/>
<path d="M93.3763 62.9106C93.1053 62.6368 93.1053 62.4626 93.1053 62.3755C92.7481 61.7532 92.5757 60.5834 92.3047 59.1522L91.5903 53.4149C91.4179 48.8475 91.2331 43.1103 91.2331 37.286V34.4236C91.2331 23.758 91.6765 13.1921 92.8343 9.9563C93.1053 9.50828 93.9921 9.50828 94.879 10.0434C95.5934 10.5786 96.123 11.4746 95.852 12.0098C94.7927 15.146 94.4356 26.9813 94.4356 38.7172C94.4356 44.5415 94.5218 50.2787 94.9652 54.8461C96.4679 51.1748 102.146 43.7326 106.051 44.4544C106.851 44.5415 107.91 44.9895 108.625 45.7114L109.068 46.0723C110.928 47.7773 111.556 49.9303 111.556 51.9837C111.556 53.3278 111.285 54.5848 110.94 55.6551L110.325 57.0863C114.673 56.3644 121.767 52.3322 124.871 49.5569C125.758 48.6609 125.228 51.4362 124.428 52.606C121.139 57.0863 114.845 60.4963 107.048 60.5834H106.334L105.977 60.6705C104.56 60.9443 99.4117 60.6705 97.4656 59.3264L97.2931 59.2393L97.0221 60.1353L96.4925 62.6493C96.5787 63.2715 96.4063 63.732 96.3201 63.9934C96.2338 63.9934 96.1476 64.1676 95.9629 64.2671C95.8767 64.2671 95.4332 64.5409 94.5464 64.0929C93.9306 63.6449 93.3886 63.0226 93.3886 62.9231L93.3763 62.9106ZM100.643 57.9823C104.72 57.9823 108.268 54.311 108.268 50.0921C108.268 48.8351 107.997 47.939 107.467 47.4039L107.196 47.043H107.024C104.006 48.0262 101.703 51.6104 97.7981 57.3476L97.9706 57.4347C98.8574 57.7956 99.7442 57.9699 100.631 57.9699L100.643 57.9823Z" fill="white" stroke="white" stroke-miterlimit="10"/>
<path d="M136.744 52.0583C137.102 53.2281 137.188 54.5722 136.917 55.9163C136.116 60.3965 132.483 62.6367 128.406 62.3753C125.129 62.2011 122.912 59.4134 122.469 56.9119C121.853 53.1534 124.156 48.8474 126.189 48.1256C126.361 48.1256 126.46 48.0385 126.632 48.0385C126.989 46.7815 127.605 45.7983 129.379 45.8854C131.768 46.2463 133.727 47.4038 135.057 49.0216C137.274 49.2954 139.577 49.3825 141.622 49.3825C145.785 49.3825 149.246 49.0216 150.047 49.0216C152.621 48.9345 151.993 50.0919 149.874 50.8137C147.928 51.5356 142.164 52.3321 136.744 52.0707V52.0583ZM125.573 56.6256C126.016 59.2267 126.989 60.2099 128.677 60.1227C132.581 59.9485 134.527 54.8335 133.111 51.6102C131.066 51.2493 129.391 50.7142 128.147 49.9052L127.975 50.0795C126.817 50.9755 125.142 54.1117 125.585 56.6256H125.573Z" fill="white" stroke="white" stroke-miterlimit="10"/>
<path d="M214.17 24.5544C222.779 24.5544 231.204 25.0024 236.254 26.0727C237.055 26.4336 237.942 27.3297 238.299 27.8648C238.385 28.5866 237.942 28.9351 237.24 28.848C231.204 27.6781 222.693 27.3297 214.539 27.3297C206.385 27.3297 197.689 27.9519 188.636 28.0515C188.279 33.3407 187.749 38.5303 187.749 40.9571C187.478 47.9513 187.134 60.0481 187.134 70.2656C187.134 75.8161 187.22 80.7445 187.491 83.9802C187.663 85.7723 188.378 86.8426 187.762 87.2906C187.047 87.8258 185.372 86.1208 184.929 83.8806C184.214 81.1925 184.042 72.68 184.042 63.7194C184.042 55.742 184.214 47.5033 184.313 42.7493C181.739 50.5399 177.305 60.1352 172.341 60.2223C169.064 60.3094 166.305 57.8951 165.074 55.0202C163.472 57.4346 160.64 60.7575 157.006 60.7575C154.075 60.7575 151.155 58.3431 150.182 55.3811C149.825 54.3108 149.653 53.141 149.653 51.9711C149.653 50.5399 149.924 49.1088 150.54 47.7647C151.069 46.8686 151.599 46.0597 152.399 45.7983C153.902 45.4374 156.304 48.1256 154.887 48.3994C153.557 48.7603 152.941 51.7098 152.757 52.9668C152.67 54.398 152.843 56.9119 154.173 57.8079C155.947 58.9778 158.607 56.7377 159.937 55.5678C161.982 53.4148 163.928 50.1915 164.458 47.5904C164.63 46.6073 167.118 47.6776 167.747 48.8474C167.919 49.5692 167.833 51.0875 167.833 52.7054C167.833 55.3065 168.19 57.9946 171.023 57.3599C176.615 56.1901 183.168 39.7997 185.126 28.2382C177.317 28.5991 171.737 29.1342 164.901 30.3041C163.214 30.5779 161.354 28.2382 162.857 27.8897C168.892 26.8194 174.472 26.1847 185.557 25.5624L185.729 23.4094C185.816 17.8589 186.345 12.6568 186.789 9.9686C186.961 8.5374 190.336 9.43346 190.336 11.1384C189.893 14.4489 189.363 19.9248 188.92 25.3882C201.865 24.8531 208.073 24.5793 214.194 24.5793L214.17 24.5544Z" fill="white" stroke="white" stroke-miterlimit="10"/>
<path d="M221.338 56.0906C220.98 55.0203 220.808 53.8505 220.808 52.6807C220.808 51.2495 221.079 49.7187 221.781 48.4742C222.224 47.5781 222.754 46.7692 223.555 46.5078C224.269 46.3336 225.242 46.7816 225.944 47.5906C226.659 48.3124 226.474 48.8475 226.03 49.1089C224.786 49.9178 223.986 52.5189 223.986 54.8461C223.986 56.464 224.343 57.8952 225.316 58.5174C228.95 61.0314 234.899 51.5232 235.601 48.2999C235.872 47.043 238.976 48.6608 238.791 50.0049C238.705 50.6272 238.618 52.0708 238.618 53.6763C238.976 55.8293 239.592 57.9823 242.08 58.2437C248.201 57.9699 253.522 53.2282 256.454 50.2663C257.254 49.1835 257.168 51.8717 256.096 53.5767C254.323 56.352 249.802 61.1932 243.681 60.8323C240.22 60.8323 237.473 58.6792 236.229 55.7297C234.455 58.3308 231.881 61.467 228.248 61.467C225.316 61.467 222.311 59.1397 221.325 56.0906H221.338Z" fill="white" stroke="white" stroke-miterlimit="10"/>
<path d="M255.395 59.5005C256.196 59.6747 257.169 59.7743 258.326 59.7743C261.159 59.7743 264.707 59.3263 267.022 58.7911C264.805 57.6213 261.43 55.9287 259.657 54.9331C257.353 53.589 254.865 52.693 254.508 50.0048C253.794 45.2508 263.463 42.3884 267.995 41.7661C269.412 41.5919 271.185 43.2844 270.483 44.1929C267.207 45.3628 259.127 46.8811 258.154 49.2083C257.624 50.4653 259.657 51.3613 261.443 52.4316C264.818 54.3109 267.478 55.6549 269.252 57.0861C271.198 58.7911 269.523 61.2926 267.207 61.9273C265.606 62.3753 263.303 62.6491 260.999 62.6491C258.696 62.6491 256.651 62.3878 255.321 61.8402C254.262 61.3051 253.461 59.0649 255.407 59.5129L255.395 59.5005Z" fill="white" stroke="white" stroke-miterlimit="10"/>
</svg>
