<svg width="75" height="33" viewBox="0 0 75 33" fill="none" xmlns="http://www.w3.org/2000/svg">
<g clip-path="url(#clip0_1_2)">
<path fill-rule="evenodd" clip-rule="evenodd" d="M70.1921 4.79574C67.0901 1.7041 62.9651 0.00182451 58.5697 0C49.5121 0 42.1412 7.33455 42.1375 16.3513C42.1357 19.2331 42.8928 22.0465 44.3311 24.526L42 33L50.7102 30.7267C53.11 32.0303 55.8123 32.7154 58.5623 32.7163H58.5697C67.6254 32.7163 74.9973 25.3808 75 16.365C75.0018 11.9953 73.2941 7.88738 70.1921 4.79665V4.79574ZM58.5697 29.954H58.5642C56.1139 29.954 53.7104 29.2981 51.6131 28.0592L51.1144 27.7646L45.9453 29.1138L47.3249 24.0982L47.0004 23.5837C45.6337 21.4198 44.9113 18.9184 44.9123 16.3504C44.915 8.85711 51.042 2.76049 58.5752 2.76049C62.2226 2.76232 65.6518 4.17723 68.2304 6.74706C70.809 9.31597 72.228 12.7315 72.2262 16.3622C72.2225 23.8564 66.0964 29.9531 58.5697 29.9531V29.954ZM66.0607 19.7759C65.65 19.5716 63.6315 18.5836 63.2548 18.4468C62.878 18.3099 62.6048 18.2424 62.3317 18.6511C62.0585 19.0607 61.2711 19.9812 61.0318 20.253C60.7926 20.5258 60.5524 20.5595 60.1427 20.3552C59.732 20.1509 58.4092 19.7194 56.8408 18.3273C55.6207 17.2435 54.7967 15.9061 54.5565 15.4965C54.3172 15.0869 54.5308 14.8661 54.7362 14.6627C54.9204 14.4793 55.1468 14.1856 55.3522 13.9466C55.5575 13.7085 55.6253 13.537 55.7628 13.2651C55.9003 12.9924 55.8316 12.7543 55.7289 12.549C55.6263 12.3447 54.8058 10.3331 54.463 9.51576C54.1293 8.71936 53.7911 8.827 53.5399 8.81423C53.3007 8.80237 53.0266 8.80055 52.7525 8.80055C52.4784 8.80055 52.0338 8.90272 51.6571 9.31141C51.2803 9.72102 50.2198 10.709 50.2198 12.7196C50.2198 14.7302 51.691 16.6733 51.8963 16.947C52.1017 17.2198 54.7921 21.3468 58.9098 23.1166C59.8888 23.5381 60.6542 23.7889 61.2509 23.9778C62.2345 24.2889 63.1292 24.2451 63.8368 24.1402C64.6252 24.0225 66.266 23.1513 66.6079 22.197C66.9498 21.2428 66.9498 20.4245 66.8472 20.2539C66.7445 20.0833 66.4704 19.9812 66.0598 19.7768V19.775L66.0607 19.7759Z" fill="#25D366"/>
</g>
<path d="M26.9992 23.2147V27.2793C27.0007 27.6566 26.9261 28.0301 26.7802 28.3758C26.6344 28.7216 26.4205 29.0319 26.1522 29.287C25.8839 29.5421 25.5672 29.7363 25.2223 29.8572C24.8774 29.9781 24.5119 30.023 24.1493 29.989C20.1266 29.536 16.2626 28.1114 12.8676 25.8296C9.70898 23.7494 7.03104 20.974 5.02394 17.7004C2.81462 14.1658 1.43971 10.1416 1.01061 5.95373C0.977943 5.57907 1.02091 5.20146 1.13676 4.84495C1.25262 4.48843 1.43884 4.16083 1.68355 3.88299C1.92827 3.60515 2.22612 3.38316 2.55815 3.23117C2.89018 3.07917 3.24911 3.00049 3.61208 3.00013H7.5339C8.16833 2.99366 8.78338 3.2265 9.26442 3.65525C9.74546 4.084 10.0597 4.67941 10.1484 5.3305C10.314 6.63125 10.621 7.90843 11.0635 9.13766C11.2394 9.6226 11.2775 10.1496 11.1732 10.6563C11.069 11.163 10.8267 11.628 10.4753 11.9964L8.81503 13.7171C10.676 17.1091 13.3858 19.9176 16.6587 21.8463L18.3189 20.1256C18.6743 19.7613 19.1231 19.5103 19.612 19.4022C20.1008 19.2942 20.6093 19.3336 21.0772 19.5159C22.2633 19.9746 23.4956 20.2928 24.7507 20.4643C25.3857 20.5572 25.9657 20.8887 26.3802 21.3958C26.7948 21.9029 27.0151 22.5502 26.9992 23.2147Z" stroke="white" stroke-width="2" stroke-linecap="round" stroke-linejoin="round"/>
<defs>
<clipPath id="clip0_1_2">
<rect width="33" height="33" fill="white" transform="translate(42)"/>
</clipPath>
</defs>
</svg>
