<?xml version="1.0" encoding="utf-8"?>
<!-- Generator: Adobe Illustrator 24.1.1, SVG Export Plug-In . SVG Version: 6.00 Build 0)  -->
<svg version="1.1" id="Layer_1" xmlns="http://www.w3.org/2000/svg" xmlns:xlink="http://www.w3.org/1999/xlink" x="0px" y="0px"
	 width="299px" height="114.3px" viewBox="0 0 299 114.3" style="enable-background:new 0 0 299 114.3;" xml:space="preserve">
<style type="text/css">
	.st0{fill-opacity:0;}
	.st1{clip-path:url(#SVGID_2_);}
	.st2{fill:#48AC33;}
	.st3{fill:#FFFFFF;}
</style>
<a>
	<rect class="st0" width="292.2" height="34.4"/>
</a>
<g>
	<g>
		<defs>
			<rect id="SVGID_1_" y="1.3" width="299" height="113"/>
		</defs>
		<clipPath id="SVGID_2_">
			<use xlink:href="#SVGID_1_"  style="overflow:visible;"/>
		</clipPath>
		<g class="st1">
			<path class="st2" d="M195.8,52c0.5,0.2,1.2,0.5,1.8,0.5s1.2-0.1,1.5-0.6c0.2-0.4,0.6-1.4,1.1-2.6l0.2-0.6
				c0.4-0.7,0.4-1.4,0.4-1.9c0.1-0.2,0-0.6-0.1-0.8c-0.4-0.6-1.2-1.2-2.1-1.4c-0.9-0.4-1.9-0.4-2.5,0c-0.4,0.2-0.5,0.6-0.5,0.8
				l-0.1,1.4c-0.1,0.1-0.1,0.4-0.2,0.7c-0.2,0.5-0.6,1.5-0.7,1.8c-0.2,0.2-0.4,0.6-0.2,0.9C194.2,51.1,195,51.8,195.8,52L195.8,52z"
				/>
			<path class="st3" d="M298.1,66.1c-0.4-0.2-1.5-1.1-8.8,1.9c-2.9,1.2-6.2,2.7-8,3.6c-0.1-4.2-0.5-8.5-0.7-9.5
				c-0.1-1.3-1.8-2.5-2.8-2.8c-1.2-0.2-1.6,0.4-1.8,0.5c-0.1,0.1-0.2,0.4-0.5,0.6c-0.2,0.4-0.5,0.7-0.7,1.1
				c-3.3-1.2-6.5-1.9-9.3-1.9c-3.5,0-5.4,1.2-7.2,2.4c-0.6,0.6-1.1,1.4-1.3,2.2c-0.2,0.1-0.5,0.4-0.7,0.5c-3.9,2.8-9.3,6.6-13.4,6.6
				c-1.2,0-2-0.2-2.8-0.8c-0.7-1.2-0.5-3.3-0.2-4.8c0.1-0.7,0.1-1.3,0.1-1.9c0-1.9-2-3.8-4.1-4c-5.1-0.6-11.3,2.2-14.9,4.6l0.1-1.9
				c0.1-1.1-1.1-2.1-2-2.7c-0.9-0.4-1.8-0.4-2.4,0c-0.4,0.2-0.6,0.6-0.5,0.9l-0.2,2.7c-3.9,3.4-12.2,9.1-17.2,9.1
				c-0.9,0-1.8-0.2-2.4-0.7c-0.9-1.1,0.6-10.9,1.3-12l0.1-0.1v-0.2c0.1-0.9-0.7-1.9-2-2.5c-0.6-0.1-1.8-0.4-2.6,0.1
				c-0.2,0.1-0.4,0.4-0.5,0.6c-0.9,1.5-1.5,3.9-1.6,6.7c-4.2,3.1-10.7,6.8-16.2,7.2c-3.4,0.2-7.4-1.2-9.3-2.8
				c3.4-1.3,7.6-4.4,9.1-7.5c0.6-1.3,0.7-2.5,0.4-3.4c-0.7-1.6-2.4-3.2-4.6-2.9c-4.9,0.5-8.9,5.1-12.1,10
				c0.6-11.8,0.8-21.8,1.1-30.7c0.1-3.9,0.2-7.6,0.4-11.3c-0.1-0.9-1.2-1.8-2.5-2.1c-0.7-0.4-1.5-0.2-2,0.1
				c-0.4,0.2-0.6,0.7-0.6,1.1c-0.1,4.4-0.2,9.6-0.4,15.3c-0.2,7.6-0.5,16-0.6,24.4c-0.2,0-0.6,0-0.9,0.1c-1.6,0.1-4.5,0.4-7.5,0.4
				c-2.5,0-4.7-0.1-6.8-0.4c-1.6-1.8-3.9-3.1-6.5-3.4c-2.4-0.1-3.2,1.2-3.5,2.4h-0.1c-0.5,0.1-0.9,0.5-1.5,0.9c-0.4,0-0.7,0-1.3,0.1
				c-1.6,0.1-4.5,0.4-7.5,0.4c-2.5,0-4.7-0.1-6.8-0.4c-1.6-1.5-3.9-2.7-6.5-3.1c-2.2-0.1-3.2,1.2-3.5,2.4H101
				c-1.5,0.5-3.1,2.5-3.9,4.8c-0.8-0.1-2-0.1-3.3-0.1c-3.5,0-7.9,0.2-11.5,0.7c-2.5-5.6-7.1-10.2-13.2-13.2
				c8.5-3.5,14.1-10.9,13.9-18.5c-0.2-7.5-6.1-16.7-21.8-19.9c-4.6-0.9-9.5-1.4-14.5-1.3c0.4-3.8,0.8-7.2,1.3-10
				c0-0.9-1.4-1.9-2.5-2c-0.8-0.1-1.4-0.2-1.8,0.1c-0.4,0.2-0.4,0.6-0.5,0.8c-0.6,2.7-1.1,7.2-1.5,11.4l-1.5,0.1
				C24.7,15.5,10,24.4,3.5,35.8C0.6,40.8,0,46.1,0,49.7c0,4.5,0.9,8.6,2.8,11.6c5.4,9.2,14.2,10.6,18.9,10.6c3.9,0,6.8-0.9,7.5-1.3
				c0.7-0.6,0.8-1.2,0.6-1.5c-0.4-0.6-1.2-0.8-1.9-0.6c-1.2,0.4-2.8,0.6-4.2,0.6c-5.4,0-10-1.6-13.4-4.9c-3.5-3.6-5.6-8.8-5.6-14.5
				c0-3.9,0.9-7.6,2.8-10.9c6.1-10.8,19.7-18.9,33.8-20.5c-1.2,15.4-2.5,33.2-2.5,50.1c0,2.9,0,6.1,0.1,9.2
				c-4.8,2.4-10.8,6.2-13.3,11.8c-0.5,1.2-0.6,2.1-0.6,3.1c0,8,14.6,10.4,19.8,10.6c0.2,0,0.6,0,0.8,0c5.3,0,10.7-0.9,15.3-2.6
				c13.8-4.7,22.6-15.3,22.6-26.8c0-0.9-0.1-2-0.2-2.9c4-0.6,8.4-1.1,12.8-1.4c0,0.6,0,1.3,0.1,1.9c0.6,2.9,3.2,6.2,7.1,6.5
				c0.2,0,0.5,0,0.7,0c4.7,0,8.4-2.9,9.2-7.5c0.2-1.2,0.2-2.4,0-3.5c4.1,0.1,8.1-0.2,10.8-0.7c-0.6,1.6-0.9,3.5-0.6,5.4
				c0.5,2.9,3.2,6.2,7.1,6.5c0.2,0,0.5,0,0.7,0c4.7,0,8.4-2.9,9.2-7.5c0.2-1.2,0.2-2.4,0-3.5c5.3,0.1,10.5-0.6,12.9-1.2
				c0,1.5,0,2.9,0,4.5c0,3.6,0.1,7.2,0.4,10.6v0.2c0.5,1.3,2,2.6,3.2,2.6c0.1,0,0.1,0,0.2,0c0.6-0.1,1.1-0.6,1.1-1.3
				c0.1-4.2,1.2-8.4,2.7-10.9c4,4.4,9.9,5.9,14.4,5.9c7.6,0,13.2-4.2,16.1-6.9c0.4,2,1.1,3.6,2,4.6c2,2.2,4.7,2.7,6.8,2.7
				c0.1,0,0.4,0,0.5,0c5.1-0.2,10.9-4.2,14.6-7.8l-0.1,1.2c-0.2,1.2-0.1,2.2,0,3.1c0,0.8,0.6,1.5,1.5,2c0.5,0.2,1.1,0.5,1.6,0.5
				c0.4,0,0.7-0.1,0.9-0.2c0.4-0.2,0.6-0.6,0.5-0.9l0.1-2.1c1.6-3.5,8-7.8,14.8-8.8c-0.1,0.8-0.1,1.6-0.1,2.5c0,2.1,0.5,3.8,1.4,5.2
				c1.6,2.5,4.8,4,8.1,4c5.2,0,10.1-2.8,13.3-5.6c0.1,0.2,0.2,0.4,0.4,0.6c0.7,1.1,1.8,2,2.8,2.8c0.2,0.2,0.6,0.5,1.1,0.7
				c0.9,0.5,2,0.7,3.1,0.7c1.3,0,2.4-0.4,3.2-0.7l0.2-0.1c1.8-0.8,3.4-2.1,5.1-3.4c0.9-0.7,1.8-1.5,2.5-2.4l0.1,6.8v0.1l-2,1.5
				c-10.5,7.8-17.8,16.9-19.2,24.1l0,0c-0.5,3.4,0.9,7.2,3.9,10.2c2.2,2.2,5.1,3.5,7.6,3.5c0.5,0,0.9,0,1.4-0.1
				c9.3-1.9,12-15.8,12.8-27.2l0.2-8.9l0.1-0.8l2.5-1.8c4.5-2.7,10.6-5.9,14.1-6.9c0.2-0.1,1.1-0.2,1.2-0.9
				C299.1,67,298.6,66.5,298.1,66.1L298.1,66.1z M276.2,80.8c0,11.5-2.8,28-10.5,29.7c-0.8,0.2-2.4-0.4-3.8-1.6
				c-0.9-1.1-2.5-3.3-1.9-6.2c0.9-6,6.8-14.1,15.2-21.1L276.2,80.8L276.2,80.8z M271.9,64.6l-2.4,2.2c-1.4,1.2-3.1,2.4-4.5,3.1
				c-0.7,0.4-1.3,0.5-1.8,0.5c-0.2,0-0.4,0-0.5,0l-0.5-0.4c-0.5-0.7-0.8-1.5-0.8-2.2c0-0.8,0.2-1.5,0.8-2.2c1.1-1.1,2.9-1.6,5.2-1.6
				C268.8,63.9,270.3,64.1,271.9,64.6L271.9,64.6z M170.4,59.2c-0.1,0.5-0.4,0.9-0.8,1.5c-1.2,1.8-3.4,3.5-5.1,4.6
				C167.4,61.1,169.4,59.5,170.4,59.2L170.4,59.2z M131.1,73.8c-1.3,0-2.2-0.5-2.7-3.2c-0.5-2.4,1.1-5.3,2.2-6.2
				c1.2,0.7,2.8,1.2,4.8,1.6c0.6,1.6,0.4,3.9-0.7,5.5C133.9,72.8,132.5,73.7,131.1,73.8L131.1,73.8z M103.8,73.8
				c-1.3,0-2.2-0.5-2.7-3.2c-0.5-2.4,1.1-5.3,2.2-6.2c1.2,0.7,2.8,1.2,4.8,1.6c0.6,1.6,0.4,3.9-0.7,5.5
				C106.5,72.8,105.2,73.7,103.8,73.8L103.8,73.8z M48.5,50.7l-0.1,0.1c-0.8,0.4-1.5,0.8-1.2,2.6v0.1c1.1,2.2,7.6,2.1,9.6,2
				c2.4-0.1,4.5-0.1,6.7-0.7c5.2,1.6,11.5,5.5,14.4,11.9c-7.9,1.2-18.5,2.8-27.8,6.1l-1.4,0.5c-1.8,0.6-3.5,1.3-5.3,2
				c0.4-17.9,1.5-38.4,2.8-57.8c4.2-0.2,8.5,0,13.1,0.7C72.4,20.6,78.1,28.6,78,34.9c-0.1,7.1-8.1,14.2-14.7,15.4
				C57.4,48.7,51.7,49.1,48.5,50.7L48.5,50.7z M40.7,88.4c0.4,0.9,1.4,2.5,2.8,2.6c0.5,0,0.8-0.1,1.1-0.5c0.1-0.2,0.4-0.6,0.2-1.3
				c-0.7-1.8-1.2-4.5-1.4-8.6c2.5-1.2,5.1-2.1,7.4-2.9l1.8-0.6C60,74.4,68.2,73,79,71.2c0.9,16.1-13.9,22.9-20.4,25.2
				c-4.9,1.6-10.5,2.4-15.4,2.2c-3.4-0.1-11.5-0.6-13.6-3.8c-0.6-0.8-0.7-1.9-0.4-2.9c1.9-3.4,5.3-6.6,10.1-9.2
				C39.7,84.6,40,86.8,40.7,88.4L40.7,88.4z"/>
		</g>
	</g>
</g>
</svg>
