<svg width="26" height="21" viewBox="0 0 26 21" fill="none" xmlns="http://www.w3.org/2000/svg">
<path fill-rule="evenodd" clip-rule="evenodd" d="M3.47318 2.31545C2.83908 2.31545 2.31545 2.83908 2.31545 3.47318V17.3659C2.31545 18 2.83908 18.5236 3.47318 18.5236H21.9968C22.6309 18.5236 23.1545 18 23.1545 17.3659V3.47318C23.1545 2.83908 22.6309 2.31545 21.9968 2.31545H3.47318ZM0 3.47318C0 1.56029 1.56029 0 3.47318 0H21.9968C23.9097 0 25.47 1.56029 25.47 3.47318V17.3659C25.47 19.2788 23.9097 20.8391 21.9968 20.8391H3.47318C1.56029 20.8391 0 19.2788 0 17.3659V3.47318Z" fill="white"/>
<path fill-rule="evenodd" clip-rule="evenodd" d="M0.209379 2.80949C0.576048 2.28568 1.29793 2.15829 1.82174 2.52496L12.7351 10.1643L23.6484 2.52496C24.1723 2.15829 24.8941 2.28568 25.2608 2.80949C25.6275 3.3333 25.5001 4.05518 24.9763 4.42185L13.399 12.5259C13.0004 12.805 12.4698 12.805 12.0712 12.5259L0.493913 4.42185C-0.0298993 4.05518 -0.157289 3.3333 0.209379 2.80949Z" fill="white"/>
</svg>
